<svg width="2002" height="489" viewBox="0 0 2002 489" fill="none" xmlns="http://www.w3.org/2000/svg">
<path opacity="0.7" d="M1112.64 81.6791L989.422 0H917L888.5 81.6791L808 93.5L777.5 181.679L738 212L701 251.895L680 212H649.5L610 228.5L584.5 185.211H535.5L477.5 224L458.5 298.774L419 240.022L384 224L344.5 260.084V312.029L314.5 298.774L263 330.299V348.569L193 371.855L165 440.279L144 400.514L109.5 384.5L74.5 413.769V452L0 489H844H2002L1951.85 473.954H1912.1L1895.26 440.279L1848.7 413.769L1820.04 400.514L1781.72 413.769V371.855H1733.36L1755.21 298.774L1710.08 260.084L1658.5 240.022L1624.84 268.681L1643.46 330.299L1606.57 371.855L1586.51 348.569L1543.17 371.855L1519.89 312.029L1486.58 298.774L1448.25 330.299L1423.18 276.921H1401.33L1376.26 298.774V206.706L1322.89 161.925L1281.34 185.211L1244.45 240.022V206.706L1202.9 151.895L1154.54 161.925L1127.68 206.706L1112.64 81.6791Z" fill="url(#paint0_linear_196_114528)"/>
<defs>
<linearGradient id="paint0_linear_196_114528" x1="1418.75" y1="1.54373" x2="1418.75" y2="514.199" gradientUnits="userSpaceOnUse">
<stop stop-color="#FFC328" stop-opacity="0.53"/>
<stop offset="1" stop-color="#FF1895" stop-opacity="0.08"/>
</linearGradient>
</defs>
</svg>
