<?xml version="1.0" encoding="utf-8"?>
<!-- Generator: Adobe Illustrator 27.9.0, SVG Export Plug-In . SVG Version: 6.00 Build 0)  -->
<svg version="1.1" xmlns="http://www.w3.org/2000/svg" xmlns:xlink="http://www.w3.org/1999/xlink" x="0px" y="0px" width="800px"
	 height="524.1px" viewBox="0 0 800 524.1" style="enable-background:new 0 0 800 524.1;" xml:space="preserve">
<style type="text/css">
	.st0{display:none;}
	.st1{display:inline;fill:#231F20;stroke:#000000;stroke-miterlimit:10;}
	.st2{fill:none;stroke:#FFFFFF;stroke-miterlimit:10;}
	.st3{fill:#FFFFFF;}
	.st4{font-family:'Futura-Bold';}
	.st5{font-size:60.3773px;}
</style>
<g id="Layer_2" class="st0">
	<rect x="-258" y="-180" class="st1" width="1124" height="770"/>
</g>
<g id="Layer_3">
	<line class="st2" x1="386.5" y1="113.9" x2="386.5" y2="449.1"/>
	<rect x="162.2" y="217" class="st3" width="46.7" height="46.7"/>
	<g>
		<rect x="514.4" y="119.4" class="st3" width="31.5" height="31.5"/>
		<rect x="560.9" y="119.4" class="st3" width="31.5" height="31.5"/>
		<rect x="615.3" y="127.3" class="st3" width="15.8" height="15.8"/>
		<rect x="653.9" y="119.4" class="st3" width="31.5" height="31.5"/>
		<rect x="522.3" y="175.4" class="st3" width="15.8" height="15.8"/>
		<rect x="560.9" y="167.5" class="st3" width="31.5" height="31.5"/>
		<rect x="607.4" y="167.5" class="st3" width="31.5" height="31.5"/>
		<rect x="653.9" y="167.5" class="st3" width="31.5" height="31.5"/>
		<rect x="514.4" y="215.6" class="st3" width="31.5" height="31.5"/>
		<rect x="560.9" y="215.6" class="st3" width="15.8" height="15.8"/>
		<rect x="577.5" y="232.5" class="st3" width="15.8" height="15.8"/>
		<rect x="614.1" y="222.3" class="st3" width="18.1" height="18.1"/>
		<rect x="653.9" y="215.6" class="st3" width="31.5" height="31.5"/>
		<rect x="522.3" y="271.5" class="st3" width="15.8" height="15.8"/>
		<rect x="560.9" y="263.6" class="st3" width="31.5" height="31.5"/>
		<rect x="607.4" y="263.6" class="st3" width="31.5" height="31.5"/>
		<rect x="653.9" y="263.6" class="st3" width="31.5" height="31.5"/>
		<rect x="514.4" y="311.7" class="st3" width="31.5" height="31.5"/>
		<rect x="560.9" y="311.7" class="st3" width="31.5" height="31.5"/>
		<rect x="615.3" y="319.6" class="st3" width="15.8" height="15.8"/>
		<rect x="653.9" y="311.7" class="st3" width="31.5" height="31.5"/>
		<rect x="516.5" y="361.8" class="st3" width="27.4" height="27.4"/>
		<rect x="552.5" y="351.4" class="st3" width="48.2" height="48.2"/>
		<rect x="609.2" y="361.6" class="st3" width="28" height="28"/>
		<rect x="663" y="368.9" class="st3" width="13.4" height="13.4"/>
	</g>
	<text transform="matrix(1 0 0 1 82.4413 74.9701)" class="st3 st4 st5">Before</text>
	<g>
		<g>
			<path class="st3" d="M60.7,311.7h-2v-3h5.5v13.6h-3.5V311.7z"/>
			<path class="st3" d="M83.4,311.7h-4.2v2.3h4v3h-4v2.3h4.2v3h-7.7v-13.6h7.7V311.7z"/>
			<path class="st3" d="M85.6,313h3.3v1.2c0.4-0.5,0.9-0.9,1.4-1.1c0.5-0.2,1-0.3,1.6-0.3c0.6,0,1.2,0.1,1.7,0.3
				c0.5,0.2,0.9,0.5,1.2,0.9c0.3,0.3,0.4,0.7,0.5,1c0.1,0.4,0.1,0.8,0.1,1.3v5.9h-3.3v-4.7c0-0.5,0-0.8-0.1-1.1
				c-0.1-0.3-0.2-0.5-0.4-0.7c-0.1-0.1-0.3-0.2-0.5-0.3c-0.2-0.1-0.4-0.1-0.6-0.1c-0.6,0-1,0.2-1.3,0.5c-0.3,0.3-0.4,0.8-0.4,1.4
				v4.9h-3.3V313z"/>
			<path class="st3" d="M100.1,313l2.2,4.7l2.2-4.7h3.6l-4.8,9.2h-2.2l-4.8-9.2H100.1z"/>
			<path class="st3" d="M109.1,309.5c0-0.3,0-0.5,0.1-0.7s0.2-0.4,0.4-0.6s0.4-0.3,0.6-0.4c0.2-0.1,0.5-0.1,0.7-0.1s0.5,0,0.7,0.1
				c0.2,0.1,0.4,0.2,0.6,0.4c0.2,0.2,0.3,0.4,0.4,0.6c0.1,0.2,0.1,0.5,0.1,0.7s0,0.5-0.1,0.7c-0.1,0.2-0.2,0.4-0.4,0.6
				c-0.2,0.2-0.4,0.3-0.6,0.4c-0.2,0.1-0.5,0.1-0.7,0.1s-0.5,0-0.7-0.1c-0.2-0.1-0.4-0.2-0.6-0.4s-0.3-0.4-0.4-0.6
				C109.2,309.9,109.1,309.7,109.1,309.5z M112.6,313v9.2h-3.3V313H112.6z"/>
			<path class="st3" d="M114.8,313h3.3v1.5c0.3-0.6,0.8-1,1.3-1.3s1.1-0.4,1.8-0.4c0.1,0,0.2,0,0.3,0s0.2,0,0.4,0v3.1
				c-0.4-0.2-0.9-0.3-1.4-0.3c-0.8,0-1.3,0.2-1.7,0.7c-0.4,0.5-0.6,1.1-0.6,2v4h-3.3V313z"/>
			<path class="st3" d="M122.8,317.5c0-0.7,0.1-1.3,0.4-1.9s0.7-1.1,1.2-1.5s1.1-0.8,1.8-1c0.7-0.3,1.4-0.4,2.2-0.4
				c0.8,0,1.5,0.1,2.2,0.4s1.3,0.6,1.8,1c0.5,0.4,0.9,1,1.2,1.6c0.3,0.6,0.4,1.3,0.4,2c0,0.7-0.1,1.4-0.4,2
				c-0.3,0.6-0.7,1.1-1.2,1.6s-1.1,0.8-1.8,1c-0.7,0.2-1.4,0.4-2.2,0.4c-0.8,0-1.5-0.1-2.2-0.4c-0.7-0.2-1.3-0.6-1.7-1
				c-0.5-0.4-0.9-1-1.1-1.6C123,319,122.8,318.3,122.8,317.5z M126.3,317.6c0,0.3,0.1,0.6,0.2,0.9c0.1,0.3,0.3,0.5,0.4,0.7
				c0.2,0.2,0.4,0.3,0.7,0.4c0.3,0.1,0.5,0.2,0.8,0.2c0.3,0,0.6-0.1,0.8-0.2c0.3-0.1,0.5-0.3,0.7-0.4c0.2-0.2,0.3-0.4,0.4-0.7
				c0.1-0.3,0.2-0.5,0.2-0.8c0-0.3-0.1-0.6-0.2-0.8s-0.3-0.5-0.4-0.7c-0.2-0.2-0.4-0.3-0.7-0.4c-0.3-0.1-0.5-0.2-0.8-0.2
				c-0.3,0-0.6,0.1-0.8,0.2c-0.3,0.1-0.5,0.3-0.7,0.4c-0.2,0.2-0.3,0.4-0.4,0.7C126.3,317,126.3,317.3,126.3,317.6z"/>
			<path class="st3" d="M135.8,313h3.3v1.2c0.4-0.5,0.9-0.9,1.4-1.1c0.5-0.2,1-0.3,1.6-0.3c0.6,0,1.2,0.1,1.7,0.3
				c0.5,0.2,0.9,0.5,1.2,0.9c0.3,0.3,0.4,0.7,0.5,1c0.1,0.4,0.1,0.8,0.1,1.3v5.9h-3.3v-4.7c0-0.5,0-0.8-0.1-1.1
				c-0.1-0.3-0.2-0.5-0.4-0.7c-0.1-0.1-0.3-0.2-0.5-0.3c-0.2-0.1-0.4-0.1-0.6-0.1c-0.6,0-1,0.2-1.3,0.5c-0.3,0.3-0.4,0.8-0.4,1.4
				v4.9h-3.3V313z"/>
			<path class="st3" d="M147.7,313h3.3v1.1c0.9-0.9,1.9-1.3,3-1.3c1.4,0,2.4,0.6,3.1,1.7c0.7-1.2,1.8-1.7,3.1-1.7
				c0.4,0,0.8,0.1,1.2,0.2c0.4,0.1,0.7,0.3,1,0.6c0.3,0.3,0.5,0.6,0.7,1.1c0.2,0.4,0.2,1,0.2,1.6v6h-3.3v-4.6c0-0.5,0-0.9-0.1-1.2
				s-0.2-0.5-0.3-0.7s-0.3-0.3-0.4-0.3c-0.2-0.1-0.3-0.1-0.5-0.1c-1,0-1.6,0.8-1.6,2.3v4.6h-3.3v-4.6c0-0.5,0-0.9-0.1-1.2
				c-0.1-0.3-0.1-0.5-0.3-0.7c-0.1-0.2-0.3-0.3-0.4-0.4c-0.2-0.1-0.4-0.1-0.6-0.1c-0.2,0-0.4,0-0.6,0.1c-0.2,0.1-0.3,0.2-0.5,0.4
				c-0.1,0.2-0.2,0.4-0.3,0.7c-0.1,0.3-0.1,0.7-0.1,1.2v4.6h-3.3V313z"/>
			<path class="st3" d="M168.5,318.2c0,1.4,0.7,2.1,2,2.1c0.7,0,1.2-0.3,1.6-0.9h3.2c-0.6,2.1-2.2,3.2-4.8,3.2
				c-0.8,0-1.5-0.1-2.1-0.4c-0.6-0.2-1.2-0.6-1.7-1c-0.5-0.4-0.8-0.9-1.1-1.5c-0.3-0.6-0.4-1.3-0.4-2c0-0.8,0.1-1.5,0.4-2.1
				c0.2-0.6,0.6-1.1,1-1.6c0.4-0.4,1-0.8,1.6-1c0.6-0.2,1.3-0.4,2.1-0.4c0.8,0,1.5,0.1,2.1,0.4c0.6,0.2,1.2,0.6,1.6,1
				c0.4,0.4,0.8,1,1,1.6s0.3,1.4,0.3,2.2v0.3H168.5z M172.3,316.3c-0.1-0.5-0.3-0.8-0.7-1.1c-0.3-0.3-0.7-0.4-1.2-0.4
				c-0.5,0-0.9,0.1-1.2,0.4c-0.3,0.3-0.5,0.6-0.6,1.1H172.3z"/>
			<path class="st3" d="M177.2,313h3.3v1.2c0.4-0.5,0.9-0.9,1.4-1.1c0.5-0.2,1-0.3,1.6-0.3c0.6,0,1.2,0.1,1.7,0.3
				c0.5,0.2,0.9,0.5,1.2,0.9c0.3,0.3,0.4,0.7,0.5,1c0.1,0.4,0.1,0.8,0.1,1.3v5.9h-3.3v-4.7c0-0.5,0-0.8-0.1-1.1
				c-0.1-0.3-0.2-0.5-0.4-0.7c-0.1-0.1-0.3-0.2-0.5-0.3c-0.2-0.1-0.4-0.1-0.6-0.1c-0.6,0-1,0.2-1.3,0.5c-0.3,0.3-0.4,0.8-0.4,1.4
				v4.9h-3.3V313z"/>
			<path class="st3" d="M192.8,315.7v6.5h-3.3v-6.5h-1.1V313h1.1v-2.8h3.3v2.8h1.9v2.7H192.8z"/>
			<path class="st3" d="M203,313h3.3v9.2H203v-1c-0.7,0.9-1.6,1.3-2.8,1.3c-0.7,0-1.3-0.1-1.9-0.4s-1.1-0.6-1.5-1
				c-0.4-0.4-0.7-1-1-1.6c-0.2-0.6-0.4-1.3-0.4-2c0-0.7,0.1-1.3,0.3-1.9c0.2-0.6,0.5-1.1,1-1.6c0.4-0.4,0.9-0.8,1.5-1.1
				c0.6-0.3,1.2-0.4,1.9-0.4c1.2,0,2.1,0.4,2.9,1.2V313z M198.9,317.6c0,0.3,0.1,0.6,0.2,0.8c0.1,0.3,0.3,0.5,0.4,0.7
				c0.2,0.2,0.4,0.3,0.7,0.4c0.3,0.1,0.5,0.2,0.8,0.2c0.3,0,0.6-0.1,0.8-0.2c0.3-0.1,0.5-0.3,0.7-0.4c0.2-0.2,0.3-0.4,0.5-0.7
				c0.1-0.3,0.2-0.5,0.2-0.8s-0.1-0.6-0.2-0.8c-0.1-0.3-0.3-0.5-0.5-0.7c-0.2-0.2-0.4-0.3-0.7-0.4c-0.3-0.1-0.5-0.2-0.8-0.2
				c-0.3,0-0.6,0.1-0.8,0.2c-0.3,0.1-0.5,0.3-0.7,0.4c-0.2,0.2-0.3,0.4-0.4,0.7C199,317,198.9,317.3,198.9,317.6z"/>
			<path class="st3" d="M211.8,307.3v14.9h-3.3v-14.9H211.8z"/>
			<path class="st3" d="M230.2,313.2c-0.8-1-1.8-1.5-3-1.5c-0.5,0-1,0.1-1.5,0.3c-0.5,0.2-0.8,0.5-1.2,0.8c-0.3,0.3-0.6,0.7-0.8,1.2
				s-0.3,0.9-0.3,1.5c0,0.5,0.1,1,0.3,1.5s0.4,0.9,0.8,1.2c0.3,0.3,0.7,0.6,1.2,0.8s0.9,0.3,1.4,0.3c1.1,0,2.1-0.5,3-1.4v4.2
				l-0.4,0.1c-0.5,0.2-1,0.3-1.5,0.4c-0.5,0.1-0.9,0.1-1.4,0.1c-0.9,0-1.8-0.2-2.7-0.5c-0.9-0.4-1.6-0.9-2.3-1.5
				c-0.7-0.6-1.2-1.4-1.6-2.3c-0.4-0.9-0.6-1.8-0.6-2.9s0.2-2,0.6-2.9c0.4-0.9,0.9-1.6,1.6-2.2c0.7-0.6,1.4-1.1,2.3-1.5
				c0.9-0.4,1.8-0.5,2.7-0.5c0.5,0,1.1,0.1,1.6,0.2s1.1,0.3,1.6,0.5V313.2z"/>
			<path class="st3" d="M231.8,317.5c0-0.7,0.1-1.3,0.4-1.9s0.7-1.1,1.2-1.5s1.1-0.8,1.8-1c0.7-0.3,1.4-0.4,2.2-0.4
				c0.8,0,1.5,0.1,2.2,0.4s1.3,0.6,1.8,1c0.5,0.4,0.9,1,1.2,1.6c0.3,0.6,0.4,1.3,0.4,2c0,0.7-0.1,1.4-0.4,2
				c-0.3,0.6-0.7,1.1-1.2,1.6s-1.1,0.8-1.8,1c-0.7,0.2-1.4,0.4-2.2,0.4c-0.8,0-1.5-0.1-2.2-0.4c-0.7-0.2-1.3-0.6-1.7-1
				c-0.5-0.4-0.9-1-1.1-1.6C231.9,319,231.8,318.3,231.8,317.5z M235.2,317.6c0,0.3,0.1,0.6,0.2,0.9c0.1,0.3,0.3,0.5,0.4,0.7
				c0.2,0.2,0.4,0.3,0.7,0.4c0.3,0.1,0.5,0.2,0.8,0.2c0.3,0,0.6-0.1,0.8-0.2c0.3-0.1,0.5-0.3,0.7-0.4c0.2-0.2,0.3-0.4,0.4-0.7
				c0.1-0.3,0.2-0.5,0.2-0.8c0-0.3-0.1-0.6-0.2-0.8s-0.3-0.5-0.4-0.7c-0.2-0.2-0.4-0.3-0.7-0.4c-0.3-0.1-0.5-0.2-0.8-0.2
				c-0.3,0-0.6,0.1-0.8,0.2c-0.3,0.1-0.5,0.3-0.7,0.4c-0.2,0.2-0.3,0.4-0.4,0.7C235.3,317,235.2,317.3,235.2,317.6z"/>
			<path class="st3" d="M244.7,313h3.3v1.2c0.4-0.5,0.9-0.9,1.4-1.1c0.5-0.2,1-0.3,1.6-0.3c0.6,0,1.2,0.1,1.7,0.3
				c0.5,0.2,0.9,0.5,1.2,0.9c0.3,0.3,0.4,0.7,0.5,1c0.1,0.4,0.1,0.8,0.1,1.3v5.9h-3.3v-4.7c0-0.5,0-0.8-0.1-1.1
				c-0.1-0.3-0.2-0.5-0.4-0.7c-0.1-0.1-0.3-0.2-0.5-0.3c-0.2-0.1-0.4-0.1-0.6-0.1c-0.6,0-1,0.2-1.3,0.5c-0.3,0.3-0.4,0.8-0.4,1.4
				v4.9h-3.3V313z"/>
			<path class="st3" d="M263.8,307.3h3.3v14.9h-3.3v-1c-0.7,0.9-1.6,1.3-2.8,1.3c-0.7,0-1.3-0.1-1.9-0.4s-1.1-0.6-1.5-1
				c-0.4-0.4-0.7-1-1-1.6c-0.2-0.6-0.4-1.2-0.4-1.9c0-0.7,0.1-1.3,0.3-1.9s0.5-1.1,0.9-1.6c0.4-0.4,0.9-0.8,1.5-1.1
				c0.6-0.3,1.2-0.4,1.9-0.4c1.2,0,2.1,0.4,2.9,1.2V307.3z M259.7,317.6c0,0.3,0.1,0.6,0.2,0.8c0.1,0.3,0.3,0.5,0.4,0.7
				c0.2,0.2,0.4,0.3,0.7,0.4c0.3,0.1,0.5,0.2,0.8,0.2c0.3,0,0.6-0.1,0.8-0.2c0.3-0.1,0.5-0.3,0.7-0.4c0.2-0.2,0.3-0.4,0.5-0.7
				c0.1-0.3,0.2-0.5,0.2-0.8s-0.1-0.6-0.2-0.8c-0.1-0.3-0.3-0.5-0.5-0.7c-0.2-0.2-0.4-0.3-0.7-0.4c-0.3-0.1-0.5-0.2-0.8-0.2
				s-0.6,0.1-0.8,0.2c-0.3,0.1-0.5,0.3-0.7,0.4c-0.2,0.2-0.3,0.4-0.5,0.7C259.8,317,259.7,317.3,259.7,317.6z"/>
			<path class="st3" d="M269.1,309.5c0-0.3,0-0.5,0.1-0.7s0.2-0.4,0.4-0.6c0.2-0.2,0.4-0.3,0.6-0.4c0.2-0.1,0.5-0.1,0.7-0.1
				s0.5,0,0.7,0.1c0.2,0.1,0.4,0.2,0.6,0.4s0.3,0.4,0.4,0.6s0.1,0.5,0.1,0.7s0,0.5-0.1,0.7c-0.1,0.2-0.2,0.4-0.4,0.6
				s-0.4,0.3-0.6,0.4c-0.2,0.1-0.5,0.1-0.7,0.1s-0.5,0-0.7-0.1c-0.2-0.1-0.4-0.2-0.6-0.4c-0.2-0.2-0.3-0.4-0.4-0.6
				C269.1,309.9,269.1,309.7,269.1,309.5z M272.6,313v9.2h-3.3V313H272.6z"/>
			<path class="st3" d="M278.4,315.7v6.5h-3.3v-6.5h-1.1V313h1.1v-2.8h3.3v2.8h1.9v2.7H278.4z"/>
			<path class="st3" d="M281.3,309.5c0-0.3,0-0.5,0.1-0.7s0.2-0.4,0.4-0.6c0.2-0.2,0.4-0.3,0.6-0.4c0.2-0.1,0.5-0.1,0.7-0.1
				s0.5,0,0.7,0.1c0.2,0.1,0.4,0.2,0.6,0.4s0.3,0.4,0.4,0.6s0.1,0.5,0.1,0.7s0,0.5-0.1,0.7c-0.1,0.2-0.2,0.4-0.4,0.6
				s-0.4,0.3-0.6,0.4c-0.2,0.1-0.5,0.1-0.7,0.1s-0.5,0-0.7-0.1c-0.2-0.1-0.4-0.2-0.6-0.4c-0.2-0.2-0.3-0.4-0.4-0.6
				C281.3,309.9,281.3,309.7,281.3,309.5z M284.8,313v9.2h-3.3V313H284.8z"/>
			<path class="st3" d="M286.6,317.5c0-0.7,0.1-1.3,0.4-1.9s0.7-1.1,1.2-1.5c0.5-0.4,1.1-0.8,1.8-1c0.7-0.3,1.4-0.4,2.2-0.4
				c0.8,0,1.5,0.1,2.2,0.4s1.3,0.6,1.8,1c0.5,0.4,0.9,1,1.2,1.6c0.3,0.6,0.4,1.3,0.4,2c0,0.7-0.1,1.4-0.4,2
				c-0.3,0.6-0.7,1.1-1.2,1.6s-1.1,0.8-1.8,1c-0.7,0.2-1.4,0.4-2.2,0.4c-0.8,0-1.5-0.1-2.2-0.4c-0.7-0.2-1.3-0.6-1.7-1
				c-0.5-0.4-0.9-1-1.1-1.6C286.8,319,286.6,318.3,286.6,317.5z M290.1,317.6c0,0.3,0.1,0.6,0.2,0.9c0.1,0.3,0.3,0.5,0.5,0.7
				c0.2,0.2,0.4,0.3,0.7,0.4c0.3,0.1,0.5,0.2,0.8,0.2s0.6-0.1,0.8-0.2c0.3-0.1,0.5-0.3,0.7-0.4c0.2-0.2,0.3-0.4,0.5-0.7
				c0.1-0.3,0.2-0.5,0.2-0.8c0-0.3-0.1-0.6-0.2-0.8c-0.1-0.3-0.3-0.5-0.5-0.7c-0.2-0.2-0.4-0.3-0.7-0.4c-0.3-0.1-0.5-0.2-0.8-0.2
				s-0.6,0.1-0.8,0.2c-0.3,0.1-0.5,0.3-0.7,0.4c-0.2,0.2-0.3,0.4-0.5,0.7C290.1,317,290.1,317.3,290.1,317.6z"/>
			<path class="st3" d="M299.6,313h3.3v1.2c0.4-0.5,0.9-0.9,1.3-1.1c0.5-0.2,1-0.3,1.6-0.3c0.6,0,1.2,0.1,1.7,0.3s0.9,0.5,1.2,0.9
				c0.3,0.3,0.4,0.7,0.5,1c0.1,0.4,0.1,0.8,0.1,1.3v5.9h-3.3v-4.7c0-0.5,0-0.8-0.1-1.1c-0.1-0.3-0.2-0.5-0.4-0.7
				c-0.1-0.1-0.3-0.2-0.5-0.3c-0.2-0.1-0.4-0.1-0.6-0.1c-0.6,0-1,0.2-1.3,0.5c-0.3,0.3-0.4,0.8-0.4,1.4v4.9h-3.3V313z"/>
			<path class="st3" d="M311.4,314.4c0-0.3,0.1-0.6,0.2-0.8c0.1-0.3,0.3-0.5,0.5-0.7c0.2-0.2,0.4-0.3,0.7-0.5
				c0.3-0.1,0.5-0.2,0.8-0.2c0.3,0,0.6,0.1,0.8,0.2s0.5,0.3,0.7,0.5c0.2,0.2,0.3,0.4,0.5,0.7c0.1,0.3,0.2,0.5,0.2,0.8
				s-0.1,0.6-0.2,0.8c-0.1,0.3-0.3,0.5-0.5,0.7c-0.2,0.2-0.4,0.3-0.7,0.4c-0.3,0.1-0.5,0.2-0.8,0.2c-0.3,0-0.6-0.1-0.8-0.2
				c-0.3-0.1-0.5-0.3-0.7-0.4c-0.2-0.2-0.3-0.4-0.5-0.7C311.4,315,311.4,314.7,311.4,314.4z M311.4,320.5c0-0.3,0.1-0.6,0.2-0.8
				c0.1-0.3,0.3-0.5,0.5-0.7c0.2-0.2,0.4-0.3,0.7-0.4c0.3-0.1,0.5-0.2,0.8-0.2c0.3,0,0.6,0.1,0.8,0.2c0.3,0.1,0.5,0.3,0.7,0.4
				c0.2,0.2,0.3,0.4,0.5,0.7c0.1,0.3,0.2,0.5,0.2,0.8s-0.1,0.6-0.2,0.8c-0.1,0.3-0.3,0.5-0.5,0.7c-0.2,0.2-0.4,0.3-0.7,0.5
				s-0.5,0.2-0.8,0.2c-0.3,0-0.6-0.1-0.8-0.2c-0.3-0.1-0.5-0.3-0.7-0.5c-0.2-0.2-0.3-0.4-0.5-0.7
				C311.4,321.1,311.4,320.8,311.4,320.5z"/>
			<path class="st3" d="M55.9,338.6h3.9v1.7h-3.9V338.6z"/>
			<path class="st3" d="M83,332.2h-5.4v3.3h5.3v1.9h-5.3v4.5H83v1.9h-7.5v-13.6H83V332.2z"/>
			<path class="st3" d="M88,339.2l-3.1-3.9h2.4l1.9,2.5l1.9-2.5h2.4l-3.2,3.9l3.7,4.6h-2.4l-2.5-3.2l-2.6,3.2h-2.4L88,339.2z"/>
			<path class="st3" d="M97.4,337.1v6.7h-2v-6.7h-0.8v-1.8h0.8v-3.1h2v3.1H99v1.8H97.4z"/>
			<path class="st3" d="M100.3,335.3h2v0.8c0.4-0.4,0.7-0.6,1-0.8c0.3-0.1,0.6-0.2,1-0.2c0.5,0,1.1,0.2,1.6,0.5l-0.9,1.8
				c-0.4-0.3-0.7-0.4-1.1-0.4c-1.1,0-1.6,0.8-1.6,2.4v4.4h-2V335.3z"/>
			<path class="st3" d="M114.8,340h-6.1c0.1,0.7,0.3,1.3,0.7,1.7c0.4,0.4,0.9,0.6,1.6,0.6c0.5,0,0.9-0.1,1.2-0.4
				c0.3-0.2,0.7-0.7,1.1-1.3l1.7,0.9c-0.3,0.4-0.5,0.8-0.8,1.1s-0.6,0.6-0.9,0.8s-0.7,0.3-1.1,0.4s-0.8,0.1-1.2,0.1
				c-1.3,0-2.3-0.4-3.1-1.2c-0.8-0.8-1.2-1.9-1.2-3.3c0-1.4,0.4-2.4,1.1-3.3c0.8-0.8,1.8-1.2,3-1.2c1.3,0,2.3,0.4,3,1.2
				c0.7,0.8,1.1,1.9,1.1,3.3L114.8,340z M112.8,338.4c-0.3-1.1-0.9-1.6-2-1.6c-0.2,0-0.5,0-0.7,0.1s-0.4,0.2-0.6,0.3
				s-0.3,0.3-0.4,0.5s-0.2,0.4-0.3,0.7H112.8z"/>
			<path class="st3" d="M117,335.3h2v0.8c0.4-0.4,0.7-0.7,1-0.8c0.3-0.1,0.6-0.2,1.1-0.2c1,0,1.7,0.4,2.3,1.3
				c0.6-0.8,1.5-1.3,2.5-1.3c1.9,0,2.9,1.2,2.9,3.5v5.3h-2v-4.8c0-0.8-0.1-1.4-0.3-1.7c-0.2-0.3-0.5-0.5-1-0.5
				c-0.5,0-0.9,0.2-1.2,0.6s-0.4,1.1-0.4,2v4.4h-2v-4.7c0-1.5-0.4-2.3-1.3-2.3c-0.6,0-1,0.2-1.2,0.6s-0.4,1.1-0.4,2v4.4h-2V335.3z"
				/>
			<path class="st3" d="M139,340h-6.1c0.1,0.7,0.3,1.3,0.7,1.7c0.4,0.4,0.9,0.6,1.6,0.6c0.5,0,0.9-0.1,1.2-0.4
				c0.3-0.2,0.7-0.7,1.1-1.3l1.7,0.9c-0.3,0.4-0.5,0.8-0.8,1.1s-0.6,0.6-0.9,0.8s-0.7,0.3-1.1,0.4s-0.8,0.1-1.2,0.1
				c-1.3,0-2.3-0.4-3.1-1.2c-0.8-0.8-1.2-1.9-1.2-3.3c0-1.4,0.4-2.4,1.1-3.3c0.8-0.8,1.8-1.2,3-1.2c1.3,0,2.3,0.4,3,1.2
				c0.7,0.8,1.1,1.9,1.1,3.3L139,340z M137,338.4c-0.3-1.1-0.9-1.6-2-1.6c-0.2,0-0.5,0-0.7,0.1s-0.4,0.2-0.6,0.3s-0.3,0.3-0.4,0.5
				s-0.2,0.4-0.3,0.7H137z"/>
			<path class="st3" d="M148.8,337.1v6.7h-2v-6.7H146v-1.8h0.8v-3.1h2v3.1h1.5v1.8H148.8z"/>
			<path class="st3" d="M159.5,340h-6.1c0.1,0.7,0.3,1.3,0.7,1.7c0.4,0.4,0.9,0.6,1.6,0.6c0.5,0,0.9-0.1,1.2-0.4
				c0.3-0.2,0.7-0.7,1.1-1.3l1.7,0.9c-0.3,0.4-0.5,0.8-0.8,1.1s-0.6,0.6-0.9,0.8s-0.7,0.3-1.1,0.4s-0.8,0.1-1.2,0.1
				c-1.3,0-2.3-0.4-3.1-1.2c-0.8-0.8-1.2-1.9-1.2-3.3c0-1.4,0.4-2.4,1.1-3.3c0.8-0.8,1.8-1.2,3-1.2c1.3,0,2.3,0.4,3,1.2
				c0.7,0.8,1.1,1.9,1.1,3.3L159.5,340z M157.4,338.4c-0.3-1.1-0.9-1.6-2-1.6c-0.2,0-0.5,0-0.7,0.1s-0.4,0.2-0.6,0.3
				s-0.3,0.3-0.4,0.5s-0.2,0.4-0.3,0.7H157.4z"/>
			<path class="st3" d="M161.6,335.3h2v0.8c0.4-0.4,0.7-0.7,1-0.8c0.3-0.1,0.6-0.2,1.1-0.2c1,0,1.7,0.4,2.3,1.3
				c0.6-0.8,1.5-1.3,2.5-1.3c1.9,0,2.9,1.2,2.9,3.5v5.3h-2v-4.8c0-0.8-0.1-1.4-0.3-1.7c-0.2-0.3-0.5-0.5-1-0.5
				c-0.5,0-0.9,0.2-1.2,0.6s-0.4,1.1-0.4,2v4.4h-2v-4.7c0-1.5-0.4-2.3-1.3-2.3c-0.6,0-1,0.2-1.2,0.6s-0.4,1.1-0.4,2v4.4h-2V335.3z"
				/>
			<path class="st3" d="M177.8,348.5h-2v-13.2h2v0.9c0.8-0.8,1.7-1.2,2.7-1.2c1.2,0,2.1,0.4,2.9,1.3c0.8,0.9,1.2,1.9,1.2,3.3
				c0,1.3-0.4,2.4-1.2,3.2c-0.8,0.8-1.7,1.3-2.9,1.3c-1,0-1.9-0.4-2.7-1.2V348.5z M182.5,339.6c0-0.8-0.2-1.5-0.7-2
				c-0.5-0.5-1-0.8-1.7-0.8c-0.7,0-1.3,0.3-1.8,0.8s-0.7,1.2-0.7,2c0,0.8,0.2,1.5,0.7,2c0.4,0.5,1,0.8,1.8,0.8
				c0.7,0,1.3-0.3,1.7-0.8C182.3,341,182.5,340.4,182.5,339.6z"/>
			<path class="st3" d="M194.4,340h-6.1c0.1,0.7,0.3,1.3,0.7,1.7c0.4,0.4,0.9,0.6,1.6,0.6c0.5,0,0.9-0.1,1.2-0.4
				c0.3-0.2,0.7-0.7,1.1-1.3l1.7,0.9c-0.3,0.4-0.5,0.8-0.8,1.1s-0.6,0.6-0.9,0.8s-0.7,0.3-1.1,0.4s-0.8,0.1-1.2,0.1
				c-1.3,0-2.3-0.4-3.1-1.2c-0.8-0.8-1.2-1.9-1.2-3.3c0-1.4,0.4-2.4,1.1-3.3c0.8-0.8,1.8-1.2,3-1.2c1.3,0,2.3,0.4,3,1.2
				c0.7,0.8,1.1,1.9,1.1,3.3L194.4,340z M192.4,338.4c-0.3-1.1-0.9-1.6-2-1.6c-0.2,0-0.5,0-0.7,0.1s-0.4,0.2-0.6,0.3
				s-0.3,0.3-0.4,0.5s-0.2,0.4-0.3,0.7H192.4z"/>
			<path class="st3" d="M196.6,335.3h2v0.8c0.4-0.4,0.7-0.6,1-0.8c0.3-0.1,0.6-0.2,1-0.2c0.5,0,1.1,0.2,1.6,0.5l-0.9,1.8
				c-0.4-0.3-0.7-0.4-1.1-0.4c-1.1,0-1.6,0.8-1.6,2.4v4.4h-2V335.3z"/>
			<path class="st3" d="M209.6,335.3h2v8.6h-2v-0.9c-0.8,0.8-1.7,1.1-2.6,1.1c-1.2,0-2.2-0.4-2.9-1.3c-0.8-0.9-1.2-2-1.2-3.3
				c0-1.3,0.4-2.4,1.2-3.2s1.7-1.3,2.9-1.3c1,0,1.9,0.4,2.7,1.2V335.3z M205,339.5c0,0.8,0.2,1.5,0.7,2c0.5,0.5,1,0.8,1.7,0.8
				c0.7,0,1.3-0.3,1.8-0.8c0.5-0.5,0.7-1.2,0.7-2s-0.2-1.5-0.7-2c-0.5-0.5-1-0.8-1.8-0.8c-0.7,0-1.2,0.3-1.7,0.8
				C205.2,338.1,205,338.8,205,339.5z"/>
			<path class="st3" d="M216.2,337.1v6.7h-2v-6.7h-0.8v-1.8h0.8v-3.1h2v3.1h1.5v1.8H216.2z"/>
			<path class="st3" d="M221,335.3v4.9c0,1.4,0.6,2.1,1.7,2.1s1.7-0.7,1.7-2.1v-4.9h2v5c0,0.7-0.1,1.3-0.3,1.8
				c-0.2,0.4-0.4,0.8-0.9,1.2c-0.7,0.6-1.5,0.9-2.5,0.9c-1,0-1.9-0.3-2.5-0.9c-0.4-0.4-0.7-0.8-0.9-1.2c-0.2-0.4-0.2-1-0.2-1.8v-5
				H221z"/>
			<path class="st3" d="M228.9,335.3h2v0.8c0.4-0.4,0.7-0.6,1-0.8c0.3-0.1,0.6-0.2,1-0.2c0.5,0,1.1,0.2,1.6,0.5l-0.9,1.8
				c-0.4-0.3-0.7-0.4-1.1-0.4c-1.1,0-1.6,0.8-1.6,2.4v4.4h-2V335.3z"/>
			<path class="st3" d="M243.4,340h-6.1c0.1,0.7,0.3,1.3,0.7,1.7c0.4,0.4,0.9,0.6,1.6,0.6c0.5,0,0.9-0.1,1.2-0.4
				c0.3-0.2,0.7-0.7,1.1-1.3l1.7,0.9c-0.3,0.4-0.5,0.8-0.8,1.1s-0.6,0.6-0.9,0.8s-0.7,0.3-1.1,0.4s-0.8,0.1-1.2,0.1
				c-1.3,0-2.3-0.4-3.1-1.2c-0.8-0.8-1.2-1.9-1.2-3.3c0-1.4,0.4-2.4,1.1-3.3c0.8-0.8,1.8-1.2,3-1.2c1.3,0,2.3,0.4,3,1.2
				c0.7,0.8,1.1,1.9,1.1,3.3L243.4,340z M241.4,338.4c-0.3-1.1-0.9-1.6-2-1.6c-0.2,0-0.5,0-0.7,0.1s-0.4,0.2-0.6,0.3
				s-0.3,0.3-0.4,0.5s-0.2,0.4-0.3,0.7H241.4z"/>
			<path class="st3" d="M250.5,336.7l-1.6,0.9c-0.3-0.5-0.6-0.8-1-0.8c-0.2,0-0.3,0.1-0.5,0.2s-0.2,0.3-0.2,0.5c0,0.3,0.4,0.7,1.1,1
				c1,0.5,1.8,0.9,2.1,1.2s0.5,0.9,0.5,1.5c0,0.8-0.3,1.5-0.9,2.1c-0.6,0.5-1.3,0.8-2.1,0.8c-1.4,0-2.5-0.7-3-2.1l1.7-0.8
				c0.2,0.4,0.4,0.7,0.5,0.8c0.2,0.2,0.5,0.3,0.9,0.3c0.7,0,1-0.3,1-0.9c0-0.4-0.3-0.7-0.8-1c-0.2-0.1-0.4-0.2-0.6-0.3
				s-0.4-0.2-0.6-0.3c-0.6-0.3-1-0.6-1.2-0.8c-0.3-0.4-0.4-0.8-0.4-1.4c0-0.7,0.3-1.4,0.8-1.8c0.5-0.5,1.2-0.7,1.9-0.7
				C249.2,335,250,335.6,250.5,336.7z"/>
		</g>
	</g>
	<g>
		<g>
			<path class="st3" d="M467.2,430.9h-10.9l3.4-3.5c0.9-0.9,1.6-1.7,2.1-2.3s0.9-1.2,1.1-1.6c0.2-0.4,0.4-0.8,0.5-1.1
				c0.1-0.3,0.1-0.5,0.1-0.7c0-0.2,0-0.4-0.1-0.6c-0.1-0.2-0.2-0.4-0.3-0.5c-0.1-0.2-0.3-0.3-0.5-0.4c-0.2-0.1-0.4-0.1-0.7-0.1
				c-0.5,0-0.9,0.2-1.1,0.5c-0.3,0.3-0.4,0.7-0.4,1.2c0,0.1,0,0.3,0.1,0.6h-3.9c0-0.8,0.1-1.5,0.4-2.2c0.3-0.6,0.6-1.2,1.1-1.7
				c0.5-0.5,1-0.8,1.7-1.1c0.6-0.3,1.3-0.4,2.1-0.4c0.8,0,1.5,0.1,2.1,0.4c0.6,0.2,1.2,0.6,1.7,1c0.5,0.4,0.8,0.9,1.1,1.5
				c0.3,0.6,0.4,1.2,0.4,1.9c0,0.7-0.2,1.4-0.5,2.1c-0.3,0.6-0.8,1.3-1.5,1.9l-2.2,2.1h4.4V430.9z"/>
			<path class="st3" d="M478,420.3h-4.7l-0.2,1.5c0.2,0,0.4,0,0.6-0.1c0.2,0,0.4,0,0.6,0c0.7,0,1.3,0.1,1.9,0.4s1.1,0.6,1.5,1
				c0.4,0.4,0.8,0.9,1,1.5c0.2,0.6,0.4,1.2,0.4,1.9c0,0.7-0.1,1.4-0.4,2c-0.3,0.6-0.7,1.1-1.1,1.5s-1.1,0.7-1.8,1s-1.5,0.3-2.4,0.3
				c-0.8,0-1.6-0.1-2.3-0.3c-0.7-0.2-1.4-0.5-2.1-0.9l0.5-3.3c0.6,0.5,1.2,0.9,1.8,1.2s1.2,0.4,1.8,0.4c0.7,0,1.3-0.2,1.7-0.6
				c0.4-0.4,0.6-0.9,0.6-1.4c0-0.7-0.3-1.2-0.8-1.6c-0.6-0.4-1.3-0.6-2.2-0.6c-0.4,0-0.8,0-1.3,0.1c-0.4,0.1-0.9,0.2-1.3,0.4
				l1.1-7.3h7.1V420.3z"/>
			<path class="st3" d="M481.5,423h3.7v-3.7h2.3v3.7h3.7v2.3h-3.7v3.7h-2.3v-3.7h-3.7V423z"/>
			<path class="st3" d="M507.7,420.3h-4.2v2.3h4v3h-4v2.3h4.2v3H500v-13.6h7.7V420.3z"/>
			<path class="st3" d="M509.9,421.7h3.3v1.2c0.4-0.5,0.9-0.9,1.4-1.1c0.5-0.2,1-0.3,1.6-0.3c0.6,0,1.2,0.1,1.7,0.3s0.9,0.5,1.2,0.9
				c0.3,0.3,0.4,0.7,0.5,1c0.1,0.4,0.1,0.8,0.1,1.3v5.9h-3.3v-4.7c0-0.5,0-0.8-0.1-1.1c-0.1-0.3-0.2-0.5-0.4-0.7
				c-0.1-0.1-0.3-0.2-0.5-0.3s-0.4-0.1-0.6-0.1c-0.6,0-1,0.2-1.3,0.5s-0.4,0.8-0.4,1.4v4.9h-3.3V421.7z"/>
			<path class="st3" d="M524.4,421.7l2.2,4.7l2.2-4.7h3.6l-4.8,9.2h-2.2l-4.8-9.2H524.4z"/>
			<path class="st3" d="M533.4,418.2c0-0.3,0-0.5,0.1-0.7c0.1-0.2,0.2-0.4,0.4-0.6c0.2-0.2,0.4-0.3,0.6-0.4c0.2-0.1,0.5-0.1,0.7-0.1
				s0.5,0,0.7,0.1c0.2,0.1,0.4,0.2,0.6,0.4c0.2,0.2,0.3,0.4,0.4,0.6c0.1,0.2,0.1,0.5,0.1,0.7s0,0.5-0.1,0.7
				c-0.1,0.2-0.2,0.4-0.4,0.6c-0.2,0.2-0.4,0.3-0.6,0.4c-0.2,0.1-0.5,0.1-0.7,0.1s-0.5,0-0.7-0.1c-0.2-0.1-0.4-0.2-0.6-0.4
				s-0.3-0.4-0.4-0.6C533.5,418.6,533.4,418.4,533.4,418.2z M536.9,421.7v9.2h-3.3v-9.2H536.9z"/>
			<path class="st3" d="M539.1,421.7h3.3v1.5c0.3-0.6,0.8-1,1.3-1.3c0.5-0.3,1.1-0.4,1.8-0.4c0.1,0,0.2,0,0.3,0c0.1,0,0.2,0,0.4,0
				v3.1c-0.4-0.2-0.9-0.3-1.4-0.3c-0.8,0-1.3,0.2-1.7,0.7c-0.4,0.4-0.6,1.1-0.6,2v4h-3.3V421.7z"/>
			<path class="st3" d="M547.1,426.2c0-0.7,0.1-1.3,0.4-1.9c0.3-0.6,0.7-1.1,1.2-1.5c0.5-0.4,1.1-0.8,1.8-1s1.4-0.4,2.2-0.4
				c0.8,0,1.5,0.1,2.2,0.4c0.7,0.2,1.3,0.6,1.8,1c0.5,0.4,0.9,1,1.2,1.6c0.3,0.6,0.4,1.3,0.4,2c0,0.7-0.1,1.4-0.4,2
				c-0.3,0.6-0.7,1.1-1.2,1.6s-1.1,0.8-1.8,1c-0.7,0.2-1.4,0.4-2.2,0.4c-0.8,0-1.5-0.1-2.2-0.4c-0.7-0.2-1.3-0.6-1.7-1
				c-0.5-0.4-0.9-1-1.1-1.6C547.3,427.7,547.1,427,547.1,426.2z M550.6,426.3c0,0.3,0.1,0.6,0.2,0.9c0.1,0.3,0.3,0.5,0.5,0.7
				c0.2,0.2,0.4,0.3,0.7,0.4c0.3,0.1,0.5,0.2,0.8,0.2c0.3,0,0.6-0.1,0.8-0.2c0.3-0.1,0.5-0.3,0.7-0.4c0.2-0.2,0.3-0.4,0.5-0.7
				c0.1-0.3,0.2-0.5,0.2-0.8c0-0.3-0.1-0.6-0.2-0.8c-0.1-0.3-0.3-0.5-0.5-0.7c-0.2-0.2-0.4-0.3-0.7-0.5s-0.5-0.2-0.8-0.2
				c-0.3,0-0.6,0.1-0.8,0.2c-0.3,0.1-0.5,0.3-0.7,0.5c-0.2,0.2-0.3,0.4-0.5,0.7S550.6,426,550.6,426.3z"/>
			<path class="st3" d="M560.1,421.7h3.3v1.2c0.4-0.5,0.9-0.9,1.3-1.1c0.5-0.2,1-0.3,1.6-0.3c0.6,0,1.2,0.1,1.7,0.3
				c0.5,0.2,0.9,0.5,1.2,0.9c0.3,0.3,0.4,0.7,0.5,1c0.1,0.4,0.1,0.8,0.1,1.3v5.9h-3.3v-4.7c0-0.5,0-0.8-0.1-1.1
				c-0.1-0.3-0.2-0.5-0.4-0.7c-0.1-0.1-0.3-0.2-0.5-0.3c-0.2-0.1-0.4-0.1-0.6-0.1c-0.6,0-1,0.2-1.3,0.5s-0.4,0.8-0.4,1.4v4.9h-3.3
				V421.7z"/>
			<path class="st3" d="M572,421.7h3.3v1.1c0.9-0.9,1.9-1.3,3-1.3c1.4,0,2.4,0.6,3.1,1.7c0.7-1.2,1.8-1.7,3.1-1.7
				c0.4,0,0.8,0.1,1.2,0.2s0.7,0.3,1,0.6c0.3,0.3,0.5,0.6,0.7,1.1c0.2,0.4,0.2,1,0.2,1.6v6h-3.3v-4.6c0-0.5,0-0.9-0.1-1.2
				c-0.1-0.3-0.2-0.5-0.3-0.7c-0.1-0.2-0.3-0.3-0.4-0.3s-0.3-0.1-0.5-0.1c-1,0-1.6,0.8-1.6,2.3v4.6h-3.3v-4.6c0-0.5,0-0.9-0.1-1.2
				c-0.1-0.3-0.1-0.5-0.3-0.7s-0.3-0.3-0.4-0.4c-0.2-0.1-0.4-0.1-0.6-0.1c-0.2,0-0.4,0-0.6,0.1c-0.2,0.1-0.3,0.2-0.5,0.3
				c-0.1,0.2-0.2,0.4-0.3,0.7c-0.1,0.3-0.1,0.7-0.1,1.2v4.6H572V421.7z"/>
			<path class="st3" d="M592.8,426.9c0,1.4,0.7,2.1,2,2.1c0.7,0,1.2-0.3,1.6-0.9h3.2c-0.6,2.1-2.2,3.2-4.8,3.2
				c-0.8,0-1.5-0.1-2.1-0.4c-0.6-0.2-1.2-0.6-1.7-1c-0.5-0.4-0.8-0.9-1.1-1.5c-0.3-0.6-0.4-1.3-0.4-2c0-0.8,0.1-1.5,0.4-2.1
				c0.2-0.6,0.6-1.1,1-1.6c0.4-0.4,1-0.8,1.6-1c0.6-0.2,1.3-0.4,2.1-0.4c0.8,0,1.5,0.1,2.1,0.4c0.6,0.2,1.2,0.6,1.6,1
				c0.4,0.4,0.8,1,1,1.6c0.2,0.6,0.3,1.4,0.3,2.2v0.3H592.8z M596.6,425c-0.1-0.5-0.3-0.8-0.7-1.1c-0.3-0.3-0.7-0.4-1.2-0.4
				c-0.5,0-0.9,0.1-1.2,0.4c-0.3,0.3-0.5,0.6-0.6,1.1H596.6z"/>
			<path class="st3" d="M601.5,421.7h3.3v1.2c0.4-0.5,0.9-0.9,1.3-1.1c0.5-0.2,1-0.3,1.6-0.3c0.6,0,1.2,0.1,1.7,0.3
				c0.5,0.2,0.9,0.5,1.2,0.9c0.3,0.3,0.4,0.7,0.5,1c0.1,0.4,0.1,0.8,0.1,1.3v5.9H608v-4.7c0-0.5,0-0.8-0.1-1.1
				c-0.1-0.3-0.2-0.5-0.4-0.7c-0.1-0.1-0.3-0.2-0.5-0.3c-0.2-0.1-0.4-0.1-0.6-0.1c-0.6,0-1,0.2-1.3,0.5s-0.4,0.8-0.4,1.4v4.9h-3.3
				V421.7z"/>
			<path class="st3" d="M617.1,424.4v6.5h-3.3v-6.5h-1.1v-2.7h1.1v-2.8h3.3v2.8h1.9v2.7H617.1z"/>
			<path class="st3" d="M627.3,421.7h3.3v9.2h-3.3v-1c-0.7,0.9-1.6,1.3-2.8,1.3c-0.7,0-1.3-0.1-1.9-0.4c-0.6-0.2-1.1-0.6-1.5-1
				c-0.4-0.4-0.7-1-1-1.6c-0.2-0.6-0.4-1.3-0.4-2c0-0.7,0.1-1.3,0.3-1.9c0.2-0.6,0.5-1.1,1-1.6s0.9-0.8,1.5-1.1
				c0.6-0.3,1.2-0.4,1.9-0.4c1.2,0,2.1,0.4,2.9,1.2V421.7z M623.2,426.3c0,0.3,0.1,0.6,0.2,0.8c0.1,0.3,0.3,0.5,0.4,0.7
				c0.2,0.2,0.4,0.3,0.7,0.4c0.3,0.1,0.5,0.2,0.8,0.2c0.3,0,0.6-0.1,0.8-0.2c0.3-0.1,0.5-0.3,0.7-0.4c0.2-0.2,0.3-0.4,0.5-0.7
				s0.2-0.5,0.2-0.8c0-0.3-0.1-0.6-0.2-0.8s-0.3-0.5-0.5-0.7c-0.2-0.2-0.4-0.3-0.7-0.4c-0.3-0.1-0.5-0.2-0.8-0.2
				c-0.3,0-0.6,0.1-0.8,0.2c-0.3,0.1-0.5,0.3-0.7,0.4c-0.2,0.2-0.3,0.4-0.4,0.7S623.2,426,623.2,426.3z"/>
			<path class="st3" d="M636.1,416v14.9h-3.3V416H636.1z"/>
			<path class="st3" d="M654.5,421.9c-0.8-1-1.8-1.5-3-1.5c-0.5,0-1,0.1-1.5,0.3c-0.5,0.2-0.8,0.5-1.2,0.8c-0.3,0.3-0.6,0.7-0.8,1.2
				c-0.2,0.5-0.3,0.9-0.3,1.5c0,0.5,0.1,1,0.3,1.5c0.2,0.5,0.4,0.9,0.8,1.2c0.3,0.3,0.7,0.6,1.2,0.8c0.4,0.2,0.9,0.3,1.4,0.3
				c1.1,0,2.1-0.5,3-1.4v4.2l-0.4,0.1c-0.5,0.2-1,0.3-1.5,0.4s-0.9,0.1-1.4,0.1c-0.9,0-1.8-0.2-2.7-0.5s-1.6-0.9-2.3-1.5
				c-0.7-0.6-1.2-1.4-1.6-2.3c-0.4-0.9-0.6-1.8-0.6-2.9c0-1,0.2-2,0.6-2.9c0.4-0.9,0.9-1.6,1.6-2.2c0.7-0.6,1.4-1.1,2.3-1.5
				s1.8-0.5,2.7-0.5c0.5,0,1.1,0.1,1.6,0.2c0.5,0.1,1.1,0.3,1.6,0.5V421.9z"/>
			<path class="st3" d="M656.1,426.2c0-0.7,0.1-1.3,0.4-1.9c0.3-0.6,0.7-1.1,1.2-1.5c0.5-0.4,1.1-0.8,1.8-1s1.4-0.4,2.2-0.4
				c0.8,0,1.5,0.1,2.2,0.4c0.7,0.2,1.3,0.6,1.8,1c0.5,0.4,0.9,1,1.2,1.6c0.3,0.6,0.4,1.3,0.4,2c0,0.7-0.1,1.4-0.4,2
				c-0.3,0.6-0.7,1.1-1.2,1.6s-1.1,0.8-1.8,1c-0.7,0.2-1.4,0.4-2.2,0.4c-0.8,0-1.5-0.1-2.2-0.4c-0.7-0.2-1.3-0.6-1.7-1
				c-0.5-0.4-0.9-1-1.1-1.6C656.2,427.7,656.1,427,656.1,426.2z M659.5,426.3c0,0.3,0.1,0.6,0.2,0.9c0.1,0.3,0.3,0.5,0.5,0.7
				c0.2,0.2,0.4,0.3,0.7,0.4c0.3,0.1,0.5,0.2,0.8,0.2c0.3,0,0.6-0.1,0.8-0.2c0.3-0.1,0.5-0.3,0.7-0.4c0.2-0.2,0.3-0.4,0.5-0.7
				c0.1-0.3,0.2-0.5,0.2-0.8c0-0.3-0.1-0.6-0.2-0.8c-0.1-0.3-0.3-0.5-0.5-0.7c-0.2-0.2-0.4-0.3-0.7-0.5s-0.5-0.2-0.8-0.2
				c-0.3,0-0.6,0.1-0.8,0.2c-0.3,0.1-0.5,0.3-0.7,0.5c-0.2,0.2-0.3,0.4-0.5,0.7S659.5,426,659.5,426.3z"/>
			<path class="st3" d="M669,421.7h3.3v1.2c0.4-0.5,0.9-0.9,1.3-1.1c0.5-0.2,1-0.3,1.6-0.3c0.6,0,1.2,0.1,1.7,0.3s0.9,0.5,1.2,0.9
				c0.3,0.3,0.4,0.7,0.5,1c0.1,0.4,0.1,0.8,0.1,1.3v5.9h-3.3v-4.7c0-0.5,0-0.8-0.1-1.1c-0.1-0.3-0.2-0.5-0.4-0.7
				c-0.1-0.1-0.3-0.2-0.5-0.3s-0.4-0.1-0.6-0.1c-0.6,0-1,0.2-1.3,0.5c-0.3,0.3-0.4,0.8-0.4,1.4v4.9H669V421.7z"/>
			<path class="st3" d="M688.1,416h3.3v14.9h-3.3v-1c-0.7,0.9-1.6,1.3-2.8,1.3c-0.7,0-1.3-0.1-1.9-0.4c-0.6-0.3-1.1-0.6-1.5-1
				s-0.7-1-1-1.6c-0.2-0.6-0.4-1.2-0.4-1.9c0-0.7,0.1-1.3,0.3-1.9c0.2-0.6,0.5-1.1,0.9-1.6c0.4-0.4,0.9-0.8,1.5-1.1
				c0.6-0.3,1.2-0.4,1.9-0.4c1.2,0,2.1,0.4,2.9,1.2V416z M684,426.3c0,0.3,0.1,0.6,0.2,0.8c0.1,0.3,0.3,0.5,0.4,0.7
				c0.2,0.2,0.4,0.3,0.7,0.4c0.3,0.1,0.5,0.2,0.8,0.2c0.3,0,0.6-0.1,0.8-0.2c0.3-0.1,0.5-0.3,0.7-0.4c0.2-0.2,0.3-0.4,0.4-0.7
				s0.2-0.5,0.2-0.8c0-0.3-0.1-0.6-0.2-0.8s-0.3-0.5-0.4-0.7c-0.2-0.2-0.4-0.3-0.7-0.4c-0.3-0.1-0.5-0.2-0.8-0.2s-0.6,0.1-0.8,0.2
				c-0.3,0.1-0.5,0.3-0.7,0.4c-0.2,0.2-0.3,0.4-0.5,0.7C684.1,425.7,684,426,684,426.3z"/>
			<path class="st3" d="M693.4,418.2c0-0.3,0-0.5,0.1-0.7c0.1-0.2,0.2-0.4,0.4-0.6c0.2-0.2,0.4-0.3,0.6-0.4c0.2-0.1,0.5-0.1,0.7-0.1
				s0.5,0,0.7,0.1c0.2,0.1,0.4,0.2,0.6,0.4c0.2,0.2,0.3,0.4,0.4,0.6c0.1,0.2,0.1,0.5,0.1,0.7s0,0.5-0.1,0.7
				c-0.1,0.2-0.2,0.4-0.4,0.6s-0.4,0.3-0.6,0.4c-0.2,0.1-0.5,0.1-0.7,0.1s-0.5,0-0.7-0.1c-0.2-0.1-0.4-0.2-0.6-0.4
				c-0.2-0.2-0.3-0.4-0.4-0.6C693.4,418.6,693.4,418.4,693.4,418.2z M696.9,421.7v9.2h-3.3v-9.2H696.9z"/>
			<path class="st3" d="M702.7,424.4v6.5h-3.3v-6.5h-1.1v-2.7h1.1v-2.8h3.3v2.8h1.9v2.7H702.7z"/>
			<path class="st3" d="M705.6,418.2c0-0.3,0-0.5,0.1-0.7c0.1-0.2,0.2-0.4,0.4-0.6c0.2-0.2,0.4-0.3,0.6-0.4c0.2-0.1,0.5-0.1,0.7-0.1
				s0.5,0,0.7,0.1c0.2,0.1,0.4,0.2,0.6,0.4c0.2,0.2,0.3,0.4,0.4,0.6c0.1,0.2,0.1,0.5,0.1,0.7s0,0.5-0.1,0.7
				c-0.1,0.2-0.2,0.4-0.4,0.6s-0.4,0.3-0.6,0.4c-0.2,0.1-0.5,0.1-0.7,0.1s-0.5,0-0.7-0.1c-0.2-0.1-0.4-0.2-0.6-0.4
				c-0.2-0.2-0.3-0.4-0.4-0.6C705.6,418.6,705.6,418.4,705.6,418.2z M709.1,421.7v9.2h-3.3v-9.2H709.1z"/>
			<path class="st3" d="M710.9,426.2c0-0.7,0.1-1.3,0.4-1.9c0.3-0.6,0.7-1.1,1.2-1.5c0.5-0.4,1.1-0.8,1.8-1c0.7-0.3,1.4-0.4,2.2-0.4
				c0.8,0,1.5,0.1,2.2,0.4c0.7,0.2,1.3,0.6,1.8,1c0.5,0.4,0.9,1,1.2,1.6c0.3,0.6,0.4,1.3,0.4,2c0,0.7-0.1,1.4-0.4,2
				c-0.3,0.6-0.7,1.1-1.2,1.6s-1.1,0.8-1.8,1c-0.7,0.2-1.4,0.4-2.2,0.4c-0.8,0-1.5-0.1-2.2-0.4c-0.7-0.2-1.3-0.6-1.7-1
				c-0.5-0.4-0.9-1-1.1-1.6C711.1,427.7,710.9,427,710.9,426.2z M714.4,426.3c0,0.3,0.1,0.6,0.2,0.9c0.1,0.3,0.3,0.5,0.5,0.7
				c0.2,0.2,0.4,0.3,0.7,0.4c0.3,0.1,0.5,0.2,0.8,0.2s0.6-0.1,0.8-0.2c0.3-0.1,0.5-0.3,0.7-0.4c0.2-0.2,0.3-0.4,0.5-0.7
				c0.1-0.3,0.2-0.5,0.2-0.8c0-0.3-0.1-0.6-0.2-0.8c-0.1-0.3-0.3-0.5-0.5-0.7c-0.2-0.2-0.4-0.3-0.7-0.5c-0.3-0.1-0.5-0.2-0.8-0.2
				s-0.6,0.1-0.8,0.2c-0.3,0.1-0.5,0.3-0.7,0.5c-0.2,0.2-0.3,0.4-0.5,0.7C714.4,425.7,714.4,426,714.4,426.3z"/>
			<path class="st3" d="M723.9,421.7h3.3v1.2c0.4-0.5,0.9-0.9,1.3-1.1c0.5-0.2,1-0.3,1.6-0.3c0.6,0,1.2,0.1,1.7,0.3s0.9,0.5,1.2,0.9
				c0.3,0.3,0.4,0.7,0.5,1c0.1,0.4,0.1,0.8,0.1,1.3v5.9h-3.3v-4.7c0-0.5,0-0.8-0.1-1.1c-0.1-0.3-0.2-0.5-0.4-0.7
				c-0.1-0.1-0.3-0.2-0.5-0.3s-0.4-0.1-0.6-0.1c-0.6,0-1,0.2-1.3,0.5c-0.3,0.3-0.4,0.8-0.4,1.4v4.9h-3.3V421.7z"/>
			<path class="st3" d="M742,424.1c-0.6-0.3-1.2-0.5-1.8-0.5c-0.3,0-0.5,0.1-0.7,0.2c-0.2,0.1-0.3,0.3-0.3,0.5c0,0.1,0,0.2,0,0.3
				c0,0.1,0.1,0.1,0.2,0.2c0.1,0.1,0.3,0.1,0.5,0.2s0.5,0.1,0.8,0.2c0.9,0.2,1.6,0.5,2,1c0.4,0.5,0.7,1.1,0.7,1.8
				c0,0.5-0.1,1-0.3,1.5c-0.2,0.4-0.5,0.8-0.9,1.1c-0.4,0.3-0.8,0.5-1.4,0.7s-1.1,0.2-1.8,0.2c-1.2,0-2.5-0.4-3.7-1.1l1.2-2.3
				c0.9,0.6,1.8,0.9,2.6,0.9c0.3,0,0.5-0.1,0.7-0.2c0.2-0.1,0.3-0.3,0.3-0.5c0-0.1,0-0.2,0-0.3s-0.1-0.2-0.2-0.2
				c-0.1-0.1-0.2-0.1-0.4-0.2c-0.2-0.1-0.4-0.1-0.7-0.2c-1-0.2-1.7-0.5-2.1-0.9c-0.4-0.4-0.6-1-0.6-1.7c0-0.5,0.1-1,0.3-1.4
				c0.2-0.4,0.5-0.8,0.8-1.1c0.4-0.3,0.8-0.5,1.3-0.7c0.5-0.2,1.1-0.2,1.7-0.2c1,0,2,0.2,3,0.6L742,424.1z"/>
			<path class="st3" d="M455.7,447.3h3.9v1.7h-3.9V447.3z"/>
			<path class="st3" d="M475.3,452.5V439h2.8c1.4,0,2.4,0.1,3.2,0.4c0.8,0.3,1.6,0.7,2.3,1.3c1.4,1.3,2.1,3,2.1,5
				c0,2.1-0.7,3.8-2.2,5.1c-0.7,0.6-1.5,1.1-2.3,1.3c-0.8,0.3-1.8,0.4-3.2,0.4H475.3z M477.4,450.6h0.9c0.9,0,1.7-0.1,2.3-0.3
				c0.6-0.2,1.2-0.5,1.7-1c1-0.9,1.5-2.1,1.5-3.6c0-1.5-0.5-2.7-1.5-3.6c-0.9-0.8-2.2-1.2-4-1.2h-0.9V450.6z"/>
			<path class="st3" d="M495.8,448.7h-6.1c0.1,0.7,0.3,1.3,0.7,1.7c0.4,0.4,0.9,0.6,1.6,0.6c0.5,0,0.9-0.1,1.2-0.4
				c0.3-0.2,0.7-0.7,1.1-1.3l1.7,0.9c-0.3,0.4-0.5,0.8-0.8,1.1s-0.6,0.6-0.9,0.8s-0.7,0.4-1.1,0.4s-0.8,0.1-1.2,0.1
				c-1.3,0-2.3-0.4-3.1-1.2c-0.8-0.8-1.2-1.9-1.2-3.3c0-1.4,0.4-2.4,1.1-3.3c0.8-0.8,1.8-1.2,3-1.2c1.3,0,2.3,0.4,3,1.2
				c0.7,0.8,1.1,1.9,1.1,3.3L495.8,448.7z M493.8,447.1c-0.3-1.1-0.9-1.6-2-1.6c-0.2,0-0.5,0-0.7,0.1s-0.4,0.2-0.6,0.3
				s-0.3,0.3-0.4,0.5s-0.2,0.4-0.3,0.7H493.8z"/>
			<path class="st3" d="M500,457.2h-2V444h2v0.9c0.8-0.8,1.7-1.2,2.7-1.2c1.2,0,2.1,0.4,2.9,1.3c0.8,0.9,1.2,1.9,1.2,3.3
				c0,1.3-0.4,2.4-1.2,3.2c-0.8,0.8-1.7,1.3-2.9,1.3c-1,0-1.9-0.4-2.7-1.2V457.2z M504.7,448.3c0-0.8-0.2-1.5-0.7-2
				c-0.5-0.5-1-0.8-1.7-0.8c-0.7,0-1.3,0.3-1.8,0.8s-0.7,1.2-0.7,2c0,0.8,0.2,1.5,0.7,2c0.4,0.5,1,0.8,1.8,0.8
				c0.7,0,1.3-0.3,1.7-0.8C504.4,449.7,504.7,449.1,504.7,448.3z"/>
			<path class="st3" d="M510.8,445.8v6.7h-2v-6.7H508V444h0.8v-3.1h2v3.1h1.5v1.8H510.8z"/>
			<path class="st3" d="M513.7,437.7h2v7c0.7-0.6,1.5-0.9,2.3-0.9c1,0,1.7,0.3,2.3,0.9c0.5,0.5,0.7,1.4,0.7,2.6v5.2h-2v-5.1
				c0-0.7-0.1-1.2-0.4-1.5s-0.6-0.5-1.2-0.5c-0.7,0-1.2,0.2-1.5,0.6c-0.3,0.4-0.4,1.2-0.4,2.2v4.1h-2V437.7z"/>
			<path class="st3" d="M524.8,450l1.8,0.7l-2.5,5l-1.3-0.6L524.8,450z"/>
			<path class="st3" d="M534.7,437.7h2v7c0.7-0.6,1.5-0.9,2.3-0.9c1,0,1.7,0.3,2.3,0.9c0.5,0.5,0.7,1.4,0.7,2.6v5.2h-2v-5.1
				c0-0.7-0.1-1.2-0.4-1.5s-0.6-0.5-1.2-0.5c-0.7,0-1.2,0.2-1.5,0.6c-0.3,0.4-0.4,1.2-0.4,2.2v4.1h-2V437.7z"/>
			<path class="st3" d="M546.5,444v4.9c0,1.4,0.6,2.1,1.7,2.1s1.7-0.7,1.7-2.1V444h2v5c0,0.7-0.1,1.3-0.3,1.8
				c-0.2,0.4-0.4,0.8-0.9,1.2c-0.7,0.6-1.5,0.9-2.5,0.9c-1,0-1.9-0.3-2.5-0.9c-0.4-0.4-0.7-0.8-0.9-1.2c-0.2-0.4-0.2-1-0.2-1.8v-5
				H546.5z"/>
			<path class="st3" d="M554.4,444h2v0.8c0.4-0.4,0.7-0.7,1-0.8c0.3-0.1,0.6-0.2,1.1-0.2c1,0,1.7,0.4,2.3,1.3
				c0.6-0.8,1.5-1.3,2.5-1.3c1.9,0,2.9,1.2,2.9,3.5v5.3h-2v-4.8c0-0.8-0.1-1.4-0.3-1.7c-0.2-0.3-0.5-0.5-1-0.5
				c-0.5,0-0.9,0.2-1.2,0.6s-0.4,1.1-0.4,2v4.4h-2v-4.7c0-1.5-0.4-2.3-1.3-2.3c-0.6,0-1,0.2-1.2,0.6s-0.4,1.1-0.4,2v4.4h-2V444z"/>
			<path class="st3" d="M574.9,444h2v8.6h-2v-0.9c-0.8,0.8-1.7,1.1-2.6,1.1c-1.2,0-2.2-0.4-2.9-1.3c-0.8-0.9-1.2-2-1.2-3.3
				c0-1.3,0.4-2.4,1.2-3.2s1.7-1.3,2.9-1.3c1,0,1.9,0.4,2.7,1.2V444z M570.2,448.2c0,0.8,0.2,1.5,0.7,2c0.5,0.5,1,0.8,1.7,0.8
				c0.7,0,1.3-0.3,1.8-0.8c0.5-0.5,0.7-1.2,0.7-2s-0.2-1.5-0.7-2c-0.5-0.5-1-0.8-1.8-0.8c-0.7,0-1.2,0.3-1.7,0.8
				C570.5,446.8,570.2,447.5,570.2,448.2z"/>
			<path class="st3" d="M579.4,444h2v0.8c0.7-0.7,1.5-1,2.3-1c1,0,1.8,0.3,2.3,0.9c0.5,0.5,0.7,1.4,0.7,2.6v5.2h-2v-4.8
				c0-0.8-0.1-1.4-0.4-1.8c-0.2-0.3-0.6-0.5-1.2-0.5c-0.7,0-1.1,0.2-1.4,0.7c-0.3,0.4-0.4,1.2-0.4,2.2v4.1h-2V444z"/>
			<path class="st3" d="M596.8,457.2h-2V444h2v0.9c0.8-0.8,1.7-1.2,2.7-1.2c1.2,0,2.1,0.4,2.9,1.3c0.8,0.9,1.2,1.9,1.2,3.3
				c0,1.3-0.4,2.4-1.2,3.2c-0.8,0.8-1.7,1.3-2.9,1.3c-1,0-1.9-0.4-2.7-1.2V457.2z M601.5,448.3c0-0.8-0.2-1.5-0.7-2
				c-0.5-0.5-1-0.8-1.7-0.8c-0.7,0-1.3,0.3-1.8,0.8s-0.7,1.2-0.7,2c0,0.8,0.2,1.5,0.7,2c0.4,0.5,1,0.8,1.8,0.8
				c0.7,0,1.3-0.3,1.7-0.8C601.3,449.7,601.5,449.1,601.5,448.3z"/>
			<path class="st3" d="M605.6,444h2v0.8c0.4-0.4,0.7-0.6,1-0.8c0.3-0.1,0.6-0.2,1-0.2c0.5,0,1.1,0.2,1.6,0.5l-0.9,1.8
				c-0.4-0.3-0.7-0.4-1.1-0.4c-1.1,0-1.6,0.8-1.6,2.4v4.4h-2V444z"/>
			<path class="st3" d="M620.1,448.7H614c0.1,0.7,0.3,1.3,0.7,1.7c0.4,0.4,0.9,0.6,1.6,0.6c0.5,0,0.9-0.1,1.2-0.4
				c0.3-0.2,0.7-0.7,1.1-1.3l1.7,0.9c-0.3,0.4-0.5,0.8-0.8,1.1s-0.6,0.6-0.9,0.8s-0.7,0.4-1.1,0.4s-0.8,0.1-1.2,0.1
				c-1.3,0-2.3-0.4-3.1-1.2c-0.8-0.8-1.2-1.9-1.2-3.3c0-1.4,0.4-2.4,1.1-3.3c0.8-0.8,1.8-1.2,3-1.2c1.3,0,2.3,0.4,3,1.2
				c0.7,0.8,1.1,1.9,1.1,3.3L620.1,448.7z M618.1,447.1c-0.3-1.1-0.9-1.6-2-1.6c-0.2,0-0.5,0-0.7,0.1s-0.4,0.2-0.6,0.3
				s-0.3,0.3-0.4,0.5s-0.2,0.4-0.3,0.7H618.1z"/>
			<path class="st3" d="M627.3,445.4l-1.6,0.9c-0.3-0.5-0.6-0.8-1-0.8c-0.2,0-0.3,0.1-0.5,0.2s-0.2,0.3-0.2,0.5c0,0.3,0.4,0.7,1.1,1
				c1,0.5,1.8,0.9,2.1,1.2s0.5,0.9,0.5,1.5c0,0.8-0.3,1.5-0.9,2.1c-0.6,0.5-1.3,0.8-2.1,0.8c-1.4,0-2.5-0.7-3-2.1l1.7-0.8
				c0.2,0.4,0.4,0.7,0.5,0.8c0.2,0.2,0.5,0.3,0.9,0.3c0.7,0,1-0.3,1-0.9c0-0.4-0.3-0.7-0.8-1c-0.2-0.1-0.4-0.2-0.6-0.3
				s-0.4-0.2-0.6-0.3c-0.6-0.3-1-0.6-1.2-0.8c-0.3-0.4-0.4-0.8-0.4-1.4c0-0.7,0.3-1.4,0.8-1.8c0.5-0.5,1.2-0.7,1.9-0.7
				C625.9,443.7,626.8,444.3,627.3,445.4z"/>
			<path class="st3" d="M634.6,445.4l-1.6,0.9c-0.3-0.5-0.6-0.8-1-0.8c-0.2,0-0.3,0.1-0.5,0.2s-0.2,0.3-0.2,0.5c0,0.3,0.4,0.7,1.1,1
				c1,0.5,1.8,0.9,2.1,1.2s0.5,0.9,0.5,1.5c0,0.8-0.3,1.5-0.9,2.1c-0.6,0.5-1.3,0.8-2.1,0.8c-1.4,0-2.5-0.7-3-2.1l1.7-0.8
				c0.2,0.4,0.4,0.7,0.5,0.8c0.2,0.2,0.5,0.3,0.9,0.3c0.7,0,1-0.3,1-0.9c0-0.4-0.3-0.7-0.8-1c-0.2-0.1-0.4-0.2-0.6-0.3
				s-0.4-0.2-0.6-0.3c-0.6-0.3-1-0.6-1.2-0.8c-0.3-0.4-0.4-0.8-0.4-1.4c0-0.7,0.3-1.4,0.8-1.8c0.5-0.5,1.2-0.7,1.9-0.7
				C633.2,443.7,634.1,444.3,634.6,445.4z"/>
			<path class="st3" d="M638.9,444v4.9c0,1.4,0.6,2.1,1.7,2.1s1.7-0.7,1.7-2.1V444h2v5c0,0.7-0.1,1.3-0.3,1.8
				c-0.2,0.4-0.4,0.8-0.9,1.2c-0.7,0.6-1.5,0.9-2.5,0.9c-1,0-1.9-0.3-2.5-0.9c-0.4-0.4-0.7-0.8-0.9-1.2c-0.2-0.4-0.2-1-0.2-1.8v-5
				H638.9z"/>
			<path class="st3" d="M646.7,444h2v0.8c0.4-0.4,0.7-0.6,1-0.8c0.3-0.1,0.6-0.2,1-0.2c0.5,0,1.1,0.2,1.6,0.5l-0.9,1.8
				c-0.4-0.3-0.7-0.4-1.1-0.4c-1.1,0-1.6,0.8-1.6,2.4v4.4h-2V444z"/>
			<path class="st3" d="M661.3,448.7h-6.1c0.1,0.7,0.3,1.3,0.7,1.7c0.4,0.4,0.9,0.6,1.6,0.6c0.5,0,0.9-0.1,1.2-0.4
				c0.3-0.2,0.7-0.7,1.1-1.3l1.7,0.9c-0.3,0.4-0.5,0.8-0.8,1.1s-0.6,0.6-0.9,0.8s-0.7,0.4-1.1,0.4s-0.8,0.1-1.2,0.1
				c-1.3,0-2.3-0.4-3.1-1.2c-0.8-0.8-1.2-1.9-1.2-3.3c0-1.4,0.4-2.4,1.1-3.3c0.8-0.8,1.8-1.2,3-1.2c1.3,0,2.3,0.4,3,1.2
				c0.7,0.8,1.1,1.9,1.1,3.3L661.3,448.7z M659.2,447.1c-0.3-1.1-0.9-1.6-2-1.6c-0.2,0-0.5,0-0.7,0.1s-0.4,0.2-0.6,0.3
				s-0.3,0.3-0.4,0.5s-0.2,0.4-0.3,0.7H659.2z"/>
			<path class="st3" d="M668.4,445.4l-1.6,0.9c-0.3-0.5-0.6-0.8-1-0.8c-0.2,0-0.3,0.1-0.5,0.2s-0.2,0.3-0.2,0.5c0,0.3,0.4,0.7,1.1,1
				c1,0.5,1.8,0.9,2.1,1.2s0.5,0.9,0.5,1.5c0,0.8-0.3,1.5-0.9,2.1c-0.6,0.5-1.3,0.8-2.1,0.8c-1.4,0-2.5-0.7-3-2.1l1.7-0.8
				c0.2,0.4,0.4,0.7,0.5,0.8c0.2,0.2,0.5,0.3,0.9,0.3c0.7,0,1-0.3,1-0.9c0-0.4-0.3-0.7-0.8-1c-0.2-0.1-0.4-0.2-0.6-0.3
				s-0.4-0.2-0.6-0.3c-0.6-0.3-1-0.6-1.2-0.8c-0.3-0.4-0.4-0.8-0.4-1.4c0-0.7,0.3-1.4,0.8-1.8c0.5-0.5,1.2-0.7,1.9-0.7
				C667,443.7,667.9,444.3,668.4,445.4z"/>
			<path class="st3" d="M671.9,450l1.8,0.7l-2.5,5l-1.3-0.6L671.9,450z"/>
			<path class="st3" d="M475,465.6h2v0.8c0.4-0.4,0.7-0.7,1-0.8c0.3-0.1,0.6-0.2,1.1-0.2c1,0,1.7,0.4,2.3,1.3
				c0.6-0.8,1.5-1.3,2.5-1.3c1.9,0,2.9,1.2,2.9,3.5v5.3h-2v-4.8c0-0.8-0.1-1.4-0.3-1.7c-0.2-0.3-0.5-0.5-1-0.5
				c-0.5,0-0.9,0.2-1.2,0.6s-0.4,1.1-0.4,2v4.4h-2v-4.7c0-1.5-0.4-2.3-1.3-2.3c-0.6,0-1,0.2-1.2,0.6s-0.4,1.1-0.4,2v4.4h-2V465.6z"
				/>
			<path class="st3" d="M495.5,465.6h2v8.6h-2v-0.9c-0.8,0.8-1.7,1.1-2.6,1.1c-1.2,0-2.2-0.4-2.9-1.3c-0.8-0.9-1.2-2-1.2-3.3
				c0-1.3,0.4-2.4,1.2-3.2s1.7-1.3,2.9-1.3c1,0,1.9,0.4,2.7,1.2V465.6z M490.8,469.8c0,0.8,0.2,1.5,0.7,2c0.5,0.5,1,0.8,1.7,0.8
				c0.7,0,1.3-0.3,1.8-0.8c0.5-0.5,0.7-1.2,0.7-2s-0.2-1.5-0.7-2c-0.5-0.5-1-0.8-1.8-0.8c-0.7,0-1.2,0.3-1.7,0.8
				C491,468.4,490.8,469.1,490.8,469.8z"/>
			<path class="st3" d="M500,465.6h2v0.8c0.7-0.7,1.5-1,2.3-1c1,0,1.8,0.3,2.3,0.9c0.5,0.5,0.7,1.4,0.7,2.6v5.2h-2v-4.8
				c0-0.8-0.1-1.4-0.4-1.7c-0.2-0.3-0.6-0.5-1.2-0.5c-0.7,0-1.1,0.2-1.4,0.7c-0.3,0.4-0.4,1.2-0.4,2.2v4.1h-2V465.6z"/>
			<path class="st3" d="M516.2,465.6h2v8.6h-2v-0.9c-0.8,0.8-1.7,1.1-2.6,1.1c-1.2,0-2.2-0.4-2.9-1.3c-0.8-0.9-1.2-2-1.2-3.3
				c0-1.3,0.4-2.4,1.2-3.2s1.7-1.3,2.9-1.3c1,0,1.9,0.4,2.7,1.2V465.6z M511.5,469.8c0,0.8,0.2,1.5,0.7,2c0.5,0.5,1,0.8,1.7,0.8
				c0.7,0,1.3-0.3,1.8-0.8c0.5-0.5,0.7-1.2,0.7-2s-0.2-1.5-0.7-2c-0.5-0.5-1-0.8-1.8-0.8c-0.7,0-1.2,0.3-1.7,0.8
				C511.7,468.4,511.5,469.1,511.5,469.8z"/>
			<path class="st3" d="M528.9,473.9c0,0.4,0,0.8,0,1.1c0,0.3-0.1,0.6-0.1,0.8c-0.1,0.6-0.4,1.2-0.8,1.7c-0.8,0.9-1.8,1.3-3.2,1.3
				c-1.1,0-2.1-0.3-2.8-0.9c-0.8-0.6-1.2-1.5-1.3-2.6h2c0.1,0.4,0.2,0.7,0.4,1c0.4,0.5,1,0.8,1.8,0.8c1.4,0,2.2-0.9,2.2-2.7v-1.2
				c-0.8,0.8-1.7,1.2-2.7,1.2c-1.2,0-2.1-0.4-2.9-1.3c-0.8-0.9-1.1-1.9-1.1-3.2c0-1.2,0.3-2.3,1-3.2c0.8-0.9,1.7-1.4,3-1.4
				c1.1,0,2,0.4,2.7,1.2v-1h2V473.9z M527,469.9c0-0.8-0.2-1.5-0.7-2c-0.5-0.5-1-0.8-1.7-0.8c-0.8,0-1.3,0.3-1.8,0.8
				c-0.4,0.5-0.6,1.1-0.6,1.9c0,0.8,0.2,1.4,0.6,1.9c0.4,0.5,1,0.8,1.8,0.8s1.4-0.3,1.8-0.8C526.8,471.3,527,470.6,527,469.9z"/>
			<path class="st3" d="M539.2,470.3h-6.1c0.1,0.7,0.3,1.3,0.7,1.7c0.4,0.4,0.9,0.6,1.6,0.6c0.5,0,0.9-0.1,1.2-0.4
				c0.3-0.2,0.7-0.7,1.1-1.3l1.7,0.9c-0.3,0.4-0.5,0.8-0.8,1.1c-0.3,0.3-0.6,0.6-0.9,0.8c-0.3,0.2-0.7,0.3-1.1,0.4s-0.8,0.1-1.2,0.1
				c-1.3,0-2.3-0.4-3.1-1.2c-0.8-0.8-1.2-1.9-1.2-3.3c0-1.4,0.4-2.4,1.1-3.3c0.8-0.8,1.8-1.2,3-1.2c1.3,0,2.3,0.4,3,1.2
				c0.7,0.8,1.1,1.9,1.1,3.3L539.2,470.3z M537.2,468.7c-0.3-1.1-0.9-1.6-2-1.6c-0.2,0-0.5,0-0.7,0.1c-0.2,0.1-0.4,0.2-0.6,0.3
				c-0.2,0.1-0.3,0.3-0.4,0.5s-0.2,0.4-0.3,0.7H537.2z"/>
			<path class="st3" d="M541.4,465.6h2v0.8c0.4-0.4,0.7-0.7,1-0.8c0.3-0.1,0.6-0.2,1.1-0.2c1,0,1.7,0.4,2.3,1.3
				c0.6-0.8,1.5-1.3,2.5-1.3c1.9,0,2.9,1.2,2.9,3.5v5.3h-2v-4.8c0-0.8-0.1-1.4-0.3-1.7c-0.2-0.3-0.5-0.5-1-0.5
				c-0.5,0-0.9,0.2-1.2,0.6s-0.4,1.1-0.4,2v4.4h-2v-4.7c0-1.5-0.4-2.3-1.3-2.3c-0.6,0-1,0.2-1.2,0.6s-0.4,1.1-0.4,2v4.4h-2V465.6z"
				/>
			<path class="st3" d="M563.4,470.3h-6.1c0.1,0.7,0.3,1.3,0.7,1.7c0.4,0.4,0.9,0.6,1.6,0.6c0.5,0,0.9-0.1,1.2-0.4
				c0.3-0.2,0.7-0.7,1.1-1.3l1.7,0.9c-0.3,0.4-0.5,0.8-0.8,1.1c-0.3,0.3-0.6,0.6-0.9,0.8c-0.3,0.2-0.7,0.3-1.1,0.4s-0.8,0.1-1.2,0.1
				c-1.3,0-2.3-0.4-3.1-1.2c-0.8-0.8-1.2-1.9-1.2-3.3c0-1.4,0.4-2.4,1.1-3.3c0.8-0.8,1.8-1.2,3-1.2c1.3,0,2.3,0.4,3,1.2
				c0.7,0.8,1.1,1.9,1.1,3.3L563.4,470.3z M561.4,468.7c-0.3-1.1-0.9-1.6-2-1.6c-0.2,0-0.5,0-0.7,0.1c-0.2,0.1-0.4,0.2-0.6,0.3
				c-0.2,0.1-0.3,0.3-0.4,0.5s-0.2,0.4-0.3,0.7H561.4z"/>
			<path class="st3" d="M565.6,465.6h2v0.8c0.7-0.7,1.5-1,2.3-1c1,0,1.8,0.3,2.3,0.9c0.5,0.5,0.7,1.4,0.7,2.6v5.2h-2v-4.8
				c0-0.8-0.1-1.4-0.4-1.7c-0.2-0.3-0.6-0.5-1.2-0.5c-0.7,0-1.1,0.2-1.4,0.7c-0.3,0.4-0.4,1.2-0.4,2.2v4.1h-2V465.6z"/>
			<path class="st3" d="M577.5,467.4v6.7h-2v-6.7h-0.8v-1.8h0.8v-3.1h2v3.1h1.5v1.8H577.5z"/>
			<path class="st3" d="M592.2,465.6h2v8.6h-2v-0.9c-0.8,0.8-1.7,1.1-2.6,1.1c-1.2,0-2.2-0.4-2.9-1.3c-0.8-0.9-1.2-2-1.2-3.3
				c0-1.3,0.4-2.4,1.2-3.2s1.7-1.3,2.9-1.3c1,0,1.9,0.4,2.7,1.2V465.6z M587.6,469.8c0,0.8,0.2,1.5,0.7,2c0.5,0.5,1,0.8,1.7,0.8
				c0.7,0,1.3-0.3,1.8-0.8c0.5-0.5,0.7-1.2,0.7-2s-0.2-1.5-0.7-2c-0.5-0.5-1-0.8-1.8-0.8c-0.7,0-1.2,0.3-1.7,0.8
				C587.8,468.4,587.6,469.1,587.6,469.8z"/>
			<path class="st3" d="M596.7,465.6h2v0.8c0.7-0.7,1.5-1,2.3-1c1,0,1.8,0.3,2.3,0.9c0.5,0.5,0.7,1.4,0.7,2.6v5.2h-2v-4.8
				c0-0.8-0.1-1.4-0.4-1.7c-0.2-0.3-0.6-0.5-1.2-0.5c-0.7,0-1.1,0.2-1.4,0.7c-0.3,0.4-0.4,1.2-0.4,2.2v4.1h-2V465.6z"/>
			<path class="st3" d="M612.9,459.3h2v14.8h-2v-0.9c-0.8,0.8-1.7,1.1-2.6,1.1c-1.2,0-2.1-0.4-2.9-1.3c-0.8-0.9-1.2-2-1.2-3.3
				c0-1.3,0.4-2.3,1.2-3.2c0.8-0.9,1.7-1.3,2.9-1.3c1,0,1.9,0.4,2.7,1.2V459.3z M608.2,469.8c0,0.8,0.2,1.5,0.7,2
				c0.5,0.5,1,0.8,1.7,0.8c0.7,0,1.3-0.3,1.8-0.8c0.5-0.5,0.7-1.2,0.7-2s-0.2-1.5-0.7-2c-0.5-0.5-1-0.8-1.8-0.8
				c-0.7,0-1.2,0.3-1.7,0.8C608.4,468.4,608.2,469.1,608.2,469.8z"/>
			<path class="st3" d="M630.7,470.3h-6.1c0.1,0.7,0.3,1.3,0.7,1.7c0.4,0.4,0.9,0.6,1.6,0.6c0.5,0,0.9-0.1,1.2-0.4
				c0.3-0.2,0.7-0.7,1.1-1.3l1.7,0.9c-0.3,0.4-0.5,0.8-0.8,1.1c-0.3,0.3-0.6,0.6-0.9,0.8c-0.3,0.2-0.7,0.3-1.1,0.4s-0.8,0.1-1.2,0.1
				c-1.3,0-2.3-0.4-3.1-1.2c-0.8-0.8-1.2-1.9-1.2-3.3c0-1.4,0.4-2.4,1.1-3.3c0.8-0.8,1.8-1.2,3-1.2c1.3,0,2.3,0.4,3,1.2
				c0.7,0.8,1.1,1.9,1.1,3.3L630.7,470.3z M628.7,468.7c-0.3-1.1-0.9-1.6-2-1.6c-0.2,0-0.5,0-0.7,0.1c-0.2,0.1-0.4,0.2-0.6,0.3
				c-0.2,0.1-0.3,0.3-0.4,0.5s-0.2,0.4-0.3,0.7H628.7z"/>
			<path class="st3" d="M635.6,469.5l-3.1-3.9h2.4l1.9,2.5l1.9-2.5h2.4l-3.2,3.9l3.7,4.6h-2.4l-2.5-3.2l-2.6,3.2h-2.4L635.6,469.5z"
				/>
			<path class="st3" d="M645,467.4v6.7h-2v-6.7h-0.8v-1.8h0.8v-3.1h2v3.1h1.5v1.8H645z"/>
			<path class="st3" d="M647.9,465.6h2v0.8c0.4-0.4,0.7-0.6,1-0.8c0.3-0.1,0.6-0.2,1-0.2c0.5,0,1.1,0.2,1.6,0.5l-0.9,1.8
				c-0.4-0.3-0.7-0.4-1.1-0.4c-1.1,0-1.6,0.8-1.6,2.4v4.4h-2V465.6z"/>
			<path class="st3" d="M662.4,470.3h-6.1c0.1,0.7,0.3,1.3,0.7,1.7c0.4,0.4,0.9,0.6,1.6,0.6c0.5,0,0.9-0.1,1.2-0.4
				c0.3-0.2,0.7-0.7,1.1-1.3l1.7,0.9c-0.3,0.4-0.5,0.8-0.8,1.1c-0.3,0.3-0.6,0.6-0.9,0.8c-0.3,0.2-0.7,0.3-1.1,0.4s-0.8,0.1-1.2,0.1
				c-1.3,0-2.3-0.4-3.1-1.2c-0.8-0.8-1.2-1.9-1.2-3.3c0-1.4,0.4-2.4,1.1-3.3c0.8-0.8,1.8-1.2,3-1.2c1.3,0,2.3,0.4,3,1.2
				c0.7,0.8,1.1,1.9,1.1,3.3L662.4,470.3z M660.4,468.7c-0.3-1.1-0.9-1.6-2-1.6c-0.2,0-0.5,0-0.7,0.1c-0.2,0.1-0.4,0.2-0.6,0.3
				c-0.2,0.1-0.3,0.3-0.4,0.5s-0.2,0.4-0.3,0.7H660.4z"/>
			<path class="st3" d="M664.6,465.6h2v0.8c0.4-0.4,0.7-0.7,1-0.8c0.3-0.1,0.6-0.2,1.1-0.2c1,0,1.7,0.4,2.3,1.3
				c0.6-0.8,1.5-1.3,2.5-1.3c1.9,0,2.9,1.2,2.9,3.5v5.3h-2v-4.8c0-0.8-0.1-1.4-0.3-1.7c-0.2-0.3-0.5-0.5-1-0.5
				c-0.5,0-0.9,0.2-1.2,0.6c-0.2,0.4-0.4,1.1-0.4,2v4.4h-2v-4.7c0-1.5-0.4-2.3-1.3-2.3c-0.6,0-1,0.2-1.2,0.6s-0.4,1.1-0.4,2v4.4h-2
				V465.6z"/>
			<path class="st3" d="M686.6,470.3h-6.1c0.1,0.7,0.3,1.3,0.7,1.7c0.4,0.4,0.9,0.6,1.6,0.6c0.5,0,0.9-0.1,1.2-0.4
				c0.3-0.2,0.7-0.7,1.1-1.3l1.7,0.9c-0.3,0.4-0.5,0.8-0.8,1.1c-0.3,0.3-0.6,0.6-0.9,0.8c-0.3,0.2-0.7,0.3-1.1,0.4s-0.8,0.1-1.2,0.1
				c-1.3,0-2.3-0.4-3.1-1.2c-0.8-0.8-1.2-1.9-1.2-3.3c0-1.4,0.4-2.4,1.1-3.3c0.8-0.8,1.8-1.2,3-1.2c1.3,0,2.3,0.4,3,1.2
				c0.7,0.8,1.1,1.9,1.1,3.3L686.6,470.3z M684.6,468.7c-0.3-1.1-0.9-1.6-2-1.6c-0.2,0-0.5,0-0.7,0.1c-0.2,0.1-0.4,0.2-0.6,0.3
				c-0.2,0.1-0.3,0.3-0.4,0.5s-0.2,0.4-0.3,0.7H684.6z"/>
			<path class="st3" d="M477,489v6.7h-2V489h-0.8v-1.8h0.8V484h2v3.1h1.5v1.8H477z"/>
			<path class="st3" d="M487.7,491.9h-6.1c0.1,0.7,0.3,1.3,0.7,1.7c0.4,0.4,0.9,0.6,1.6,0.6c0.5,0,0.9-0.1,1.2-0.4
				c0.3-0.2,0.7-0.7,1.1-1.3l1.7,0.9c-0.3,0.4-0.5,0.8-0.8,1.1c-0.3,0.3-0.6,0.6-0.9,0.8c-0.3,0.2-0.7,0.3-1.1,0.4s-0.8,0.1-1.2,0.1
				c-1.3,0-2.3-0.4-3.1-1.2c-0.8-0.8-1.2-1.9-1.2-3.3c0-1.4,0.4-2.4,1.1-3.3c0.8-0.8,1.8-1.2,3-1.2c1.3,0,2.3,0.4,3,1.2
				c0.7,0.8,1.1,1.9,1.1,3.3L487.7,491.9z M485.7,490.3c-0.3-1.1-0.9-1.6-2-1.6c-0.2,0-0.5,0-0.7,0.1c-0.2,0.1-0.4,0.2-0.6,0.3
				c-0.2,0.1-0.3,0.3-0.4,0.5s-0.2,0.4-0.3,0.7H485.7z"/>
			<path class="st3" d="M489.8,487.2h2v0.8c0.4-0.4,0.7-0.7,1-0.8c0.3-0.1,0.6-0.2,1.1-0.2c1,0,1.7,0.4,2.3,1.3
				c0.6-0.8,1.5-1.3,2.5-1.3c1.9,0,2.9,1.2,2.9,3.5v5.3h-2V491c0-0.8-0.1-1.4-0.3-1.7c-0.2-0.3-0.5-0.5-1-0.5
				c-0.5,0-0.9,0.2-1.2,0.6s-0.4,1.1-0.4,2v4.4h-2V491c0-1.5-0.4-2.3-1.3-2.3c-0.6,0-1,0.2-1.2,0.6s-0.4,1.1-0.4,2v4.4h-2V487.2z"/>
			<path class="st3" d="M506.1,500.4h-2v-13.2h2v0.9c0.8-0.8,1.7-1.2,2.7-1.2c1.2,0,2.1,0.4,2.9,1.3c0.8,0.9,1.2,1.9,1.2,3.3
				c0,1.3-0.4,2.4-1.2,3.2c-0.8,0.8-1.7,1.3-2.9,1.3c-1,0-1.9-0.4-2.7-1.2V500.4z M510.8,491.5c0-0.8-0.2-1.5-0.7-2
				c-0.5-0.5-1-0.8-1.7-0.8c-0.7,0-1.3,0.3-1.8,0.8s-0.7,1.2-0.7,2c0,0.8,0.2,1.5,0.7,2c0.4,0.5,1,0.8,1.8,0.8
				c0.7,0,1.3-0.3,1.7-0.8C510.5,492.9,510.8,492.3,510.8,491.5z"/>
			<path class="st3" d="M522.7,491.9h-6.1c0.1,0.7,0.3,1.3,0.7,1.7c0.4,0.4,0.9,0.6,1.6,0.6c0.5,0,0.9-0.1,1.2-0.4
				c0.3-0.2,0.7-0.7,1.1-1.3l1.7,0.9c-0.3,0.4-0.5,0.8-0.8,1.1c-0.3,0.3-0.6,0.6-0.9,0.8c-0.3,0.2-0.7,0.3-1.1,0.4s-0.8,0.1-1.2,0.1
				c-1.3,0-2.3-0.4-3.1-1.2c-0.8-0.8-1.2-1.9-1.2-3.3c0-1.4,0.4-2.4,1.1-3.3c0.8-0.8,1.8-1.2,3-1.2c1.3,0,2.3,0.4,3,1.2
				c0.7,0.8,1.1,1.9,1.1,3.3L522.7,491.9z M520.6,490.3c-0.3-1.1-0.9-1.6-2-1.6c-0.2,0-0.5,0-0.7,0.1c-0.2,0.1-0.4,0.2-0.6,0.3
				c-0.2,0.1-0.3,0.3-0.4,0.5s-0.2,0.4-0.3,0.7H520.6z"/>
			<path class="st3" d="M524.8,487.2h2v0.8c0.4-0.4,0.7-0.6,1-0.8c0.3-0.1,0.6-0.2,1-0.2c0.5,0,1.1,0.2,1.6,0.5l-0.9,1.8
				c-0.4-0.3-0.7-0.4-1.1-0.4c-1.1,0-1.6,0.8-1.6,2.4v4.4h-2V487.2z"/>
			<path class="st3" d="M537.9,487.2h2v8.6h-2v-0.9c-0.8,0.8-1.7,1.1-2.6,1.1c-1.2,0-2.2-0.4-2.9-1.3c-0.8-0.9-1.2-2-1.2-3.3
				c0-1.3,0.4-2.4,1.2-3.2s1.7-1.3,2.9-1.3c1,0,1.9,0.4,2.7,1.2V487.2z M533.2,491.4c0,0.8,0.2,1.5,0.7,2c0.5,0.5,1,0.8,1.7,0.8
				c0.7,0,1.3-0.3,1.8-0.8c0.5-0.5,0.7-1.2,0.7-2s-0.2-1.5-0.7-2c-0.5-0.5-1-0.8-1.8-0.8c-0.7,0-1.2,0.3-1.7,0.8
				C533.4,490,533.2,490.7,533.2,491.4z"/>
			<path class="st3" d="M544.4,489v6.7h-2V489h-0.8v-1.8h0.8V484h2v3.1h1.5v1.8H544.4z"/>
			<path class="st3" d="M549.3,487.2v4.9c0,1.4,0.6,2.1,1.7,2.1s1.7-0.7,1.7-2.1v-4.9h2v5c0,0.7-0.1,1.3-0.3,1.8
				c-0.2,0.4-0.4,0.8-0.9,1.2c-0.7,0.6-1.5,0.9-2.5,0.9c-1,0-1.9-0.3-2.5-0.9c-0.4-0.4-0.7-0.8-0.9-1.2c-0.2-0.4-0.2-1-0.2-1.8v-5
				H549.3z"/>
			<path class="st3" d="M557.1,487.2h2v0.8c0.4-0.4,0.7-0.6,1-0.8c0.3-0.1,0.6-0.2,1-0.2c0.5,0,1.1,0.2,1.6,0.5l-0.9,1.8
				c-0.4-0.3-0.7-0.4-1.1-0.4c-1.1,0-1.6,0.8-1.6,2.4v4.4h-2V487.2z"/>
			<path class="st3" d="M571.6,491.9h-6.1c0.1,0.7,0.3,1.3,0.7,1.7c0.4,0.4,0.9,0.6,1.6,0.6c0.5,0,0.9-0.1,1.2-0.4
				c0.3-0.2,0.7-0.7,1.1-1.3l1.7,0.9c-0.3,0.4-0.5,0.8-0.8,1.1c-0.3,0.3-0.6,0.6-0.9,0.8c-0.3,0.2-0.7,0.3-1.1,0.4s-0.8,0.1-1.2,0.1
				c-1.3,0-2.3-0.4-3.1-1.2c-0.8-0.8-1.2-1.9-1.2-3.3c0-1.4,0.4-2.4,1.1-3.3c0.8-0.8,1.8-1.2,3-1.2c1.3,0,2.3,0.4,3,1.2
				c0.7,0.8,1.1,1.9,1.1,3.3L571.6,491.9z M569.6,490.3c-0.3-1.1-0.9-1.6-2-1.6c-0.2,0-0.5,0-0.7,0.1c-0.2,0.1-0.4,0.2-0.6,0.3
				c-0.2,0.1-0.3,0.3-0.4,0.5s-0.2,0.4-0.3,0.7H569.6z"/>
			<path class="st3" d="M578.8,488.6l-1.6,0.9c-0.3-0.5-0.6-0.8-1-0.8c-0.2,0-0.3,0.1-0.5,0.2c-0.1,0.1-0.2,0.3-0.2,0.5
				c0,0.3,0.4,0.7,1.1,1c1,0.5,1.8,0.9,2.1,1.2s0.5,0.9,0.5,1.5c0,0.8-0.3,1.5-0.9,2.1c-0.6,0.5-1.3,0.8-2.1,0.8
				c-1.4,0-2.5-0.7-3-2.1l1.7-0.8c0.2,0.4,0.4,0.7,0.5,0.8c0.2,0.2,0.5,0.3,0.9,0.3c0.7,0,1-0.3,1-0.9c0-0.4-0.3-0.7-0.8-1
				c-0.2-0.1-0.4-0.2-0.6-0.3s-0.4-0.2-0.6-0.3c-0.6-0.3-1-0.6-1.2-0.8c-0.3-0.4-0.4-0.8-0.4-1.4c0-0.7,0.3-1.4,0.8-1.8
				c0.5-0.5,1.2-0.7,1.9-0.7C577.4,486.9,578.2,487.5,578.8,488.6z"/>
		</g>
	</g>
	<text transform="matrix(1 0 0 1 517.6155 74.9701)" class="st3 st4 st5">After</text>
</g>
</svg>
