<?xml version="1.0" encoding="UTF-8"?><svg id="Layer_3" xmlns="http://www.w3.org/2000/svg" viewBox="0 0 800 524.08"><line x1="383.37" y1="128.36" x2="383.37" y2="463.56" style="fill:none; stroke:#fff; stroke-miterlimit:10;"/><path d="m132.45,62.94V26.54h13.1c2.53,0,4.77.38,6.71,1.14,1.94.76,3.47,1.94,4.58,3.54,1.11,1.6,1.66,3.62,1.66,6.08,0,1.11-.31,2.2-.94,3.28-.62,1.07-1.49,2.06-2.6,2.96,1.59.87,2.83,2,3.69,3.41.87,1.4,1.3,3.13,1.3,5.17,0,2.32-.54,4.29-1.61,5.9-1.07,1.61-2.56,2.83-4.45,3.67-1.89.83-4.07,1.25-6.53,1.25h-14.92Zm9.36-22.62h3.07c1.11,0,2.01-.28,2.7-.83.69-.55,1.04-1.33,1.04-2.34s-.35-1.79-1.04-2.34c-.69-.55-1.59-.83-2.7-.83h-3.07v6.34Zm0,14.14h4.42c1.14,0,2.05-.31,2.73-.94s1.01-1.42,1.01-2.39-.34-1.74-1.01-2.31c-.68-.57-1.59-.86-2.73-.86h-4.42v6.5Z" style="fill:#fff; stroke-width:0px;"/><path d="m176.75,63.57c-2.81,0-5.3-.57-7.49-1.72-2.18-1.14-3.89-2.74-5.12-4.78-1.23-2.04-1.85-4.42-1.85-7.12s.61-5.08,1.82-7.12c1.21-2.04,2.89-3.64,5.04-4.78,2.15-1.14,4.63-1.72,7.44-1.72s5.02.58,7.05,1.74c2.03,1.16,3.62,2.92,4.78,5.28,1.16,2.36,1.74,5.34,1.74,8.94h-19.45l1.14-1.35c0,1.11.17,2.08.52,2.91s.87,1.47,1.56,1.92c.69.45,1.54.68,2.55.68,1.14,0,2.14-.27,2.99-.81.85-.54,1.38-1.2,1.59-2l8.22,2.55c-.62,1.8-1.62,3.25-2.99,4.34-1.37,1.09-2.9,1.87-4.58,2.34-1.68.47-3.34.7-4.97.7Zm-4.84-15.5l-.99-1.51h10.76l-.94,1.51c0-1.35-.23-2.41-.68-3.17-.45-.76-1.01-1.31-1.69-1.64-.68-.33-1.36-.49-2.05-.49-.73,0-1.43.16-2.11.49-.68.33-1.23.88-1.66,1.64-.43.76-.65,1.82-.65,3.17Z" style="fill:#fff; stroke-width:0px;"/><path d="m191.73,44.22v-7.28h18.62v7.28h-18.62Zm3.9,18.72v-28.24c0-2.88.78-5.17,2.34-6.86,1.56-1.7,3.95-2.55,7.18-2.55,1.32,0,2.66.22,4.03.65,1.37.43,2.49.93,3.35,1.48l-3.48,6.5c-.31-.28-.65-.47-1.01-.57s-.72-.16-1.07-.16c-.69,0-1.2.25-1.51.75-.31.5-.47,1.38-.47,2.63v26.36h-9.36Z" style="fill:#fff; stroke-width:0px;"/><path d="m226.47,63.57c-2.77,0-5.23-.58-7.36-1.74s-3.8-2.76-5.02-4.81c-1.21-2.04-1.82-4.4-1.82-7.07s.6-5.03,1.79-7.07,2.86-3.65,4.99-4.81c2.13-1.16,4.57-1.74,7.31-1.74s5.23.58,7.36,1.74c2.13,1.16,3.8,2.76,4.99,4.81,1.2,2.05,1.79,4.4,1.79,7.07s-.6,5.03-1.79,7.07c-1.2,2.05-2.85,3.65-4.97,4.81s-4.54,1.74-7.28,1.74Zm0-8.63c.87,0,1.63-.22,2.29-.65.66-.43,1.18-1.02,1.56-1.77.38-.75.57-1.6.57-2.57s-.19-1.83-.57-2.57c-.38-.74-.91-1.33-1.59-1.77-.68-.43-1.46-.65-2.37-.65s-1.64.22-2.31.65c-.68.43-1.21,1.02-1.59,1.77-.38.75-.57,1.6-.57,2.57s.19,1.83.57,2.57c.38.75.92,1.33,1.61,1.77.69.43,1.49.65,2.39.65Z" style="fill:#fff; stroke-width:0px;"/><path d="m243.89,62.94v-26h9.36v26h-9.36Zm7.18-13.26c0-2.81.56-5.17,1.69-7.07,1.13-1.91,2.56-3.35,4.29-4.32,1.73-.97,3.54-1.46,5.41-1.46v9.15c-1.63,0-3.15.15-4.55.44-1.4.29-2.53.74-3.38,1.33-.85.59-1.27,1.3-1.27,2.13l-2.18-.21Z" style="fill:#fff; stroke-width:0px;"/><path d="m278.73,63.57c-2.81,0-5.3-.57-7.49-1.72-2.18-1.14-3.89-2.74-5.12-4.78-1.23-2.04-1.85-4.42-1.85-7.12s.61-5.08,1.82-7.12c1.21-2.04,2.89-3.64,5.04-4.78,2.15-1.14,4.63-1.72,7.44-1.72s5.02.58,7.05,1.74c2.03,1.16,3.62,2.92,4.78,5.28,1.16,2.36,1.74,5.34,1.74,8.94h-19.45l1.14-1.35c0,1.11.17,2.08.52,2.91s.87,1.47,1.56,1.92c.69.45,1.54.68,2.55.68,1.14,0,2.14-.27,2.99-.81.85-.54,1.38-1.2,1.59-2l8.22,2.55c-.62,1.8-1.62,3.25-2.99,4.34-1.37,1.09-2.9,1.87-4.58,2.34-1.68.47-3.34.7-4.97.7Zm-4.84-15.5l-.99-1.51h10.76l-.94,1.51c0-1.35-.23-2.41-.68-3.17-.45-.76-1.01-1.31-1.69-1.64-.68-.33-1.36-.49-2.05-.49-.73,0-1.43.16-2.11.49-.68.33-1.23.88-1.66,1.64-.43.76-.65,1.82-.65,3.17Z" style="fill:#fff; stroke-width:0px;"/><path d="m524.85,62.94l13.94-36.4h9.57l-13.31,36.4h-10.19Zm6.55-5.82v-8.48h25.17v8.48h-25.17Zm21.48,5.82l-13.31-36.4h9.57l13.94,36.4h-10.19Z" style="fill:#fff; stroke-width:0px;"/><path d="m564.48,44.22v-7.28h18.62v7.28h-18.62Zm3.9,18.72v-28.24c0-2.88.78-5.17,2.34-6.86,1.56-1.7,3.95-2.55,7.18-2.55,1.32,0,2.66.22,4.03.65,1.37.43,2.49.93,3.35,1.48l-3.48,6.5c-.31-.28-.65-.47-1.01-.57s-.72-.16-1.07-.16c-.69,0-1.2.25-1.51.75-.31.5-.47,1.38-.47,2.63v26.36h-9.36Z" style="fill:#fff; stroke-width:0px;"/><path d="m585.54,44.74v-7.8h18.62v7.8h-18.62Zm13.42,18.82c-3.22,0-5.62-.76-7.18-2.29-1.56-1.52-2.34-3.71-2.34-6.55v-25.9h9.36v23.35c0,.97.14,1.66.42,2.08.28.42.75.62,1.4.62.28,0,.62-.09,1.04-.26.42-.17.75-.35.99-.52l3.17,6.76c-.8.69-1.84,1.32-3.12,1.87s-2.53.83-3.74.83Z" style="fill:#fff; stroke-width:0px;"/><path d="m621.83,63.57c-2.81,0-5.3-.57-7.49-1.72-2.18-1.14-3.89-2.74-5.12-4.78-1.23-2.04-1.85-4.42-1.85-7.12s.61-5.08,1.82-7.12c1.21-2.04,2.89-3.64,5.04-4.78,2.15-1.14,4.63-1.72,7.44-1.72s5.02.58,7.05,1.74c2.03,1.16,3.62,2.92,4.78,5.28,1.16,2.36,1.74,5.34,1.74,8.94h-19.45l1.14-1.35c0,1.11.17,2.08.52,2.91s.87,1.47,1.56,1.92c.69.45,1.54.68,2.55.68,1.14,0,2.14-.27,2.99-.81.85-.54,1.38-1.2,1.59-2l8.22,2.55c-.62,1.8-1.62,3.25-2.99,4.34-1.37,1.09-2.9,1.87-4.58,2.34-1.68.47-3.34.7-4.97.7Zm-4.84-15.5l-.99-1.51h10.76l-.94,1.51c0-1.35-.23-2.41-.68-3.17-.45-.76-1.01-1.31-1.69-1.64-.68-.33-1.36-.49-2.05-.49-.73,0-1.43.16-2.11.49-.68.33-1.23.88-1.66,1.64-.43.76-.65,1.82-.65,3.17Z" style="fill:#fff; stroke-width:0px;"/><path d="m638.11,62.94v-26h9.36v26h-9.36Zm7.18-13.26c0-2.81.56-5.17,1.69-7.07,1.13-1.91,2.56-3.35,4.29-4.32,1.73-.97,3.54-1.46,5.41-1.46v9.15c-1.63,0-3.15.15-4.55.44-1.4.29-2.53.74-3.38,1.33-.85.59-1.27,1.3-1.27,2.13l-2.18-.21Z" style="fill:#fff; stroke-width:0px;"/><rect x="185.18" y="122.71" width="51.64" height="51.64" style="fill:#fff; stroke-width:0px;"/><rect x="477.78" y="127.87" width="41.31" height="41.31" style="fill:#467d9c; stroke-width:0px;"/><rect x="538.71" y="127.87" width="41.31" height="41.31" style="fill:#465e9d; stroke-width:0px;"/><rect x="609.96" y="138.2" width="20.65" height="20.65" style="fill:#939c45; stroke-width:0px;"/><rect x="660.56" y="127.87" width="41.31" height="41.31" style="fill:#469c8f; stroke-width:0px;"/><rect x="488.11" y="201.19" width="20.65" height="20.65" style="fill:#467d9c; stroke-width:0px;"/><rect x="538.71" y="190.87" width="41.31" height="41.31" style="fill:#449c58; stroke-width:0px;"/><rect x="599.63" y="190.87" width="41.31" height="41.31" style="fill:#465e9d; stroke-width:0px;"/><rect x="660.56" y="190.87" width="41.31" height="41.31" style="fill:#9d7145; stroke-width:0px;"/><rect x="477.78" y="253.86" width="41.31" height="41.31" style="fill:#4a459c; stroke-width:0px;"/><rect x="549.03" y="264.19" width="20.65" height="20.65" style="fill:#449c58; stroke-width:0px;"/><rect x="608.44" y="262.67" width="23.69" height="23.69" style="fill:#939c45; stroke-width:0px;"/><rect x="660.56" y="253.86" width="41.31" height="41.31" style="fill:#449c58; stroke-width:0px;"/><rect x="488.11" y="327.18" width="20.65" height="20.65" style="fill:#9d7145; stroke-width:0px;"/><rect x="538.71" y="316.86" width="41.31" height="41.31" style="fill:#469c8f; stroke-width:0px;"/><rect x="599.63" y="316.86" width="41.31" height="41.31" style="fill:#4a459c; stroke-width:0px;"/><rect x="660.56" y="316.86" width="41.31" height="41.31" style="fill:#449c58; stroke-width:0px;"/><rect x="477.78" y="379.85" width="41.31" height="41.31" style="fill:#467d9c; stroke-width:0px;"/><rect x="538.71" y="379.85" width="41.31" height="41.31" style="fill:#9d7145; stroke-width:0px;"/><rect x="609.96" y="390.18" width="20.65" height="20.65" style="fill:#9d7145; stroke-width:0px;"/><rect x="660.56" y="379.85" width="41.31" height="41.31" style="fill:#939c45; stroke-width:0px;"/><rect x="480.49" y="445.55" width="35.9" height="35.9" style="fill:#465e9d; stroke-width:0px;"/><rect x="527.75" y="431.89" width="63.22" height="63.22" style="fill:#467d9c; stroke-width:0px;"/><rect x="601.95" y="445.16" width="36.68" height="36.68" style="fill:#469c8f; stroke-width:0px;"/><rect x="672.44" y="454.73" width="17.53" height="17.53" style="fill:#9d7145; stroke-width:0px;"/><path d="m122.95,90.9v-1.34c.22.01.48-.06.77-.21.29-.15.59-.34.89-.58.3-.24.57-.49.79-.75l.92.99c-.34.36-.7.69-1.06.98-.37.29-.75.52-1.13.69s-.78.25-1.18.23Zm2.33,7.63v-9.71l.13-.79h1.31v10.5h-1.44Z" style="fill:#fff; stroke-width:0px;"/><path d="m133.34,98.53v-10.5h6.32v1.35h-4.85v3.12h4.37v1.32h-4.37v3.36h4.88v1.35h-6.34Z" style="fill:#fff; stroke-width:0px;"/><path d="m141.86,98.53v-7.5h1.33l.09,1.38v6.12h-1.42Zm5.19-3.84c0-.68-.08-1.2-.23-1.55s-.37-.6-.64-.74c-.28-.14-.59-.22-.95-.23-.61,0-1.08.21-1.42.65-.34.43-.51,1.03-.51,1.81h-.62c0-.79.12-1.47.35-2.03.24-.56.57-1,1-1.3.44-.3.95-.45,1.55-.45s1.1.12,1.54.36c.44.24.77.61,1.01,1.12.23.51.35,1.17.35,1.99v.38h-1.43Zm0,3.84v-3.84h1.43v3.84h-1.43Z" style="fill:#fff; stroke-width:0px;"/><path d="m152.41,98.53l-3.12-7.5h1.46l3,7.5h-1.33Zm.09,0l3-7.5h1.49l-3.13,7.5h-1.35Z" style="fill:#fff; stroke-width:0px;"/><path d="m158.9,89.44c-.23,0-.43-.09-.6-.26-.17-.17-.25-.38-.25-.61s.08-.44.25-.61.37-.25.6-.25.44.08.61.25.25.37.25.61-.08.43-.25.61c-.17.18-.37.26-.61.26Zm-.72,9.09v-7.5h1.42v7.5h-1.42Z" style="fill:#fff; stroke-width:0px;"/><path d="m161.69,98.53v-7.5h1.42v7.5h-1.42Zm.87-4.04c0-.81.15-1.47.46-1.98.31-.51.71-.89,1.2-1.14.49-.25,1-.38,1.54-.38v1.35c-.45,0-.88.07-1.28.2-.4.14-.73.35-.99.66s-.38.72-.38,1.24l-.55.04Z" style="fill:#fff; stroke-width:0px;"/><path d="m170.32,98.71c-.75,0-1.41-.17-1.98-.5-.57-.33-1.02-.8-1.34-1.39-.33-.59-.49-1.27-.49-2.04s.16-1.45.48-2.04c.32-.59.77-1.05,1.33-1.39.57-.33,1.22-.5,1.95-.5s1.41.17,1.98.5c.57.34,1.01.8,1.33,1.39.32.59.48,1.27.48,2.04s-.16,1.45-.48,2.04c-.32.59-.76,1.05-1.33,1.39-.56.33-1.21.5-1.94.5Zm0-1.31c.45,0,.85-.11,1.19-.34.35-.23.62-.53.82-.92.2-.39.3-.85.3-1.37s-.1-.98-.3-1.37c-.2-.39-.48-.7-.83-.92-.36-.23-.76-.34-1.21-.34s-.86.11-1.21.34c-.35.23-.62.54-.83.93s-.3.85-.3,1.36.1.98.3,1.37c.2.39.48.7.84.92.36.23.77.34,1.23.34Z" style="fill:#fff; stroke-width:0px;"/><path d="m175.63,98.53v-7.5h1.33l.09,1.38v6.12h-1.42Zm5.19-3.84c0-.68-.08-1.2-.23-1.55s-.37-.6-.64-.74c-.28-.14-.59-.22-.95-.23-.61,0-1.08.21-1.42.65-.34.43-.51,1.03-.51,1.81h-.62c0-.79.12-1.47.35-2.03.24-.56.57-1,1-1.3.44-.3.95-.45,1.55-.45s1.1.12,1.54.36c.44.24.77.61,1.01,1.12.23.51.35,1.17.35,1.99v.38h-1.43Zm0,3.84v-3.84h1.43v3.84h-1.43Z" style="fill:#fff; stroke-width:0px;"/><path d="m184.04,98.53v-7.5h1.33l.06,1.04c.24-.4.54-.7.9-.91.36-.2.77-.31,1.25-.31.6,0,1.11.14,1.53.41.42.28.73.69.92,1.25.22-.54.53-.95.93-1.24.4-.29.88-.43,1.42-.43.85,0,1.51.28,2,.83.48.56.71,1.41.71,2.56v4.29h-1.41v-3.84c0-.68-.07-1.2-.22-1.55s-.34-.6-.58-.74-.52-.22-.84-.23c-.56,0-.99.21-1.3.65-.3.43-.46,1.03-.46,1.81v3.9h-1.43v-3.84c0-.68-.07-1.2-.21-1.55-.14-.35-.33-.6-.58-.74s-.53-.22-.85-.23c-.56,0-.99.21-1.3.65-.3.43-.46,1.03-.46,1.81v3.9h-1.42Z" style="fill:#fff; stroke-width:0px;"/><path d="m200.21,98.71c-.73,0-1.38-.17-1.93-.5-.56-.33-1-.8-1.32-1.39-.32-.59-.48-1.27-.48-2.04s.16-1.45.48-2.04c.32-.59.76-1.05,1.33-1.39.56-.33,1.21-.5,1.94-.5.69,0,1.29.17,1.81.52.52.35.93.83,1.22,1.47s.44,1.38.44,2.24h-6.06l.27-.22c0,.53.11.99.32,1.38s.5.69.85.89c.36.21.77.31,1.23.31.5,0,.92-.12,1.25-.35s.6-.53.79-.89l1.23.57c-.2.39-.46.73-.78,1.03-.32.3-.7.52-1.13.68-.44.16-.92.24-1.46.24Zm-2.21-4.53l-.28-.23h4.74l-.27.23c0-.44-.09-.82-.27-1.13-.18-.31-.42-.56-.72-.72s-.63-.25-1-.25-.71.08-1.04.25-.61.4-.82.71c-.22.31-.32.69-.32,1.14Z" style="fill:#fff; stroke-width:0px;"/><path d="m205.12,98.53v-7.5h1.33l.09,1.38v6.12h-1.42Zm5.19-3.84c0-.68-.08-1.2-.23-1.55s-.37-.6-.64-.74c-.28-.14-.59-.22-.95-.23-.61,0-1.08.21-1.42.65-.34.43-.51,1.03-.51,1.81h-.62c0-.79.12-1.47.35-2.03.24-.56.57-1,1-1.3.44-.3.95-.45,1.55-.45s1.1.12,1.54.36c.44.24.77.61,1.01,1.12.23.51.35,1.17.35,1.99v.38h-1.43Zm0,3.84v-3.84h1.43v3.84h-1.43Z" style="fill:#fff; stroke-width:0px;"/><path d="m212.8,92.26v-1.23h4.83v1.23h-4.83Zm3.63,6.45c-.75,0-1.33-.19-1.74-.58-.41-.38-.61-.94-.61-1.66v-7.78h1.42v7.57c0,.37.09.65.28.85.18.19.45.29.8.29.1,0,.21-.02.33-.06.12-.04.26-.12.43-.24l.54,1.11c-.26.17-.51.29-.74.38-.24.08-.47.12-.71.12Z" style="fill:#fff; stroke-width:0px;"/><path d="m221.63,98.71c-.89,0-1.58-.2-2.08-.61-.5-.4-.74-.97-.74-1.69,0-.77.26-1.36.77-1.76.51-.41,1.23-.61,2.15-.61h2.08v1.12h-1.7c-.69,0-1.17.11-1.46.32-.28.22-.42.51-.42.89,0,.35.13.62.4.82.26.2.63.29,1.1.29.41,0,.77-.09,1.07-.26s.53-.42.71-.74c.17-.32.25-.68.25-1.09h.5c0,1.02-.22,1.83-.65,2.42-.44.6-1.1.89-1.99.89Zm2.21-.18l-.06-1.31v-2.61c0-.55-.06-1.01-.19-1.38s-.32-.65-.57-.84-.59-.29-1.01-.29c-.39,0-.73.08-1.01.24-.29.16-.52.41-.71.75l-1.26-.48c.18-.34.4-.64.67-.91.27-.27.59-.48.97-.63.38-.16.83-.23,1.33-.23.71,0,1.3.14,1.77.42.47.28.82.69,1.06,1.21.23.53.35,1.19.34,1.96v4.08h-1.33Z" style="fill:#fff; stroke-width:0px;"/><path d="m226.97,98.53v-10.5h1.42v10.5h-1.42Z" style="fill:#fff; stroke-width:0px;"/><path d="m238.85,98.71c-1,0-1.89-.23-2.67-.7-.78-.46-1.39-1.1-1.83-1.92-.44-.81-.66-1.75-.66-2.81s.22-2,.66-2.81c.44-.81,1.04-1.46,1.82-1.92.77-.46,1.66-.7,2.66-.7.65,0,1.27.12,1.86.35.59.24,1.12.56,1.58.98s.82.9,1.07,1.45l-1.32.6c-.19-.41-.45-.76-.78-1.06-.33-.3-.7-.53-1.12-.71-.42-.17-.85-.25-1.3-.25-.7,0-1.33.18-1.88.52-.55.35-.98.83-1.29,1.44-.31.61-.47,1.32-.47,2.12s.16,1.51.47,2.13c.32.62.75,1.1,1.31,1.45.55.34,1.19.52,1.9.52.46,0,.89-.09,1.3-.28.41-.18.78-.44,1.1-.76.33-.33.59-.7.79-1.12l1.32.58c-.25.57-.61,1.08-1.07,1.52s-.99.78-1.58,1.03-1.22.37-1.88.37Z" style="fill:#fff; stroke-width:0px;"/><path d="m248.26,98.71c-.75,0-1.41-.17-1.98-.5-.57-.33-1.02-.8-1.34-1.39-.33-.59-.49-1.27-.49-2.04s.16-1.45.48-2.04c.32-.59.77-1.05,1.33-1.39.57-.33,1.22-.5,1.95-.5s1.41.17,1.98.5c.57.34,1.01.8,1.33,1.39.32.59.48,1.27.48,2.04s-.16,1.45-.48,2.04c-.32.59-.76,1.05-1.33,1.39-.56.33-1.21.5-1.94.5Zm0-1.31c.45,0,.85-.11,1.19-.34.35-.23.62-.53.82-.92.2-.39.3-.85.3-1.37s-.1-.98-.3-1.37c-.2-.39-.48-.7-.83-.92-.36-.23-.76-.34-1.21-.34s-.86.11-1.21.34c-.35.23-.62.54-.83.93s-.3.85-.3,1.36.1.98.3,1.37c.2.39.48.7.84.92.36.23.77.34,1.23.34Z" style="fill:#fff; stroke-width:0px;"/><path d="m253.57,98.53v-7.5h1.33l.09,1.38v6.12h-1.42Zm5.19-3.84c0-.68-.08-1.2-.23-1.55s-.37-.6-.64-.74c-.28-.14-.59-.22-.95-.23-.61,0-1.08.21-1.42.65-.34.43-.51,1.03-.51,1.81h-.62c0-.79.12-1.47.35-2.03.24-.56.57-1,1-1.3.44-.3.95-.45,1.55-.45s1.1.12,1.54.36c.44.24.77.61,1.01,1.12.23.51.35,1.17.35,1.99v.38h-1.43Zm0,3.84v-3.84h1.43v3.84h-1.43Z" style="fill:#fff; stroke-width:0px;"/><path d="m264.95,98.71c-.68,0-1.27-.17-1.78-.5s-.9-.79-1.19-1.38c-.28-.59-.43-1.28-.43-2.06s.14-1.48.43-2.06c.29-.58.68-1.04,1.19-1.37s1.1-.5,1.78-.5c.63,0,1.18.17,1.64.5s.82.79,1.07,1.37.38,1.27.38,2.06-.12,1.46-.38,2.06c-.25.59-.61,1.05-1.07,1.38s-1.01.5-1.64.5Zm.33-1.29c.42,0,.79-.11,1.11-.34.32-.23.57-.54.75-.93.18-.4.27-.85.27-1.37s-.09-.98-.27-1.37c-.18-.4-.43-.71-.75-.93-.32-.22-.7-.34-1.12-.34s-.83.11-1.17.34c-.34.23-.61.54-.8.93-.19.4-.28.85-.28,1.37s.1.98.29,1.37.46.71.8.93c.34.22.73.34,1.17.34Zm2.19,1.11l-.06-1.4v-9.1h1.41v10.5h-1.35Z" style="fill:#fff; stroke-width:0px;"/><path d="m271.61,89.44c-.23,0-.43-.09-.6-.26-.17-.17-.25-.38-.25-.61s.08-.44.25-.61.37-.25.6-.25.44.08.61.25.25.37.25.61-.08.43-.25.61c-.17.18-.37.26-.61.26Zm-.72,9.09v-7.5h1.42v7.5h-1.42Z" style="fill:#fff; stroke-width:0px;"/><path d="m273.67,92.26v-1.23h4.83v1.23h-4.83Zm3.63,6.45c-.75,0-1.33-.19-1.74-.58-.41-.38-.61-.94-.61-1.66v-7.78h1.42v7.57c0,.37.09.65.28.85.18.19.45.29.8.29.1,0,.21-.02.33-.06.12-.04.26-.12.43-.24l.54,1.11c-.26.17-.51.29-.74.38-.24.08-.47.12-.71.12Z" style="fill:#fff; stroke-width:0px;"/><path d="m280.97,89.44c-.23,0-.43-.09-.6-.26-.17-.17-.25-.38-.25-.61s.08-.44.25-.61.37-.25.6-.25.44.08.61.25.25.37.25.61-.08.43-.25.61c-.17.18-.37.26-.61.26Zm-.72,9.09v-7.5h1.42v7.5h-1.42Z" style="fill:#fff; stroke-width:0px;"/><path d="m287.15,98.71c-.75,0-1.41-.17-1.98-.5-.57-.33-1.02-.8-1.34-1.39-.33-.59-.49-1.27-.49-2.04s.16-1.45.48-2.04c.32-.59.77-1.05,1.33-1.39.57-.33,1.22-.5,1.95-.5s1.41.17,1.98.5c.57.34,1.01.8,1.33,1.39.32.59.48,1.27.48,2.04s-.16,1.45-.48,2.04c-.32.59-.76,1.05-1.33,1.39-.56.33-1.21.5-1.94.5Zm0-1.31c.45,0,.85-.11,1.19-.34.35-.23.62-.53.82-.92.2-.39.3-.85.3-1.37s-.1-.98-.3-1.37c-.2-.39-.48-.7-.83-.92-.36-.23-.76-.34-1.21-.34s-.86.11-1.21.34c-.35.23-.62.54-.83.93s-.3.85-.3,1.36.1.98.3,1.37c.2.39.48.7.84.92.36.23.77.34,1.23.34Z" style="fill:#fff; stroke-width:0px;"/><path d="m292.46,98.53v-7.5h1.33l.09,1.38v6.12h-1.42Zm5.19-3.84c0-.68-.08-1.2-.23-1.55s-.37-.6-.64-.74c-.28-.14-.59-.22-.95-.23-.61,0-1.08.21-1.42.65-.34.43-.51,1.03-.51,1.81h-.62c0-.79.12-1.47.35-2.03.24-.56.57-1,1-1.3.44-.3.95-.45,1.55-.45s1.1.12,1.54.36c.44.24.77.61,1.01,1.12.23.51.35,1.17.35,1.99v.38h-1.43Zm0,3.84v-3.84h1.43v3.84h-1.43Z" style="fill:#fff; stroke-width:0px;"/><path d="m494.05,98.53v-1.19c0-.31.07-.63.22-.97.14-.33.35-.67.63-1s.6-.64.98-.92l2.03-1.5c.24-.17.46-.37.65-.59.2-.22.35-.46.46-.7s.17-.49.17-.73c0-.32-.08-.61-.24-.88-.16-.27-.38-.48-.67-.63-.29-.15-.64-.23-1.04-.23s-.71.07-1,.22c-.28.15-.52.34-.71.58-.19.24-.33.5-.41.77l-1.51-.29c.11-.46.32-.89.64-1.29.32-.4.73-.72,1.23-.97s1.06-.37,1.69-.37c.72,0,1.34.13,1.87.4.52.27.93.63,1.22,1.1.29.46.43,1,.43,1.6s-.16,1.12-.47,1.6c-.31.49-.77.96-1.36,1.42l-1.88,1.41c-.37.28-.66.57-.88.87-.22.3-.35.62-.4.96h5.12v1.32h-6.79Z" style="fill:#fff; stroke-width:0px;"/><path d="m506.14,98.71c-.72,0-1.33-.14-1.81-.41-.49-.27-.88-.64-1.18-1.1-.29-.46-.51-1-.64-1.61s-.2-1.26-.2-1.95c0-.87.09-1.66.27-2.37s.44-1.32.79-1.83c.35-.51.78-.9,1.29-1.18.51-.27,1.09-.41,1.75-.41.53,0,1.05.08,1.58.25.52.17.98.39,1.39.68l-.79,1.06c-.32-.22-.67-.39-1.04-.5-.37-.11-.71-.17-1.03-.17-.95,0-1.68.4-2.19,1.21-.51.8-.74,2.04-.69,3.71l-.3-.25c.24-.59.62-1.06,1.13-1.42.51-.35,1.12-.53,1.82-.53s1.28.15,1.8.45c.52.3.92.71,1.22,1.22.29.52.43,1.11.43,1.78s-.15,1.23-.45,1.74c-.3.51-.72.91-1.27,1.2s-1.18.44-1.9.44Zm.02-1.29c.41,0,.77-.09,1.09-.27.32-.18.57-.43.76-.76.18-.32.28-.69.28-1.1s-.09-.79-.28-1.12c-.19-.32-.44-.58-.76-.76-.32-.18-.69-.27-1.09-.27s-.79.09-1.12.27c-.33.18-.58.43-.76.76-.19.33-.28.7-.28,1.12s.09.78.28,1.1c.18.33.44.58.76.76.33.18.7.27,1.12.27Z" style="fill:#fff; stroke-width:0px;"/><path d="m515.2,98.53v-10.5h6.32v1.35h-4.85v3.12h4.37v1.32h-4.37v3.36h4.88v1.35h-6.34Z" style="fill:#fff; stroke-width:0px;"/><path d="m523.72,98.53v-7.5h1.33l.09,1.38v6.12h-1.42Zm5.19-3.84c0-.68-.08-1.2-.23-1.55s-.37-.6-.64-.74c-.28-.14-.59-.22-.95-.23-.61,0-1.08.21-1.42.65-.34.43-.51,1.03-.51,1.81h-.62c0-.79.12-1.47.35-2.03.24-.56.57-1,1-1.3.44-.3.95-.45,1.55-.45s1.1.12,1.54.36c.44.24.77.61,1.01,1.12.23.51.35,1.17.35,1.99v.38h-1.43Zm0,3.84v-3.84h1.43v3.84h-1.43Z" style="fill:#fff; stroke-width:0px;"/><path d="m534.26,98.53l-3.12-7.5h1.46l3,7.5h-1.33Zm.09,0l3-7.5h1.49l-3.13,7.5h-1.35Z" style="fill:#fff; stroke-width:0px;"/><path d="m540.76,89.44c-.23,0-.43-.09-.6-.26-.17-.17-.25-.38-.25-.61s.08-.44.25-.61.37-.25.6-.25.44.08.61.25.25.37.25.61-.08.43-.25.61c-.17.18-.37.26-.61.26Zm-.72,9.09v-7.5h1.42v7.5h-1.42Z" style="fill:#fff; stroke-width:0px;"/><path d="m543.55,98.53v-7.5h1.42v7.5h-1.42Zm.87-4.04c0-.81.15-1.47.46-1.98.31-.51.71-.89,1.2-1.14.49-.25,1-.38,1.54-.38v1.35c-.45,0-.88.07-1.28.2-.4.14-.73.35-.99.66s-.38.72-.38,1.24l-.55.04Z" style="fill:#fff; stroke-width:0px;"/><path d="m552.17,98.71c-.75,0-1.41-.17-1.98-.5-.57-.33-1.02-.8-1.34-1.39-.33-.59-.49-1.27-.49-2.04s.16-1.45.48-2.04c.32-.59.77-1.05,1.33-1.39.57-.33,1.22-.5,1.95-.5s1.41.17,1.98.5c.57.34,1.01.8,1.33,1.39.32.59.48,1.27.48,2.04s-.16,1.45-.48,2.04c-.32.59-.76,1.05-1.33,1.39-.56.33-1.21.5-1.94.5Zm0-1.31c.45,0,.85-.11,1.19-.34.35-.23.62-.53.82-.92.2-.39.3-.85.3-1.37s-.1-.98-.3-1.37c-.2-.39-.48-.7-.83-.92-.36-.23-.76-.34-1.21-.34s-.86.11-1.21.34c-.35.23-.62.54-.83.93s-.3.85-.3,1.36.1.98.3,1.37c.2.39.48.7.84.92.36.23.77.34,1.23.34Z" style="fill:#fff; stroke-width:0px;"/><path d="m557.49,98.53v-7.5h1.33l.09,1.38v6.12h-1.42Zm5.19-3.84c0-.68-.08-1.2-.23-1.55s-.37-.6-.64-.74c-.28-.14-.59-.22-.95-.23-.61,0-1.08.21-1.42.65-.34.43-.51,1.03-.51,1.81h-.62c0-.79.12-1.47.35-2.03.24-.56.57-1,1-1.3.44-.3.95-.45,1.55-.45s1.1.12,1.54.36c.44.24.77.61,1.01,1.12.23.51.35,1.17.35,1.99v.38h-1.43Zm0,3.84v-3.84h1.43v3.84h-1.43Z" style="fill:#fff; stroke-width:0px;"/><path d="m565.9,98.53v-7.5h1.33l.06,1.04c.24-.4.54-.7.9-.91.36-.2.77-.31,1.25-.31.6,0,1.11.14,1.53.41.42.28.73.69.92,1.25.22-.54.53-.95.93-1.24.4-.29.88-.43,1.42-.43.85,0,1.51.28,2,.83.48.56.71,1.41.71,2.56v4.29h-1.41v-3.84c0-.68-.07-1.2-.22-1.55s-.34-.6-.58-.74-.52-.22-.84-.23c-.56,0-.99.21-1.3.65-.3.43-.46,1.03-.46,1.81v3.9h-1.43v-3.84c0-.68-.07-1.2-.21-1.55-.14-.35-.33-.6-.58-.74s-.53-.22-.85-.23c-.56,0-.99.21-1.3.65-.3.43-.46,1.03-.46,1.81v3.9h-1.42Z" style="fill:#fff; stroke-width:0px;"/><path d="m582.07,98.71c-.73,0-1.38-.17-1.93-.5-.56-.33-1-.8-1.32-1.39-.32-.59-.48-1.27-.48-2.04s.16-1.45.48-2.04c.32-.59.76-1.05,1.33-1.39.56-.33,1.21-.5,1.94-.5.69,0,1.29.17,1.81.52.52.35.93.83,1.22,1.47s.44,1.38.44,2.24h-6.06l.27-.22c0,.53.11.99.32,1.38s.5.69.85.89c.36.21.77.31,1.23.31.5,0,.92-.12,1.25-.35s.6-.53.79-.89l1.23.57c-.2.39-.46.73-.78,1.03-.32.3-.7.52-1.13.68-.44.16-.92.24-1.46.24Zm-2.21-4.53l-.28-.23h4.74l-.27.23c0-.44-.09-.82-.27-1.13-.18-.31-.42-.56-.72-.72s-.63-.25-1-.25-.71.08-1.04.25-.61.4-.82.71c-.22.31-.32.69-.32,1.14Z" style="fill:#fff; stroke-width:0px;"/><path d="m586.98,98.53v-7.5h1.33l.09,1.38v6.12h-1.42Zm5.19-3.84c0-.68-.08-1.2-.23-1.55s-.37-.6-.64-.74c-.28-.14-.59-.22-.95-.23-.61,0-1.08.21-1.42.65-.34.43-.51,1.03-.51,1.81h-.62c0-.79.12-1.47.35-2.03.24-.56.57-1,1-1.3.44-.3.95-.45,1.55-.45s1.1.12,1.54.36c.44.24.77.61,1.01,1.12.23.51.35,1.17.35,1.99v.38h-1.43Zm0,3.84v-3.84h1.43v3.84h-1.43Z" style="fill:#fff; stroke-width:0px;"/><path d="m594.66,92.26v-1.23h4.83v1.23h-4.83Zm3.63,6.45c-.75,0-1.33-.19-1.74-.58-.41-.38-.61-.94-.61-1.66v-7.78h1.42v7.57c0,.37.09.65.28.85.18.19.45.29.8.29.1,0,.21-.02.33-.06.12-.04.26-.12.43-.24l.54,1.11c-.26.17-.51.29-.74.38-.24.08-.47.12-.71.12Z" style="fill:#fff; stroke-width:0px;"/><path d="m603.49,98.71c-.89,0-1.58-.2-2.08-.61-.5-.4-.74-.97-.74-1.69,0-.77.26-1.36.77-1.76.51-.41,1.23-.61,2.15-.61h2.08v1.12h-1.7c-.69,0-1.17.11-1.46.32-.28.22-.42.51-.42.89,0,.35.13.62.4.82.26.2.63.29,1.1.29.41,0,.77-.09,1.07-.26s.53-.42.71-.74c.17-.32.25-.68.25-1.09h.5c0,1.02-.22,1.83-.65,2.42-.44.6-1.1.89-1.99.89Zm2.21-.18l-.06-1.31v-2.61c0-.55-.06-1.01-.19-1.38s-.32-.65-.57-.84-.59-.29-1.01-.29c-.39,0-.73.08-1.01.24-.29.16-.52.41-.71.75l-1.26-.48c.18-.34.4-.64.67-.91.27-.27.59-.48.97-.63.38-.16.83-.23,1.33-.23.71,0,1.3.14,1.77.42.47.28.82.69,1.06,1.21.23.53.35,1.19.34,1.96v4.08h-1.33Z" style="fill:#fff; stroke-width:0px;"/><path d="m608.83,98.53v-10.5h1.42v10.5h-1.42Z" style="fill:#fff; stroke-width:0px;"/><path d="m620.71,98.71c-1,0-1.89-.23-2.67-.7-.78-.46-1.39-1.1-1.83-1.92-.44-.81-.66-1.75-.66-2.81s.22-2,.66-2.81c.44-.81,1.04-1.46,1.82-1.92.77-.46,1.66-.7,2.66-.7.65,0,1.27.12,1.86.35.59.24,1.12.56,1.58.98s.82.9,1.07,1.45l-1.32.6c-.19-.41-.45-.76-.78-1.06-.33-.3-.7-.53-1.12-.71-.42-.17-.85-.25-1.3-.25-.7,0-1.33.18-1.88.52-.55.35-.98.83-1.29,1.44-.31.61-.47,1.32-.47,2.12s.16,1.51.47,2.13c.32.62.75,1.1,1.31,1.45.55.34,1.19.52,1.9.52.46,0,.89-.09,1.3-.28.41-.18.78-.44,1.1-.76.33-.33.59-.7.79-1.12l1.32.58c-.25.57-.61,1.08-1.07,1.52s-.99.78-1.58,1.03-1.22.37-1.88.37Z" style="fill:#fff; stroke-width:0px;"/><path d="m630.12,98.71c-.75,0-1.41-.17-1.98-.5-.57-.33-1.02-.8-1.34-1.39-.33-.59-.49-1.27-.49-2.04s.16-1.45.48-2.04c.32-.59.77-1.05,1.33-1.39.57-.33,1.22-.5,1.95-.5s1.41.17,1.98.5c.57.34,1.01.8,1.33,1.39.32.59.48,1.27.48,2.04s-.16,1.45-.48,2.04c-.32.59-.76,1.05-1.33,1.39-.56.33-1.21.5-1.94.5Zm0-1.31c.45,0,.85-.11,1.19-.34.35-.23.62-.53.82-.92.2-.39.3-.85.3-1.37s-.1-.98-.3-1.37c-.2-.39-.48-.7-.83-.92-.36-.23-.76-.34-1.21-.34s-.86.11-1.21.34c-.35.23-.62.54-.83.93s-.3.85-.3,1.36.1.98.3,1.37c.2.39.48.7.84.92.36.23.77.34,1.23.34Z" style="fill:#fff; stroke-width:0px;"/><path d="m635.42,98.53v-7.5h1.33l.09,1.38v6.12h-1.42Zm5.19-3.84c0-.68-.08-1.2-.23-1.55s-.37-.6-.64-.74c-.28-.14-.59-.22-.95-.23-.61,0-1.08.21-1.42.65-.34.43-.51,1.03-.51,1.81h-.62c0-.79.12-1.47.35-2.03.24-.56.57-1,1-1.3.44-.3.95-.45,1.55-.45s1.1.12,1.54.36c.44.24.77.61,1.01,1.12.23.51.35,1.17.35,1.99v.38h-1.43Zm0,3.84v-3.84h1.43v3.84h-1.43Z" style="fill:#fff; stroke-width:0px;"/><path d="m646.81,98.71c-.68,0-1.27-.17-1.78-.5s-.9-.79-1.19-1.38c-.28-.59-.43-1.28-.43-2.06s.14-1.48.43-2.06c.29-.58.68-1.04,1.19-1.37s1.1-.5,1.78-.5c.63,0,1.18.17,1.64.5s.82.79,1.07,1.37.38,1.27.38,2.06-.12,1.46-.38,2.06c-.25.59-.61,1.05-1.07,1.38s-1.01.5-1.64.5Zm.33-1.29c.42,0,.79-.11,1.11-.34.32-.23.57-.54.75-.93.18-.4.27-.85.27-1.37s-.09-.98-.27-1.37c-.18-.4-.43-.71-.75-.93-.32-.22-.7-.34-1.12-.34s-.83.11-1.17.34c-.34.23-.61.54-.8.93-.19.4-.28.85-.28,1.37s.1.98.29,1.37.46.71.8.93c.34.22.73.34,1.17.34Zm2.19,1.11l-.06-1.4v-9.1h1.41v10.5h-1.35Z" style="fill:#fff; stroke-width:0px;"/><path d="m653.47,89.44c-.23,0-.43-.09-.6-.26-.17-.17-.25-.38-.25-.61s.08-.44.25-.61.37-.25.6-.25.44.08.61.25.25.37.25.61-.08.43-.25.61c-.17.18-.37.26-.61.26Zm-.72,9.09v-7.5h1.42v7.5h-1.42Z" style="fill:#fff; stroke-width:0px;"/><path d="m655.52,92.26v-1.23h4.83v1.23h-4.83Zm3.63,6.45c-.75,0-1.33-.19-1.74-.58-.41-.38-.61-.94-.61-1.66v-7.78h1.42v7.57c0,.37.09.65.28.85.18.19.45.29.8.29.1,0,.21-.02.33-.06.12-.04.26-.12.43-.24l.54,1.11c-.26.17-.51.29-.74.38-.24.08-.47.12-.71.12Z" style="fill:#fff; stroke-width:0px;"/><path d="m662.83,89.44c-.23,0-.43-.09-.6-.26-.17-.17-.25-.38-.25-.61s.08-.44.25-.61.37-.25.6-.25.44.08.61.25.25.37.25.61-.08.43-.25.61c-.17.18-.37.26-.61.26Zm-.72,9.09v-7.5h1.42v7.5h-1.42Z" style="fill:#fff; stroke-width:0px;"/><path d="m669.01,98.71c-.75,0-1.41-.17-1.98-.5-.57-.33-1.02-.8-1.34-1.39-.33-.59-.49-1.27-.49-2.04s.16-1.45.48-2.04c.32-.59.77-1.05,1.33-1.39.57-.33,1.22-.5,1.95-.5s1.41.17,1.98.5c.57.34,1.01.8,1.33,1.39.32.59.48,1.27.48,2.04s-.16,1.45-.48,2.04c-.32.59-.76,1.05-1.33,1.39-.56.33-1.21.5-1.94.5Zm0-1.31c.45,0,.85-.11,1.19-.34.35-.23.62-.53.82-.92.2-.39.3-.85.3-1.37s-.1-.98-.3-1.37c-.2-.39-.48-.7-.83-.92-.36-.23-.76-.34-1.21-.34s-.86.11-1.21.34c-.35.23-.62.54-.83.93s-.3.85-.3,1.36.1.98.3,1.37c.2.39.48.7.84.92.36.23.77.34,1.23.34Z" style="fill:#fff; stroke-width:0px;"/><path d="m674.32,98.53v-7.5h1.33l.09,1.38v6.12h-1.42Zm5.19-3.84c0-.68-.08-1.2-.23-1.55s-.37-.6-.64-.74c-.28-.14-.59-.22-.95-.23-.61,0-1.08.21-1.42.65-.34.43-.51,1.03-.51,1.81h-.62c0-.79.12-1.47.35-2.03.24-.56.57-1,1-1.3.44-.3.95-.45,1.55-.45s1.1.12,1.54.36c.44.24.77.61,1.01,1.12.23.51.35,1.17.35,1.99v.38h-1.43Zm0,3.84v-3.84h1.43v3.84h-1.43Z" style="fill:#fff; stroke-width:0px;"/><path d="m685.42,98.71c-.53,0-1-.08-1.42-.24-.42-.16-.77-.38-1.05-.65-.28-.27-.5-.57-.64-.92l1.23-.54c.16.31.4.57.72.77.32.2.68.3,1.07.3.43,0,.79-.08,1.07-.24.28-.16.42-.38.42-.67s-.11-.5-.32-.66-.51-.29-.92-.39l-.71-.18c-.7-.19-1.24-.47-1.63-.85-.39-.38-.58-.81-.58-1.29,0-.73.24-1.29.71-1.7.47-.4,1.17-.6,2.08-.6.45,0,.86.07,1.24.2s.7.31.96.55c.26.24.45.53.56.85l-1.2.54c-.12-.3-.33-.52-.62-.67-.29-.14-.63-.22-1.02-.22s-.71.09-.94.26c-.23.18-.34.42-.34.73,0,.17.1.33.29.49s.48.28.86.38l.81.19c.49.12.89.3,1.21.55.32.25.56.52.72.82.16.31.24.62.24.95,0,.45-.12.84-.37,1.18-.25.33-.58.59-1.01.77-.42.18-.91.27-1.45.27Z" style="fill:#fff; stroke-width:0px;"/></svg>