<?xml version="1.0" encoding="UTF-8"?><svg id="Layer_1" xmlns="http://www.w3.org/2000/svg" viewBox="0 0 928 760.96"><defs><style>.cls-1{stroke:#9cf982;}.cls-1,.cls-2,.cls-3,.cls-4,.cls-5,.cls-6,.cls-7,.cls-8,.cls-9{fill:none;}.cls-1,.cls-2,.cls-3,.cls-4,.cls-6{stroke-width:2.5px;}.cls-1,.cls-2,.cls-3,.cls-4,.cls-6,.cls-7{stroke-linecap:round;stroke-linejoin:round;}.cls-2{stroke:#8defe1;}.cls-3{stroke:#77c49a;}.cls-4{stroke:#a87d60;}.cls-5{stroke:rgba(0,0,0,.1);}.cls-6{stroke:rgba(184,68,70,.72);}.cls-10{fill:#b84446;}.cls-10,.cls-11,.cls-12,.cls-13,.cls-14,.cls-15{font-family:Helvetica, Helvetica;font-size:26.22px;isolation:isolate;}.cls-11{fill:#8defe1;}.cls-12{fill:#9cf982;}.cls-13{fill:#fff;}.cls-7{stroke-width:4px;}.cls-7,.cls-8{stroke:#fff;}.cls-14{fill:#a87d60;}.cls-15{fill:#77c49a;}.cls-8{opacity:.2;}.cls-9{stroke:#000;}</style></defs><line class="cls-5" x1="58.02" y1="687.58" x2="772.65" y2="687.58"/><line class="cls-5" x1="58.02" y1="664.52" x2="772.65" y2="664.52"/><line class="cls-5" x1="58.02" y1="641.46" x2="772.65" y2="641.46"/><line class="cls-5" x1="58.02" y1="618.4" x2="772.65" y2="618.4"/><line class="cls-5" x1="58.02" y1="595.35" x2="772.65" y2="595.35"/><line class="cls-5" x1="58.02" y1="572.29" x2="772.65" y2="572.29"/><line class="cls-5" x1="58.02" y1="549.23" x2="772.65" y2="549.23"/><line class="cls-5" x1="58.02" y1="526.17" x2="772.65" y2="526.17"/><line class="cls-5" x1="58.02" y1="503.11" x2="772.65" y2="503.11"/><line class="cls-5" x1="58.02" y1="480.05" x2="772.65" y2="480.05"/><line class="cls-5" x1="58.02" y1="456.99" x2="772.65" y2="456.99"/><line class="cls-5" x1="58.02" y1="433.93" x2="772.65" y2="433.93"/><line class="cls-5" x1="58.02" y1="410.87" x2="772.65" y2="410.87"/><line class="cls-5" x1="58.02" y1="387.82" x2="772.65" y2="387.82"/><line class="cls-5" x1="58.02" y1="364.76" x2="772.65" y2="364.76"/><line class="cls-5" x1="58.02" y1="341.7" x2="772.65" y2="341.7"/><line class="cls-5" x1="58.02" y1="318.64" x2="772.65" y2="318.64"/><line class="cls-5" x1="58.02" y1="295.58" x2="772.65" y2="295.58"/><line class="cls-5" x1="58.02" y1="272.52" x2="772.65" y2="272.52"/><line class="cls-5" x1="58.02" y1="249.46" x2="772.65" y2="249.46"/><line class="cls-5" x1="58.02" y1="226.4" x2="772.65" y2="226.4"/><line class="cls-5" x1="58.02" y1="203.34" x2="772.65" y2="203.34"/><line class="cls-5" x1="58.02" y1="180.29" x2="772.65" y2="180.29"/><line class="cls-5" x1="58.02" y1="157.23" x2="772.65" y2="157.23"/><line class="cls-5" x1="58.02" y1="134.17" x2="772.65" y2="134.17"/><line class="cls-5" x1="58.02" y1="111.11" x2="772.65" y2="111.11"/><path class="cls-9" d="m69.57,687.58h-4.96"/><path class="cls-8" d="m741.04,664.52H64.61"/><path class="cls-9" d="m69.57,641.46h-4.96"/><path class="cls-9" d="m69.57,618.4h-4.96"/><path class="cls-9" d="m69.57,595.35h-4.96"/><path class="cls-8" d="m741.04,572.29H64.61"/><path class="cls-9" d="m69.57,549.23h-4.96"/><path class="cls-9" d="m69.57,526.17h-4.96"/><path class="cls-9" d="m69.57,503.11h-4.96"/><path class="cls-9" d="m69.57,480.05h-4.96"/><path class="cls-8" d="m741.04,456.99H64.61"/><path class="cls-9" d="m69.57,433.93h-4.96"/><path class="cls-9" d="m69.57,410.87h-4.96"/><path class="cls-9" d="m69.57,387.82h-4.96"/><path class="cls-9" d="m69.57,364.76h-4.96"/><path class="cls-8" d="m741.04,341.7H64.61"/><path class="cls-9" d="m69.57,318.64h-4.96"/><path class="cls-9" d="m69.57,295.58h-4.96"/><path class="cls-9" d="m69.57,272.52h-4.96"/><path class="cls-9" d="m69.57,249.46h-4.96"/><path class="cls-8" d="m741.04,226.4H64.61"/><path class="cls-9" d="m69.57,203.34h-4.96"/><path class="cls-9" d="m69.57,180.29h-4.96"/><path class="cls-9" d="m69.57,157.23h-4.96"/><path class="cls-9" d="m69.57,134.17h-4.96"/><path class="cls-8" d="m741.04,111.11H64.61"/><text class="cls-13" transform="translate(24.11 664.69)"><tspan x="0" y="0">0.2</tspan></text><text class="cls-13" transform="translate(35.49 572.45)"><tspan x="0" y="0">1°</tspan></text><text class="cls-13" transform="translate(35.49 457.16)"><tspan x="0" y="0">2°</tspan></text><text class="cls-13" transform="translate(35.49 341.86)"><tspan x="0" y="0">3°</tspan></text><text class="cls-13" transform="translate(35.49 226.57)"><tspan x="0" y="0">4°</tspan></text><text class="cls-13" transform="translate(35.49 111.27)"><tspan x="0" y="0">5°</tspan></text><line class="cls-5" x1="105.98" y1="111.11" x2="105.98" y2="687.58"/><line class="cls-5" x1="153.94" y1="111.11" x2="153.94" y2="687.58"/><line class="cls-5" x1="201.9" y1="111.11" x2="201.9" y2="687.58"/><line class="cls-5" x1="249.87" y1="111.11" x2="249.87" y2="687.58"/><line class="cls-5" x1="297.82" y1="111.11" x2="297.82" y2="687.58"/><line class="cls-5" x1="345.79" y1="111.11" x2="345.79" y2="687.58"/><line class="cls-5" x1="393.75" y1="111.11" x2="393.75" y2="687.58"/><line class="cls-5" x1="441.72" y1="111.11" x2="441.72" y2="687.58"/><line class="cls-5" x1="489.67" y1="111.11" x2="489.67" y2="687.58"/><line class="cls-5" x1="537.64" y1="111.11" x2="537.64" y2="687.58"/><line class="cls-5" x1="585.6" y1="111.11" x2="585.6" y2="687.58"/><line class="cls-5" x1="633.57" y1="111.11" x2="633.57" y2="687.58"/><line class="cls-5" x1="681.52" y1="111.11" x2="681.52" y2="687.58"/><line class="cls-5" x1="729.49" y1="111.11" x2="729.49" y2="687.58"/><path class="cls-9" d="m117.53,687.58v4.96"/><path class="cls-9" d="m165.5,687.58v4.96"/><path class="cls-9" d="m213.45,687.58v4.96"/><path class="cls-9" d="m261.42,687.58v4.96"/><path class="cls-9" d="m309.38,687.58v4.96"/><path class="cls-9" d="m357.35,687.58v4.96"/><path class="cls-9" d="m405.3,687.58v4.96"/><path class="cls-9" d="m453.27,687.58v4.96"/><path class="cls-9" d="m501.23,687.58v4.96"/><path class="cls-9" d="m549.2,687.58v4.96"/><path class="cls-9" d="m597.15,687.58v4.96"/><path class="cls-9" d="m645.12,687.58v4.96"/><path class="cls-9" d="m693.08,687.58v4.96"/><path class="cls-9" d="m741.04,687.58v4.96"/><text class="cls-13" transform="translate(60.37 700.9)"><tspan x="0" y="0">1950</tspan></text><text class="cls-13" transform="translate(156.3 700.9)"><tspan x="0" y="0">1970</tspan></text><text class="cls-13" transform="translate(252.22 700.9)"><tspan x="0" y="0">1990</tspan></text><text class="cls-13" transform="translate(348.15 700.9)"><tspan x="0" y="0">2010</tspan></text><text class="cls-13" transform="translate(444.07 700.9)"><tspan x="0" y="0">2030</tspan></text><text class="cls-13" transform="translate(540 700.9)"><tspan x="0" y="0">2050</tspan></text><text class="cls-13" transform="translate(635.92 700.9)"><tspan x="0" y="0">2070</tspan></text><text class="cls-13" transform="translate(731.84 700.9)"><tspan x="0" y="0">2090</tspan></text><path class="cls-7" d="m69.57,658.5l4.79-2.59,4.79.05,4.81,2.41,4.79.81,4.79-3.09,4.79.34,4.81.25,4.79,1.1,4.79.05,4.79-2.04,4.81-.33,4.79,4.1,4.79,11.19,4.79,9.05,4.81-2.5,4.79-5.48,4.79.53,4.79-3.58,4.81-3.98,4.79-1.59,4.79-1.95,4.79,2.99,4.81-2.75,4.79-2.33,4.79,4.02,4.79-.91,4.81-6.76,4.79-.42,4.79-3.39,4.79-4.14,4.81-3.54,4.79,4.67,4.79,12.17,4.79-8.22,4.81-5.95,4.79-3.87,4.79-5.67,4.79-3.92,4.81-5.17,4.79-8.08,4.79,2.46,4.79,31.45,4.81-6.46,4.79-11.76,4.79-4.67,4.79-8.61,4.81-8.36,4.79-.88,4.79-4.17,4.79-6.16,4.81-7.31,4.79-2.49,4.79-4.13,4.79-1.13,4.81-2.1,4.79-1.71,4.79-3.41,4.79-1.63,4.81-2.17,4.79-4.73,4.79-3.89,4.79-2.88,4.81-2.72,4.79-1.74"/><path class="cls-1" d="m381.32,560.9l4.79-2.82,4.81-2.95,4.79-3.04,4.79-2.93,4.79-2.87,4.81-3.03,4.79-2.91,4.79-2.66,4.79-2.47,4.81-2.58,4.79-2.64,4.79-2.48,4.79-2.19,4.81-2.17,4.79-2.01,4.79-1.8,4.79-1.73,4.81-1.59,4.79-1.33,4.79-1.23,4.79-1.15,4.81-.95,4.79-.82,4.79-.89,4.79-.76,4.81-.52,4.79-.53,4.79-.47,4.79-.41,4.81-.2,4.79.11,4.79.02,4.79.03,4.81.07,4.79.08,4.79.09,4.79.21,4.81.18,4.79.15,4.79.32,4.79.45,4.81.4,4.79.29,4.79.42,4.79.42,4.81.39,4.79.4,4.79.48,4.79.47,4.81.51,4.79.31,4.79.4,4.79.45,4.81.47,4.79.43,4.79.4,4.79.43,4.81.38,4.79.37,4.79.27,4.79.4,4.81.43,4.79.54,4.79.66,4.79.63,4.81.49,4.79.47,4.79.48,4.79.52,4.81.34,4.79.52,4.79.53,4.79.57,4.81.65,4.79.69,4.79.41,4.79.38,4.81.44,4.79.44,4.79.43,4.79.42,4.81.43,4.79.44,4.79.4"/><text class="cls-12" transform="translate(792.94 529.85)"><tspan x="0" y="0">SSP1-1.9</tspan></text><path class="cls-3" d="m381.32,560.84l4.79-2.96,4.81-3.02,4.79-2.97,4.79-2.93,4.79-3.06,4.81-2.92,4.79-2.84,4.79-2.65,4.79-2.7,4.81-2.93,4.79-2.54,4.79-2.67,4.79-2.48,4.81-2.59,4.79-2.42,4.79-2.27,4.79-2.16,4.81-2.12,4.79-1.92,4.79-1.79,4.79-1.78,4.81-1.64,4.79-1.75,4.79-1.72,4.79-1.49,4.81-1.47,4.79-1.47,4.79-1.44,4.79-1.07,4.81-1.17,4.79-1.27,4.79-1.11,4.79-.88,4.81-.92,4.79-.9,4.79-1.02,4.79-.88,4.81-.81,4.79-.76,4.79-.69,4.79-.65,4.81-.55,4.79-.45,4.79-.43,4.79-.54,4.81-.36,4.79-.25,4.79-.43,4.79-.35,4.81-.31,4.79-.16,4.79.03,4.79-.05,4.81-.25,4.79.08,4.79.04,4.79-.05,4.81.11,4.79.05,4.79.07,4.79.07,4.81.19,4.79.32,4.79.15,4.79.38,4.81.24,4.79.35,4.79.38,4.79.31,4.81.38,4.79.28,4.79.37,4.79.52,4.81.43,4.79.24,4.79.51,4.79.51,4.81.41,4.79.44,4.79.4,4.79.48,4.81.37,4.79.48,4.79.44"/><text class="cls-15" transform="translate(792.94 488.86)"><tspan x="0" y="0">SSP1-2.6</tspan></text><path class="cls-2" d="m381.32,560.39l4.79-2.73,4.81-2.88,4.79-2.92,4.79-2.96,4.79-3.12,4.81-2.98,4.79-2.94,4.79-2.92,4.79-3.02,4.81-2.86,4.79-2.72,4.79-2.81,4.79-3.14,4.81-2.91,4.79-2.87,4.79-2.68,4.79-2.68,4.81-2.53,4.79-2.46,4.79-2.46,4.79-2.65,4.81-2.74,4.79-2.8,4.79-2.76,4.79-2.67,4.81-2.84,4.79-2.85,4.79-2.89,4.79-2.58,4.81-2.5,4.79-2.74,4.79-2.93,4.79-2.51,4.81-2.38,4.79-2.7,4.79-3.17,4.79-2.44,4.81-2.6,4.79-2.49,4.79-2.6,4.79-2.62,4.81-2.36,4.79-2.36,4.79-2.38,4.79-2.26,4.81-2.43,4.79-2.21,4.79-2.31,4.79-2.29,4.81-2.09,4.79-2.06,4.79-1.97,4.79-2.06,4.81-2.03,4.79-1.82,4.79-1.86,4.79-2.29,4.81-1.75,4.79-2.3,4.79-1.86,4.79-1.42,4.81-2.3,4.79-1.81,4.79-1.58,4.79-1.65,4.81-1.64,4.79-1.75,4.79-1.69,4.79-1.69,4.81-1.67,4.79-1.65,4.79-1.6,4.79-1.5,4.81-1.32,4.79-1.29,4.79-1.7,4.79-1.21,4.81-1.34,4.79-1.31,4.79-1.32,4.79-1.33,4.81-1.03,4.79-1.1,4.79-.96"/><text class="cls-11" transform="translate(792.94 370.74)"><tspan x="0" y="0">SSP2-4.5</tspan></text><path class="cls-4" d="m381.32,561.41l4.79-2.72,4.81-2.94,4.79-3.04,4.79-2.88,4.79-2.92,4.81-3.05,4.79-3.01,4.79-2.99,4.79-2.92,4.81-2.91,4.79-3.06,4.79-3.17,4.79-3.33,4.81-3.24,4.79-3.23,4.79-3.36,4.79-3.33,4.81-3.25,4.79-3.17,4.79-3.21,4.79-3.43,4.81-3.57,4.79-3.44,4.79-3.36,4.79-3.67,4.81-3.89,4.79-3.7,4.79-3.35,4.79-3.61,4.81-3.78,4.79-3.87,4.79-3.73,4.79-3.56,4.81-3.33,4.79-3.99,4.79-3.76,4.79-3.83,4.81-3.9,4.79-3.99,4.79-3.84,4.79-3.7,4.81-3.84,4.79-4,4.79-4.07,4.79-4.01,4.81-3.98,4.79-4.26,4.79-4.23,4.79-4.31,4.81-4.35,4.79-4.26,4.79-4.27,4.79-3.95,4.81-4,4.79-3.98,4.79-4.38,4.79-4.43,4.81-4.23,4.79-4.35,4.79-4.32,4.79-4.68,4.81-4.37,4.79-4.2,4.79-4.44,4.79-4.62,4.81-4.3,4.79-4.16,4.79-4.47,4.79-4.52,4.81-4.5,4.79-4.35,4.79-4.52,4.79-4.77,4.81-4.59,4.79-4.39,4.79-4.46,4.79-4.5,4.81-4.48,4.79-4.26,4.79-4.29,4.79-4.38,4.81-4.46,4.79-4.3,4.79-4.19"/><text class="cls-14" transform="translate(792.94 236.93)"><tspan x="0" y="0">SSP3-7.0</tspan></text><path class="cls-6" d="m381.32,559.59l4.79-3.08,4.81-3.38,4.79-3.36,4.79-3.3,4.79-3.44,4.81-3.43,4.79-3.75,4.79-3.55,4.79-3.46,4.81-3.79,4.79-3.72,4.79-3.84,4.79-3.9,4.81-3.99,4.79-3.84,4.79-3.86,4.79-3.9,4.81-3.88,4.79-4.02,4.79-4.03,4.79-4.08,4.81-4.01,4.79-4.15,4.79-4.44,4.79-4.68,4.81-4.67,4.79-4.37,4.79-4.69,4.79-4.87,4.81-4.76,4.79-4.84,4.79-4.82,4.79-4.77,4.81-5,4.79-5.12,4.79-5.13,4.79-5.3,4.81-5.47,4.79-5.16,4.79-4.87,4.79-5.32,4.81-5.61,4.79-5.13,4.79-5.14,4.79-4.56,4.81-5.56,4.79-5.58,4.79-5.62,4.79-5.42,4.81-5.45,4.79-5.75,4.79-5.58,4.79-5.32,4.81-5.63,4.79-5.78,4.79-5.75,4.79-5.4,4.81-5.79,4.79-5.98,4.79-5.79,4.79-5.77,4.81-5.88,4.79-5.74,4.79-6.27,4.79-5.84,4.81-5.65,4.79-6.02,4.79-6.17,4.79-5.93,4.81-5.96,4.79-5.87,4.79-6,4.79-6.07,4.81-5.93,4.79-5.86,4.79-5.83,4.79-5.89,4.81-5.65,4.79-5.59,4.79-5.71,4.79-5.54,4.81-5.51,4.79-5.21,4.79-5.19"/><text class="cls-10" transform="translate(792.94 141.7)"><tspan x="0" y="0">SSP5-8.5</tspan></text></svg>