<?xml version="1.0" encoding="UTF-8"?><svg xmlns="http://www.w3.org/2000/svg" xmlns:xlink="http://www.w3.org/1999/xlink" viewBox="0 0 800 533.17"><defs><mask id="mask" x="57.99" y="27.34" width="476.13" height="476.13" maskUnits="userSpaceOnUse"><circle cx="296.06" cy="265.41" r="238.07" style="fill:#fff; stroke-width:0px;"/><circle cx="296.06" cy="265.41" r="158.93" style="fill:#231f20; stroke-width:0px;"/></mask></defs><g id="Layer_1"><rect x="579.24" y="166.07" width="62.38" height="49.9" style="fill:#4a459c; stroke-width:0px;"/><rect x="579.24" y="240.92" width="62.38" height="49.9" style="fill:#5a50a2; stroke-width:0px;"/><rect x="579.24" y="315.77" width="62.38" height="49.9" style="fill:#6e60aa; stroke-width:0px;"/><g style="mask:url(#mask);"><path d="m294.55,265.87l-218.18-7.62c4.09-117.12,100.98-210.69,218.18-210.69v218.31Z" style="fill:#4a459c; stroke-width:0px;"/><path d="m294.55,265.87l-52.81,211.83c-101.08-25.2-169-115.34-165.36-219.45l218.18,7.62Z" style="fill:#5a50a2; stroke-width:0px;"/><path d="m294.55,265.87V47.56c120.57,0,218.31,97.74,218.31,218.31s-97.74,218.31-218.31,218.31c-19.53,0-33.86-1.76-52.81-6.48l52.81-211.83Z" style="fill:#6e60aa; stroke-width:0px;"/></g><path d="m651.19,184.24c1.03-.21,2.5-.33,3.91-.33,2.17,0,3.58.4,4.56,1.29.8.7,1.24,1.78,1.24,2.99,0,2.08-1.31,3.46-2.97,4.02v.07c1.22.42,1.94,1.54,2.32,3.18.51,2.2.89,3.72,1.22,4.33h-2.11c-.26-.44-.61-1.8-1.05-3.77-.47-2.18-1.31-2.99-3.16-3.06h-1.92v6.83h-2.04v-15.56Zm2.04,7.18h2.08c2.18,0,3.56-1.19,3.56-2.99,0-2.04-1.47-2.92-3.63-2.95-.98,0-1.68.09-2.01.19v5.75Z" style="fill:#4a459c; stroke-width:0px;"/><path d="m664.94,194.51c.05,2.78,1.83,3.93,3.88,3.93,1.47,0,2.36-.26,3.13-.58l.35,1.47c-.73.33-1.97.7-3.77.7-3.49,0-5.57-2.29-5.57-5.71s2.01-6.11,5.31-6.11c3.7,0,4.68,3.25,4.68,5.33,0,.42-.05.75-.07.96h-7.95Zm6.04-1.47c.02-1.31-.54-3.35-2.85-3.35-2.08,0-2.99,1.92-3.16,3.35h6.01Z" style="fill:#4a459c; stroke-width:0px;"/><path d="m675.23,197.69c.61.4,1.68.82,2.71.82,1.5,0,2.2-.75,2.2-1.68,0-.98-.58-1.52-2.1-2.08-2.04-.73-2.99-1.85-2.99-3.2,0-1.82,1.47-3.32,3.91-3.32,1.15,0,2.15.33,2.78.7l-.51,1.5c-.44-.28-1.26-.66-2.32-.66-1.22,0-1.89.7-1.89,1.54,0,.94.68,1.36,2.15,1.92,1.96.75,2.97,1.73,2.97,3.42,0,1.99-1.54,3.39-4.23,3.39-1.24,0-2.39-.3-3.18-.77l.51-1.57Z" style="fill:#4a459c; stroke-width:0px;"/><path d="m687.07,185.29c.02.7-.49,1.26-1.31,1.26-.73,0-1.24-.56-1.24-1.26s.54-1.29,1.29-1.29,1.26.56,1.26,1.29Zm-2.29,14.5v-11.32h2.06v11.32h-2.06Z" style="fill:#4a459c; stroke-width:0px;"/><path d="m689.97,197.69c.61.4,1.68.82,2.71.82,1.5,0,2.2-.75,2.2-1.68,0-.98-.58-1.52-2.1-2.08-2.04-.73-2.99-1.85-2.99-3.2,0-1.82,1.47-3.32,3.91-3.32,1.15,0,2.15.33,2.78.7l-.51,1.5c-.44-.28-1.26-.66-2.32-.66-1.22,0-1.89.7-1.89,1.54,0,.94.68,1.36,2.15,1.92,1.96.75,2.97,1.73,2.97,3.42,0,1.99-1.54,3.39-4.23,3.39-1.24,0-2.39-.3-3.18-.77l.51-1.57Z" style="fill:#4a459c; stroke-width:0px;"/><path d="m701.99,185.22v3.25h2.95v1.57h-2.95v6.11c0,1.4.4,2.2,1.54,2.2.54,0,.94-.07,1.19-.14l.09,1.54c-.4.16-1.03.28-1.82.28-.96,0-1.73-.3-2.22-.87-.58-.61-.79-1.61-.79-2.95v-6.18h-1.75v-1.57h1.75v-2.71l2.01-.54Z" style="fill:#4a459c; stroke-width:0px;"/><path d="m713.52,199.79l-.16-1.43h-.07c-.63.89-1.85,1.68-3.46,1.68-2.29,0-3.46-1.61-3.46-3.25,0-2.74,2.43-4.23,6.81-4.21v-.23c0-.94-.26-2.62-2.57-2.62-1.05,0-2.15.33-2.95.84l-.47-1.36c.94-.61,2.29-1.01,3.72-1.01,3.46,0,4.3,2.36,4.3,4.63v4.23c0,.98.05,1.94.19,2.71h-1.87Zm-.3-5.78c-2.25-.05-4.8.35-4.8,2.55,0,1.33.89,1.96,1.94,1.96,1.47,0,2.41-.94,2.74-1.89.07-.21.12-.44.12-.66v-1.96Z" style="fill:#4a459c; stroke-width:0px;"/><path d="m718.53,191.54c0-1.17-.02-2.13-.09-3.06h1.82l.12,1.87h.05c.56-1.08,1.87-2.13,3.74-2.13,1.57,0,4,.94,4,4.82v6.76h-2.06v-6.53c0-1.82-.68-3.34-2.62-3.34-1.36,0-2.41.96-2.76,2.1-.09.26-.14.61-.14.96v6.81h-2.06v-8.26Z" style="fill:#4a459c; stroke-width:0px;"/><path d="m739.58,199.37c-.54.28-1.73.65-3.25.65-3.42,0-5.64-2.32-5.64-5.78s2.39-6.01,6.08-6.01c1.22,0,2.29.3,2.85.58l-.47,1.59c-.49-.28-1.26-.54-2.39-.54-2.6,0-4,1.92-4,4.28,0,2.62,1.68,4.23,3.93,4.23,1.17,0,1.94-.3,2.53-.56l.35,1.54Z" style="fill:#4a459c; stroke-width:0px;"/><path d="m742.99,194.51c.05,2.78,1.83,3.93,3.88,3.93,1.47,0,2.36-.26,3.13-.58l.35,1.47c-.73.33-1.97.7-3.77.7-3.49,0-5.57-2.29-5.57-5.71s2.01-6.11,5.31-6.11c3.7,0,4.68,3.25,4.68,5.33,0,.42-.05.75-.07.96h-7.95Zm6.04-1.47c.02-1.31-.54-3.35-2.85-3.35-2.08,0-2.99,1.92-3.16,3.35h6.01Z" style="fill:#4a459c; stroke-width:0px;"/><path d="m651.19,259.09c1.03-.21,2.5-.33,3.91-.33,2.17,0,3.58.4,4.56,1.29.8.7,1.24,1.78,1.24,2.99,0,2.08-1.31,3.46-2.97,4.02v.07c1.22.42,1.94,1.54,2.32,3.18.51,2.2.89,3.72,1.22,4.33h-2.11c-.26-.44-.61-1.8-1.05-3.77-.47-2.18-1.31-2.99-3.16-3.06h-1.92v6.83h-2.04v-15.56Zm2.04,7.18h2.08c2.18,0,3.56-1.19,3.56-2.99,0-2.04-1.47-2.92-3.63-2.95-.98,0-1.68.09-2.01.19v5.75Z" style="fill:#5a50a2; stroke-width:0px;"/><path d="m664.94,269.36c.05,2.78,1.83,3.93,3.88,3.93,1.47,0,2.36-.26,3.13-.58l.35,1.47c-.73.33-1.97.7-3.77.7-3.49,0-5.57-2.29-5.57-5.71s2.01-6.11,5.31-6.11c3.7,0,4.68,3.25,4.68,5.33,0,.42-.05.75-.07.96h-7.95Zm6.04-1.47c.02-1.31-.54-3.35-2.85-3.35-2.08,0-2.99,1.92-3.16,3.35h6.01Z" style="fill:#5a50a2; stroke-width:0px;"/><path d="m683.58,274.22c-.54.28-1.73.66-3.25.66-3.42,0-5.64-2.32-5.64-5.78s2.39-6.01,6.08-6.01c1.22,0,2.29.3,2.85.58l-.47,1.59c-.49-.28-1.26-.54-2.39-.54-2.6,0-4,1.92-4,4.28,0,2.62,1.68,4.23,3.93,4.23,1.17,0,1.94-.3,2.53-.56l.35,1.54Z" style="fill:#5a50a2; stroke-width:0px;"/><path d="m696.1,268.89c0,4.19-2.9,6.01-5.64,6.01-3.06,0-5.43-2.25-5.43-5.82,0-3.79,2.48-6.01,5.61-6.01s5.45,2.36,5.45,5.83Zm-8.98.12c0,2.48,1.43,4.35,3.44,4.35s3.44-1.85,3.44-4.4c0-1.92-.96-4.35-3.39-4.35s-3.49,2.25-3.49,4.4Z" style="fill:#5a50a2; stroke-width:0px;"/><path d="m699.33,263.32l2.22,6.36c.37,1.03.68,1.96.91,2.9h.07c.26-.94.58-1.87.96-2.9l2.2-6.36h2.15l-4.44,11.32h-1.96l-4.3-11.32h2.2Z" style="fill:#5a50a2; stroke-width:0px;"/><path d="m710.69,269.36c.05,2.78,1.83,3.93,3.88,3.93,1.47,0,2.36-.26,3.13-.58l.35,1.47c-.73.33-1.97.7-3.77.7-3.49,0-5.57-2.29-5.57-5.71s2.01-6.11,5.31-6.11c3.7,0,4.68,3.25,4.68,5.33,0,.42-.05.75-.07.96h-7.95Zm6.04-1.47c.02-1.31-.54-3.35-2.85-3.35-2.08,0-2.99,1.92-3.16,3.35h6.01Z" style="fill:#5a50a2; stroke-width:0px;"/><path d="m721.26,266.86c0-1.33-.02-2.48-.09-3.53h1.8l.07,2.22h.09c.51-1.52,1.75-2.48,3.13-2.48.23,0,.4.02.58.07v1.94c-.21-.05-.42-.07-.7-.07-1.45,0-2.48,1.1-2.76,2.64-.05.28-.09.61-.09.96v6.04h-2.03v-7.79Z" style="fill:#5a50a2; stroke-width:0px;"/><path d="m730.25,263.32l2.48,6.69c.26.75.54,1.64.73,2.32h.05c.21-.68.44-1.54.72-2.36l2.25-6.64h2.17l-3.09,8.07c-1.47,3.88-2.48,5.87-3.88,7.09-1.01.89-2.01,1.24-2.53,1.33l-.51-1.73c.51-.16,1.19-.49,1.8-1.01.56-.44,1.26-1.24,1.73-2.29.09-.21.16-.38.16-.49s-.05-.28-.14-.54l-4.19-10.43h2.25Z" style="fill:#5a50a2; stroke-width:0px;"/><path d="m653.74,344.54l-1.64,4.96h-2.11l5.36-15.77h2.46l5.38,15.77h-2.17l-1.68-4.96h-5.59Zm5.17-1.59l-1.54-4.54c-.35-1.03-.58-1.96-.82-2.88h-.05c-.23.94-.49,1.89-.8,2.85l-1.54,4.56h4.75Z" style="fill:#6e60aa; stroke-width:0px;"/><path d="m665.74,338.17l2.22,6.36c.37,1.03.68,1.96.91,2.9h.07c.26-.94.58-1.87.96-2.9l2.2-6.36h2.15l-4.44,11.32h-1.96l-4.3-11.32h2.2Z" style="fill:#6e60aa; stroke-width:0px;"/><path d="m686.2,343.74c0,4.19-2.9,6.01-5.64,6.01-3.06,0-5.43-2.25-5.43-5.82,0-3.79,2.48-6.01,5.61-6.01s5.45,2.36,5.45,5.83Zm-8.98.12c0,2.48,1.43,4.35,3.44,4.35s3.44-1.85,3.44-4.4c0-1.92-.96-4.35-3.39-4.35s-3.49,2.25-3.49,4.4Z" style="fill:#6e60aa; stroke-width:0px;"/><path d="m691.09,334.99c.02.7-.49,1.26-1.31,1.26-.73,0-1.24-.56-1.24-1.26s.54-1.29,1.29-1.29,1.26.56,1.26,1.29Zm-2.29,14.5v-11.32h2.06v11.32h-2.06Z" style="fill:#6e60aa; stroke-width:0px;"/><path d="m704.05,332.89v13.68c0,1.01.02,2.15.09,2.92h-1.85l-.09-1.96h-.05c-.63,1.26-2.01,2.22-3.86,2.22-2.74,0-4.84-2.32-4.84-5.75-.02-3.77,2.32-6.08,5.08-6.08,1.73,0,2.9.82,3.42,1.73h.05v-6.76h2.06Zm-2.06,9.89c0-.26-.02-.61-.09-.87-.3-1.31-1.43-2.39-2.97-2.39-2.13,0-3.39,1.87-3.39,4.37,0,2.29,1.12,4.19,3.34,4.19,1.38,0,2.64-.91,3.02-2.46.07-.28.09-.56.09-.89v-1.97Z" style="fill:#6e60aa; stroke-width:0px;"/><path d="m713.73,349.5l-.16-1.43h-.07c-.63.89-1.85,1.68-3.46,1.68-2.29,0-3.46-1.61-3.46-3.25,0-2.74,2.43-4.23,6.81-4.21v-.23c0-.94-.26-2.62-2.57-2.62-1.05,0-2.15.33-2.95.84l-.47-1.36c.94-.61,2.29-1.01,3.72-1.01,3.46,0,4.3,2.36,4.3,4.63v4.23c0,.98.05,1.94.19,2.71h-1.87Zm-.3-5.78c-2.25-.05-4.8.35-4.8,2.55,0,1.33.89,1.97,1.94,1.97,1.47,0,2.41-.94,2.74-1.9.07-.21.12-.44.12-.65v-1.96Z" style="fill:#6e60aa; stroke-width:0px;"/><path d="m718.74,341.24c0-1.17-.02-2.13-.09-3.06h1.82l.12,1.87h.05c.56-1.08,1.87-2.13,3.74-2.13,1.57,0,4,.94,4,4.82v6.76h-2.06v-6.53c0-1.82-.68-3.34-2.62-3.34-1.36,0-2.41.96-2.76,2.11-.09.26-.14.61-.14.96v6.81h-2.06v-8.26Z" style="fill:#6e60aa; stroke-width:0px;"/><path d="m739.79,349.07c-.54.28-1.73.66-3.25.66-3.42,0-5.64-2.32-5.64-5.78s2.39-6.01,6.08-6.01c1.22,0,2.29.3,2.85.58l-.47,1.59c-.49-.28-1.26-.54-2.39-.54-2.6,0-4,1.92-4,4.28,0,2.62,1.68,4.23,3.93,4.23,1.17,0,1.94-.3,2.53-.56l.35,1.54Z" style="fill:#6e60aa; stroke-width:0px;"/><path d="m743.2,344.21c.05,2.78,1.83,3.93,3.88,3.93,1.47,0,2.36-.26,3.13-.58l.35,1.47c-.73.33-1.97.7-3.77.7-3.49,0-5.57-2.29-5.57-5.71s2.01-6.11,5.31-6.11c3.7,0,4.68,3.25,4.68,5.33,0,.42-.05.75-.07.96h-7.95Zm6.04-1.47c.02-1.31-.54-3.35-2.85-3.35-2.08,0-2.99,1.92-3.16,3.35h6.01Z" style="fill:#6e60aa; stroke-width:0px;"/></g><g id="Layer_3"><path d="m604.65,197.56c.68.07,1.48,0,2.56-.11,1.83-.25,3.56-1.01,4.89-2.27,1.55-1.4,2.66-3.46,3.1-6.23h-.11c-1.3,1.58-3.17,2.52-5.51,2.52-4.21,0-6.91-3.17-6.91-7.16,0-4.43,3.2-8.31,7.99-8.31s7.74,3.89,7.74,9.86c0,5.15-1.73,8.75-4.03,10.98-1.8,1.76-4.28,2.84-6.8,3.13-1.15.18-2.16.22-2.92.18v-2.59Zm1.15-13.46c0,2.92,1.76,4.97,4.5,4.97,2.12,0,3.78-1.04,4.61-2.45.18-.29.29-.65.29-1.15,0-4-1.48-7.06-4.79-7.06-2.7,0-4.61,2.38-4.61,5.69Z" style="fill:#fff; stroke-width:0px;"/><path d="m602.52,268.71c0-2.95,1.76-5.04,4.64-6.26l-.04-.11c-2.59-1.22-3.71-3.24-3.71-5.26,0-3.71,3.13-6.23,7.24-6.23,4.54,0,6.8,2.84,6.8,5.76,0,1.98-.97,4.1-3.85,5.47v.11c2.92,1.15,4.72,3.2,4.72,6.05,0,4.07-3.49,6.8-7.96,6.8-4.9,0-7.85-2.92-7.85-6.34Zm12.6-.14c0-2.84-1.98-4.21-5.15-5.11-2.74.79-4.21,2.59-4.21,4.82-.11,2.38,1.69,4.46,4.68,4.46s4.68-1.76,4.68-4.18Zm-8.71-11.7c0,2.34,1.76,3.6,4.46,4.32,2.02-.68,3.56-2.12,3.56-4.25,0-1.87-1.12-3.82-3.96-3.82-2.63,0-4.07,1.73-4.07,3.74Z" style="fill:#fff; stroke-width:0px;"/><path d="m593.58,351.6v-1.94l2.48-2.41c5.98-5.69,8.67-8.71,8.71-12.24,0-2.38-1.15-4.57-4.64-4.57-2.12,0-3.89,1.08-4.97,1.98l-1.01-2.23c1.62-1.37,3.92-2.38,6.62-2.38,5.04,0,7.16,3.46,7.16,6.8,0,4.32-3.13,7.81-8.06,12.56l-1.87,1.73v.07h10.51v2.63h-14.94Z" style="fill:#fff; stroke-width:0px;"/><path d="m627.59,339.65c0,7.96-2.95,12.35-8.13,12.35-4.57,0-7.67-4.28-7.74-12.02,0-7.85,3.38-12.17,8.13-12.17s7.74,4.39,7.74,11.84Zm-12.71.36c0,6.08,1.87,9.54,4.75,9.54,3.24,0,4.79-3.78,4.79-9.75s-1.48-9.54-4.75-9.54c-2.77,0-4.79,3.38-4.79,9.75Z" style="fill:#fff; stroke-width:0px;"/></g></svg>