<?xml version="1.0" encoding="UTF-8"?><svg xmlns="http://www.w3.org/2000/svg" xmlns:xlink="http://www.w3.org/1999/xlink" viewBox="0 0 800 533.17"><defs><mask id="mask" x="169.52" y="29.05" width="476.13" height="476.13" maskUnits="userSpaceOnUse"><circle cx="407.58" cy="267.12" r="238.07" style="fill:#fff; stroke-width:0px;"/><circle cx="407.58" cy="267.12" r="158.93" style="fill:#231f20; stroke-width:0px;"/></mask></defs><g id="Layer_1"><rect x="37.37" y="79.41" width="62.38" height="49.9" style="fill:#4a459c; stroke-width:0px;"/><rect x="85.19" y="429.51" width="62.38" height="49.9" style="fill:#5a50a2; stroke-width:0px;"/><rect x="589.3" y="49.27" width="62.38" height="49.9" style="fill:#6e60aa; stroke-width:0px;"/><g style="mask:url(#mask);"><path d="m406.07,267.58l-218.18-7.62c4.09-117.12,100.98-210.69,218.18-210.69v218.31Z" style="fill:#4a459c; stroke-width:0px;"/><path d="m406.07,267.58l-52.81,211.83c-101.08-25.2-169-115.34-165.36-219.45l218.18,7.62Z" style="fill:#5a50a2; stroke-width:0px;"/><path d="m406.07,267.58V49.27c120.57,0,218.31,97.74,218.31,218.31s-97.74,218.31-218.31,218.31c-19.53,0-33.86-1.76-52.81-6.48l52.81-211.83Z" style="fill:#6e60aa; stroke-width:0px;"/></g><path d="m108.94,113.13v-16.37h6.78c1.23,0,2.32.24,3.27.71s1.7,1.13,2.23,1.96.81,1.8.81,2.89-.27,2.06-.81,2.91-1.28,1.51-2.23,1.99-2.04.71-3.27.71h-2.46v5.19h-4.33Zm4.33-9.17h2.22c.39,0,.73-.07,1.03-.21.3-.14.53-.33.7-.58.17-.25.26-.53.26-.84,0-.47-.18-.85-.55-1.16-.37-.3-.85-.46-1.44-.46h-2.22v3.25Zm4.47,9.17l-3.65-6.43,3.25-2.43,5.36,8.87h-4.96Z" style="fill:#4a459c; stroke-width:0px;"/><path d="m130.02,113.41c-1.26,0-2.39-.26-3.37-.77s-1.75-1.23-2.3-2.15c-.55-.92-.83-1.99-.83-3.2s.27-2.28.82-3.21c.55-.92,1.3-1.64,2.27-2.15.97-.51,2.08-.77,3.34-.77s2.26.26,3.17.78,1.63,1.31,2.15,2.37.78,2.4.78,4.02h-8.75l.51-.61c0,.5.08.94.23,1.31.16.37.39.66.7.87.31.2.69.3,1.15.3.51,0,.96-.12,1.34-.36.38-.24.62-.54.71-.9l3.7,1.15c-.28.81-.73,1.46-1.34,1.95s-1.3.84-2.06,1.05c-.76.21-1.5.32-2.23.32Zm-2.18-6.97l-.44-.68h4.84l-.42.68c0-.61-.1-1.08-.3-1.43-.2-.34-.46-.59-.76-.74-.3-.15-.61-.22-.92-.22-.33,0-.64.07-.95.22s-.55.39-.75.74c-.2.34-.29.82-.29,1.43Z" style="fill:#4a459c; stroke-width:0px;"/><path d="m141.76,113.41c-.78,0-1.5-.11-2.18-.33-.67-.22-1.24-.53-1.72-.92-.48-.4-.81-.88-.99-1.44l3.34-1.31c.17.42.41.69.72.81.31.12.58.17.82.17.25,0,.45-.05.61-.16.16-.11.23-.27.23-.47,0-.22-.11-.4-.33-.55-.22-.15-.55-.28-1.01-.39l-.96-.23c-1.04-.26-1.83-.72-2.36-1.38-.53-.66-.8-1.42-.8-2.29,0-1.2.44-2.13,1.32-2.78.88-.65,2.08-.98,3.59-.98.92,0,1.7.11,2.33.34.63.23,1.15.54,1.56.95s.72.87.94,1.4l-3.25,1.24c-.11-.31-.29-.54-.55-.68-.26-.14-.57-.21-.95-.21-.27,0-.47.06-.62.19s-.22.27-.22.44c0,.19.11.35.34.48.23.13.57.26,1.04.39l.96.23c.72.17,1.34.43,1.87.78s.94.78,1.24,1.3c.3.51.44,1.11.44,1.78,0,.76-.23,1.42-.68,1.95s-1.08.95-1.89,1.24c-.81.29-1.76.43-2.85.43Z" style="fill:#4a459c; stroke-width:0px;"/><path d="m151.16,100.31c-.62,0-1.17-.23-1.64-.7-.47-.47-.7-1.01-.7-1.64s.23-1.19.7-1.65,1.01-.69,1.64-.69,1.19.23,1.65.69c.46.46.69,1.01.69,1.65s-.23,1.17-.69,1.64c-.46.47-1.01.7-1.65.7Zm-2.11,12.82v-11.7h4.21v11.7h-4.21Z" style="fill:#4a459c; stroke-width:0px;"/><path d="m160.03,113.41c-.78,0-1.5-.11-2.18-.33-.67-.22-1.24-.53-1.72-.92-.48-.4-.81-.88-.99-1.44l3.34-1.31c.17.42.41.69.72.81.31.12.58.17.82.17.25,0,.45-.05.61-.16.16-.11.23-.27.23-.47,0-.22-.11-.4-.33-.55-.22-.15-.55-.28-1.01-.39l-.96-.23c-1.04-.26-1.83-.72-2.36-1.38-.53-.66-.8-1.42-.8-2.29,0-1.2.44-2.13,1.32-2.78.88-.65,2.08-.98,3.59-.98.92,0,1.7.11,2.33.34.63.23,1.15.54,1.56.95s.72.87.94,1.4l-3.25,1.24c-.11-.31-.29-.54-.55-.68-.26-.14-.57-.21-.95-.21-.27,0-.47.06-.62.19s-.22.27-.22.44c0,.19.11.35.34.48.23.13.57.26,1.04.39l.96.23c.72.17,1.34.43,1.87.78s.94.78,1.24,1.3c.3.51.44,1.11.44,1.78,0,.76-.23,1.42-.68,1.95s-1.08.95-1.89,1.24c-.81.29-1.76.43-2.85.43Z" style="fill:#4a459c; stroke-width:0px;"/><path d="m166.27,104.94v-3.51h8.37v3.51h-8.37Zm6.03,8.47c-1.45,0-2.53-.34-3.23-1.03-.7-.69-1.05-1.67-1.05-2.95v-11.65h4.21v10.5c0,.44.06.75.19.94.12.19.33.28.63.28.12,0,.28-.04.47-.12.19-.08.33-.16.44-.23l1.43,3.04c-.36.31-.83.59-1.4.84-.58.25-1.14.37-1.68.37Z" style="fill:#4a459c; stroke-width:0px;"/><path d="m180.4,113.41c-1.36,0-2.41-.31-3.17-.92-.76-.62-1.13-1.5-1.13-2.65,0-1.22.38-2.12,1.13-2.7.76-.58,1.81-.88,3.17-.88h3.44v2.41h-1.78c-.55,0-.97.09-1.26.28-.3.19-.44.45-.44.8,0,.23.1.41.3.54.2.12.48.19.84.19.39,0,.72-.07,1.01-.22.28-.15.5-.36.66-.63.16-.27.23-.59.23-.95h1.1c0,1.51-.36,2.68-1.08,3.51-.72.83-1.72,1.24-3.02,1.24Zm3.11-.28l-.12-2.69v-3.04c0-.55-.03-1.04-.09-1.47s-.22-.78-.47-1.03c-.25-.25-.65-.38-1.22-.38-.39,0-.71.09-.96.28-.25.19-.46.41-.63.65l-3.67-1.17c.33-.64.74-1.19,1.23-1.66s1.07-.83,1.73-1.09c.66-.26,1.4-.39,2.21-.39,1.25,0,2.32.23,3.2.68.89.45,1.57,1.08,2.04,1.89.47.81.7,1.75.7,2.83v6.57h-3.95Z" style="fill:#4a459c; stroke-width:0px;"/><path d="m189.45,113.13v-11.7h3.98l.23,2.15v9.54h-4.21Zm7.32-5.99c0-.45-.05-.82-.15-1.11-.1-.29-.25-.51-.44-.67-.2-.16-.44-.24-.74-.26-.59-.03-1.04.1-1.33.4-.3.3-.44.76-.44,1.4h-1.15c0-1.23.19-2.28.56-3.13.38-.86.88-1.51,1.52-1.95s1.36-.67,2.18-.67c.95,0,1.74.19,2.36.57.62.38,1.09.96,1.39,1.74.3.78.46,1.77.46,2.97v.7h-4.21Zm0,5.99v-5.99h4.21v5.99h-4.21Z" style="fill:#4a459c; stroke-width:0px;"/><path d="m208.98,113.41c-1.28,0-2.42-.26-3.42-.78-1-.52-1.78-1.25-2.34-2.18s-.84-1.98-.84-3.17.28-2.26.84-3.18c.56-.92,1.33-1.64,2.32-2.16s2.11-.78,3.39-.78,2.36.32,3.39.96c1.03.64,1.76,1.57,2.2,2.78l-4.02,1.31c-.12-.31-.35-.57-.69-.77-.34-.2-.71-.3-1.11-.3s-.73.09-1.03.27c-.3.18-.53.43-.7.76-.17.33-.26.7-.26,1.12s.09.79.26,1.11c.17.32.41.57.72.76s.66.28,1.05.28.75-.1,1.08-.3c.33-.2.56-.46.7-.77l4.02,1.29c-.44,1.22-1.17,2.15-2.19,2.79-1.02.65-2.15.97-3.38.97Z" style="fill:#4a459c; stroke-width:0px;"/><path d="m221.75,113.41c-1.26,0-2.39-.26-3.37-.77s-1.75-1.23-2.3-2.15c-.55-.92-.83-1.99-.83-3.2s.27-2.28.82-3.21c.55-.92,1.3-1.64,2.27-2.15.97-.51,2.08-.77,3.34-.77s2.26.26,3.17.78,1.63,1.31,2.15,2.37.78,2.4.78,4.02h-8.75l.51-.61c0,.5.08.94.23,1.31.16.37.39.66.7.87.31.2.69.3,1.15.3.51,0,.96-.12,1.34-.36.38-.24.62-.54.71-.9l3.7,1.15c-.28.81-.73,1.46-1.34,1.95s-1.3.84-2.06,1.05c-.76.21-1.5.32-2.23.32Zm-2.18-6.97l-.44-.68h4.84l-.42.68c0-.61-.1-1.08-.3-1.43-.2-.34-.46-.59-.76-.74-.3-.15-.61-.22-.92-.22-.33,0-.64.07-.95.22s-.55.39-.75.74c-.2.34-.29.82-.29,1.43Z" style="fill:#4a459c; stroke-width:0px;"/><path d="m156.77,463.23v-16.37h6.78c1.23,0,2.32.24,3.27.71.95.48,1.7,1.13,2.23,1.96.54.84.81,1.8.81,2.89s-.27,2.06-.81,2.91c-.54.85-1.28,1.51-2.23,1.99-.95.48-2.04.71-3.27.71h-2.46v5.19h-4.33Zm4.33-9.17h2.22c.39,0,.73-.07,1.03-.21.3-.14.53-.34.7-.59.17-.25.26-.53.26-.84,0-.47-.18-.85-.55-1.16-.37-.3-.85-.46-1.44-.46h-2.22v3.25Zm4.47,9.17l-3.65-6.43,3.25-2.43,5.36,8.87h-4.96Z" style="fill:#5a50a2; stroke-width:0px;"/><path d="m177.84,463.51c-1.26,0-2.39-.26-3.37-.77-.98-.52-1.75-1.23-2.3-2.15s-.83-1.99-.83-3.21.27-2.28.82-3.2,1.3-1.64,2.27-2.15c.97-.52,2.08-.77,3.34-.77s2.26.26,3.17.78c.91.52,1.63,1.31,2.15,2.37s.78,2.4.78,4.02h-8.75l.51-.61c0,.5.08.94.23,1.31.16.38.39.66.7.87.31.2.69.3,1.15.3.51,0,.96-.12,1.34-.36.38-.24.62-.54.71-.9l3.7,1.14c-.28.81-.73,1.46-1.34,1.95-.62.49-1.3.84-2.06,1.05-.76.21-1.5.32-2.23.32Zm-2.18-6.97l-.44-.68h4.84l-.42.68c0-.61-.1-1.08-.3-1.43-.2-.34-.46-.59-.76-.74-.3-.15-.61-.22-.92-.22-.33,0-.64.07-.95.22-.3.15-.55.39-.75.74-.2.34-.29.82-.29,1.43Z" style="fill:#5a50a2; stroke-width:0px;"/><path d="m191.18,463.51c-1.28,0-2.42-.26-3.42-.78-1-.52-1.78-1.25-2.34-2.18s-.84-1.98-.84-3.17.28-2.26.84-3.18,1.33-1.64,2.32-2.16c.98-.52,2.11-.78,3.39-.78s2.36.32,3.39.96c1.03.64,1.76,1.57,2.2,2.78l-4.02,1.31c-.12-.31-.35-.57-.69-.77-.34-.2-.71-.3-1.11-.3s-.73.09-1.03.27-.53.43-.7.76c-.17.33-.26.7-.26,1.12s.09.79.26,1.11c.17.32.41.57.72.76.31.19.66.28,1.05.28s.75-.1,1.08-.3c.33-.2.56-.46.7-.77l4.02,1.29c-.44,1.22-1.17,2.15-2.19,2.79-1.02.65-2.15.97-3.38.97Z" style="fill:#5a50a2; stroke-width:0px;"/><path d="m203.83,463.51c-1.25,0-2.35-.26-3.31-.78-.96-.52-1.71-1.24-2.26-2.16s-.82-1.98-.82-3.18.27-2.26.81-3.18,1.29-1.64,2.25-2.16c.96-.52,2.05-.78,3.29-.78s2.35.26,3.31.78c.96.52,1.71,1.24,2.25,2.16s.81,1.98.81,3.18-.27,2.26-.81,3.18-1.28,1.64-2.23,2.16c-.95.52-2.04.78-3.27.78Zm0-3.88c.39,0,.73-.1,1.03-.29.3-.19.53-.46.7-.79s.26-.72.26-1.16-.09-.82-.26-1.16c-.17-.33-.41-.6-.71-.79-.3-.19-.66-.29-1.06-.29s-.74.1-1.04.29c-.3.2-.54.46-.71.79-.17.34-.26.72-.26,1.16s.09.82.26,1.16c.17.34.41.6.72.79.31.2.67.29,1.08.29Z" style="fill:#5a50a2; stroke-width:0px;"/><path d="m214.73,463.23l-4.7-11.7h4.35l4.12,11.7h-3.77Zm.4,0l4.12-11.7h4.35l-4.7,11.7h-3.77Z" style="fill:#5a50a2; stroke-width:0px;"/><path d="m230.22,463.51c-1.26,0-2.39-.26-3.37-.77-.98-.52-1.75-1.23-2.3-2.15s-.83-1.99-.83-3.21.27-2.28.82-3.2,1.3-1.64,2.27-2.15c.97-.52,2.08-.77,3.34-.77s2.26.26,3.17.78c.91.52,1.63,1.31,2.15,2.37s.78,2.4.78,4.02h-8.75l.51-.61c0,.5.08.94.23,1.31.16.38.39.66.7.87.31.2.69.3,1.15.3.51,0,.96-.12,1.34-.36.38-.24.62-.54.71-.9l3.7,1.14c-.28.81-.73,1.46-1.34,1.95-.62.49-1.3.84-2.06,1.05-.76.21-1.5.32-2.23.32Zm-2.18-6.97l-.44-.68h4.84l-.42.68c0-.61-.1-1.08-.3-1.43-.2-.34-.46-.59-.76-.74-.3-.15-.61-.22-.92-.22-.33,0-.64.07-.95.22-.3.15-.55.39-.75.74-.2.34-.29.82-.29,1.43Z" style="fill:#5a50a2; stroke-width:0px;"/><path d="m237.54,463.23v-11.7h4.21v11.7h-4.21Zm3.23-5.96c0-1.26.25-2.32.76-3.18.51-.86,1.15-1.51,1.93-1.94.78-.44,1.59-.66,2.43-.66v4.12c-.73,0-1.42.07-2.05.2s-1.14.33-1.52.6c-.38.27-.57.59-.57.96l-.98-.09Z" style="fill:#5a50a2; stroke-width:0px;"/><path d="m251.85,463.23l-5.61-11.7h4.68l3.49,8.65,1.43,3.04h-3.98Zm-1.03,4.96c-.55,0-1.12-.11-1.73-.32-.61-.21-1.09-.43-1.45-.67l1.57-3.39c.17.14.35.25.55.34.19.09.38.13.55.13.25,0,.49-.06.71-.19s.4-.33.53-.63l1.4-3.28,3.16-8.65h4.68l-5.03,12.12c-.36.87-.73,1.65-1.12,2.34-.39.69-.88,1.22-1.46,1.62-.58.39-1.37.58-2.35.58Z" style="fill:#5a50a2; stroke-width:0px;"/><path d="m659.63,82.99l6.27-16.37h4.3l-5.99,16.37h-4.58Zm2.95-2.62v-3.81h11.32v3.81h-11.32Zm9.66,2.62l-5.99-16.37h4.3l6.27,16.37h-4.58Z" style="fill:#6e60aa; stroke-width:0px;"/><path d="m680.17,82.99l-4.7-11.7h4.35l4.12,11.7h-3.77Zm.4,0l4.12-11.7h4.35l-4.7,11.7h-3.77Z" style="fill:#6e60aa; stroke-width:0px;"/><path d="m695.54,83.27c-1.25,0-2.35-.26-3.31-.78s-1.71-1.24-2.26-2.16c-.55-.92-.82-1.98-.82-3.18s.27-2.26.81-3.18,1.29-1.64,2.25-2.16,2.05-.78,3.29-.78,2.35.26,3.31.78,1.71,1.24,2.25,2.16.81,1.98.81,3.18-.27,2.26-.81,3.18c-.54.92-1.28,1.64-2.23,2.16s-2.04.78-3.27.78Zm0-3.88c.39,0,.73-.1,1.03-.29.3-.19.53-.46.7-.79.17-.34.26-.72.26-1.16s-.09-.82-.26-1.16c-.17-.33-.41-.6-.71-.79-.3-.19-.66-.29-1.06-.29s-.74.1-1.04.29c-.3.2-.54.46-.71.79-.17.34-.26.72-.26,1.16s.09.82.26,1.16c.17.33.41.6.72.79.31.2.67.29,1.08.29Z" style="fill:#6e60aa; stroke-width:0px;"/><path d="m705.71,70.17c-.62,0-1.17-.23-1.64-.7s-.7-1.01-.7-1.64.23-1.19.7-1.65c.47-.46,1.01-.69,1.64-.69s1.19.23,1.65.69c.46.46.69,1.01.69,1.65s-.23,1.17-.69,1.64c-.46.47-1.01.7-1.65.7Zm-2.11,12.82v-11.7h4.21v11.7h-4.21Z" style="fill:#6e60aa; stroke-width:0px;"/><path d="m714.86,83.27c-1.11,0-2.05-.24-2.84-.72s-1.39-1.18-1.81-2.11c-.42-.92-.63-2.02-.63-3.3s.21-2.4.63-3.31,1.03-1.61,1.81-2.09,1.73-.72,2.84-.72c.97,0,1.77.24,2.4.72.63.48,1.1,1.18,1.4,2.09.3.91.46,2.02.46,3.31s-.15,2.38-.46,3.3c-.3.92-.77,1.62-1.4,2.11-.63.48-1.43.72-2.4.72Zm1.12-3.88c.39,0,.74-.1,1.04-.29.3-.19.54-.46.71-.79.17-.34.26-.72.26-1.16s-.09-.82-.26-1.16c-.17-.33-.41-.6-.71-.78-.3-.19-.66-.28-1.06-.28-.37,0-.71.09-1.01.28-.3.19-.53.45-.7.78-.17.34-.26.72-.28,1.16.02.44.11.82.28,1.16.17.33.41.6.71.79.3.2.64.29,1.02.29Zm2.2,3.6l-.21-2.18v-14.2h4.21v16.37h-4Z" style="fill:#6e60aa; stroke-width:0px;"/><path d="m728,83.27c-1.36,0-2.41-.31-3.17-.92-.76-.62-1.13-1.5-1.13-2.65,0-1.22.38-2.12,1.13-2.7.76-.58,1.81-.88,3.17-.88h3.44v2.41h-1.78c-.55,0-.97.09-1.26.28-.3.19-.44.45-.44.79,0,.23.1.41.3.54.2.12.48.19.84.19.39,0,.72-.07,1.01-.22.28-.15.5-.36.66-.63.16-.27.23-.59.23-.95h1.1c0,1.51-.36,2.68-1.08,3.51-.72.83-1.72,1.24-3.02,1.24Zm3.11-.28l-.12-2.69v-3.04c0-.55-.03-1.04-.09-1.47s-.22-.78-.47-1.03c-.25-.25-.65-.37-1.22-.37-.39,0-.71.09-.96.28-.25.19-.46.41-.63.66l-3.67-1.17c.33-.64.74-1.19,1.23-1.66s1.07-.83,1.73-1.09c.66-.26,1.4-.39,2.21-.39,1.25,0,2.32.23,3.2.68.89.45,1.57,1.08,2.04,1.89.47.81.7,1.75.7,2.83v6.57h-3.95Z" style="fill:#6e60aa; stroke-width:0px;"/><path d="m737.05,82.99v-11.7h3.98l.23,2.15v9.54h-4.21Zm7.32-5.99c0-.45-.05-.82-.15-1.11-.1-.29-.25-.51-.44-.67-.2-.16-.44-.24-.74-.26-.59-.03-1.04.1-1.33.4s-.44.76-.44,1.4h-1.15c0-1.23.19-2.28.56-3.13.38-.86.88-1.51,1.52-1.95s1.36-.67,2.18-.67c.95,0,1.74.19,2.36.57.62.38,1.09.96,1.39,1.74s.46,1.77.46,2.97v.7h-4.21Zm0,5.99v-5.99h4.21v5.99h-4.21Z" style="fill:#6e60aa; stroke-width:0px;"/><path d="m756.59,83.27c-1.28,0-2.42-.26-3.42-.78-1-.52-1.78-1.25-2.34-2.18-.56-.93-.84-1.98-.84-3.17s.28-2.26.84-3.18,1.33-1.64,2.32-2.16,2.11-.78,3.39-.78,2.36.32,3.39.96,1.76,1.57,2.2,2.78l-4.02,1.31c-.12-.31-.35-.57-.69-.77-.34-.2-.71-.3-1.11-.3s-.73.09-1.03.27-.53.43-.7.76c-.17.33-.26.7-.26,1.12s.09.79.26,1.11c.17.32.41.57.72.76.31.19.66.28,1.05.28s.75-.1,1.08-.3c.33-.2.56-.46.7-.77l4.02,1.29c-.44,1.22-1.17,2.15-2.19,2.79-1.02.65-2.15.97-3.38.97Z" style="fill:#6e60aa; stroke-width:0px;"/><path d="m769.36,83.27c-1.26,0-2.39-.26-3.37-.77s-1.75-1.23-2.3-2.15c-.55-.92-.83-1.99-.83-3.2s.27-2.28.82-3.2,1.3-1.64,2.27-2.15c.97-.51,2.08-.77,3.34-.77s2.26.26,3.17.78,1.63,1.31,2.15,2.37.78,2.4.78,4.02h-8.75l.51-.61c0,.5.08.94.23,1.31.16.38.39.66.7.87.31.2.69.3,1.15.3.51,0,.96-.12,1.34-.36.38-.24.62-.54.71-.9l3.7,1.15c-.28.81-.73,1.46-1.34,1.95s-1.3.84-2.06,1.05c-.76.21-1.5.32-2.23.32Zm-2.18-6.97l-.44-.68h4.84l-.42.68c0-.61-.1-1.08-.3-1.43-.2-.34-.46-.59-.76-.74-.3-.15-.61-.22-.92-.22-.33,0-.64.07-.95.22-.3.15-.55.39-.75.74-.2.34-.29.82-.29,1.43Z" style="fill:#6e60aa; stroke-width:0px;"/></g><g id="Layer_3"><path d="m68.46,89.53c1.66,0,3.09.29,4.3.86s2.21,1.38,3.01,2.41c.79,1.03,1.39,2.24,1.78,3.62.4,1.38.59,2.89.59,4.52,0,1.73-.18,3.46-.54,5.18-.36,1.73-.95,3.31-1.76,4.73-.82,1.43-1.93,2.57-3.33,3.44-1.4.86-3.15,1.3-5.24,1.3-1.39,0-2.73-.19-4.01-.58s-2.45-.94-3.51-1.66l3.13-4.9c.74.48,1.52.82,2.34,1.03.82.2,1.52.31,2.12.31,1.32,0,2.41-.62,3.28-1.87s1.3-3.31,1.3-6.19l1.33.68c-.55,1.18-1.35,2.14-2.39,2.88-1.04.74-2.3,1.12-3.76,1.12-1.58,0-2.99-.4-4.21-1.19s-2.18-1.85-2.88-3.17c-.7-1.32-1.04-2.78-1.04-4.39s.38-2.95,1.15-4.18c.77-1.22,1.87-2.19,3.29-2.9,1.43-.71,3.11-1.06,5.06-1.06Zm-.04,5.54c-.53,0-1.01.13-1.44.4-.43.26-.77.62-1.03,1.06-.25.45-.38.94-.38,1.49s.13,1.07.38,1.55c.25.48.59.86,1.03,1.13.43.28.91.41,1.44.41s1.04-.14,1.48-.41c.43-.28.78-.65,1.04-1.13.26-.48.4-1,.4-1.55s-.13-1.05-.4-1.49c-.26-.44-.61-.8-1.04-1.06-.43-.26-.92-.4-1.48-.4Z" style="fill:#fff; stroke-width:0px;"/><path d="m116.35,467.63c-2.21,0-4.04-.29-5.51-.88s-2.56-1.4-3.28-2.45-1.08-2.26-1.08-3.65c0-1.54.36-2.88,1.08-4.03.72-1.15,1.81-2.06,3.28-2.72s3.3-.98,5.51-.96c2.23-.02,4.08.29,5.54.96,1.46.66,2.56,1.57,3.29,2.72.73,1.15,1.1,2.5,1.1,4.03,0,1.39-.37,2.61-1.1,3.65-.73,1.04-1.83,1.86-3.29,2.45-1.46.59-3.31.88-5.54.88Zm0-12.56c-1.99,0-3.67-.28-5.02-.85-1.36-.56-2.38-1.34-3.08-2.34-.7-1-1.04-2.15-1.04-3.47s.35-2.53,1.04-3.56c.7-1.03,1.72-1.84,3.08-2.41,1.36-.58,3.03-.86,5.02-.86s3.67.29,5.04.86c1.37.58,2.41,1.38,3.11,2.41.71,1.03,1.06,2.22,1.06,3.56s-.35,2.48-1.06,3.47c-.71,1-1.75,1.78-3.11,2.34-1.37.56-3.05.85-5.04.85Zm0,7.09c.91,0,1.66-.23,2.23-.7.58-.47.86-1.06.86-1.78,0-.86-.29-1.57-.86-2.11-.58-.54-1.32-.81-2.23-.81-.58,0-1.09.12-1.55.36-.46.24-.82.58-1.08,1.03-.26.44-.4.95-.4,1.53,0,.48.13.91.4,1.28.26.37.62.67,1.08.88.46.22.97.32,1.55.32Zm0-10.33c.79,0,1.45-.25,1.96-.74.52-.49.77-1.11.77-1.85s-.26-1.31-.77-1.76c-.52-.46-1.17-.68-1.96-.68s-1.43.23-1.93.68-.74,1.04-.74,1.76.25,1.36.74,1.85,1.13.74,1.93.74Z" style="fill:#fff; stroke-width:0px;"/><path d="m599.57,85.09v-4.68c0-.62.26-1.37.79-2.25.53-.88,1.25-1.78,2.18-2.7s1.96-1.76,3.11-2.5l2.52-1.62c.43-.29.89-.62,1.37-.99s.89-.79,1.22-1.24c.33-.46.5-.91.5-1.37,0-.43-.1-.82-.31-1.15s-.52-.59-.94-.77-.98-.27-1.67-.27c-.48,0-.91.11-1.3.32-.38.22-.7.5-.95.86s-.44.76-.56,1.19l-6.88-1.12c.22-1.3.74-2.51,1.57-3.64s1.93-2.03,3.31-2.72c1.38-.68,2.98-1.03,4.81-1.03,2.04,0,3.79.35,5.24,1.04s2.57,1.66,3.35,2.9c.78,1.24,1.17,2.67,1.17,4.3,0,1.8-.5,3.32-1.49,4.55s-2.27,2.36-3.83,3.37l-2.05,1.33c-.46.29-.92.62-1.4,1.01-.48.38-.94.83-1.37,1.33h10.4v5.83h-18.79Z" style="fill:#fff; stroke-width:0px;"/><path d="m631.21,85.53c-2.11,0-3.99-.56-5.63-1.67s-2.93-2.65-3.85-4.61c-.92-1.96-1.39-4.21-1.39-6.75s.46-4.79,1.39-6.75c.92-1.96,2.2-3.49,3.82-4.61,1.62-1.12,3.49-1.67,5.6-1.67s4.06.56,5.71,1.67c1.64,1.12,2.93,2.65,3.87,4.61.94,1.96,1.4,4.21,1.4,6.75s-.47,4.79-1.4,6.75c-.94,1.96-2.22,3.49-3.85,4.61s-3.52,1.67-5.65,1.67Zm0-6.05c.86,0,1.62-.3,2.29-.9.66-.6,1.18-1.42,1.57-2.47s.58-2.25.58-3.62-.19-2.62-.58-3.67c-.38-1.06-.91-1.88-1.58-2.48s-1.45-.9-2.34-.9c-.84,0-1.58.3-2.23.9-.65.6-1.16,1.43-1.53,2.48-.37,1.06-.56,2.28-.56,3.67s.19,2.57.56,3.62c.37,1.04.89,1.87,1.57,2.47.67.6,1.43.9,2.27.9Z" style="fill:#fff; stroke-width:0px;"/></g></svg>